<svg width="36" height="36" viewBox="0 0 36 36" fill="none" xmlns="http://www.w3.org/2000/svg">
  <rect x="0.0722656" y="0.46875" width="35" height="35" rx="4" fill="#E9EEFF"/>
  <path d="M14.5723 18.9688L20.5723 18.9688" stroke="#0032DA" stroke-width="2" stroke-linecap="round"/>
  <path d="M14.5723 14.9688L18.5723 14.9688" stroke="#0032DA" stroke-width="2" stroke-linecap="round"/>
  <path d="M14.5723 22.9688L18.5723 22.9688" stroke="#0032DA" stroke-width="2" stroke-linecap="round"/>
  <path d="M24.5723 18.9688V20.9688C24.5723 23.7972 24.5723 25.2114 23.6936 26.0901C22.8149 26.9688 21.4007 26.9688 18.5723 26.9688H16.5723C13.7438 26.9688 12.3296 26.9688 11.4509 26.0901C10.5723 25.2114 10.5723 23.7972 10.5723 20.9687V14.9687C10.5723 12.1403 10.5723 10.7261 11.4509 9.84743C12.3296 8.96875 13.7438 8.96875 16.5723 8.96875V8.96875" stroke="#0032DA" stroke-width="2"/>
  <path d="M23.5723 8.96875L23.5723 14.9688" stroke="#0032DA" stroke-width="2" stroke-linecap="round"/>
  <path d="M26.5723 11.9688L20.5723 11.9687" stroke="#0032DA" stroke-width="2" stroke-linecap="round"/>
</svg>
  