<svg width="39" height="39" viewBox="0 0 39 39" fill="none" xmlns="http://www.w3.org/2000/svg">
  <path d="M30.5127 4.48438H30.7127C32.504 4.48438 33.3997 4.48438 33.9562 5.04087C34.5127 5.59737 34.5127 6.49304 34.5127 8.28437V8.48438" stroke="#0032DA" stroke-linecap="round" />
  <path d="M30.5127 36.2461H30.7127C32.504 36.2461 33.3997 36.2461 33.9562 35.6896C34.5127 35.1331 34.5127 34.2374 34.5127 32.4461V32.2461" stroke="#0032DA" stroke-linecap="round" />
  <path d="M6.92773 4.48438H6.72773C4.9364 4.48438 4.04073 4.48438 3.48423 5.04087C2.92773 5.59737 2.92773 6.49304 2.92773 8.28437V8.48438" stroke="#0032DA" stroke-linecap="round" />
  <path d="M6.92773 36.2461H6.72773C4.9364 36.2461 4.04073 36.2461 3.48423 35.6896C2.92773 35.1331 2.92773 34.2374 2.92773 32.4461V32.2461" stroke="#0032DA" stroke-linecap="round" />
  <path fill-rule="evenodd" clip-rule="evenodd" d="M18.9098 25.7883C20.3927 25.0192 25.5117 22.0007 25.5117 16.9844C25.5117 13.1184 22.3777 9.98438 18.5117 9.98438C14.6457 9.98438 11.5117 13.1184 11.5117 16.9844C11.5117 22.0007 16.6307 25.0192 18.1137 25.7883C18.3665 25.9195 18.6569 25.9195 18.9098 25.7883ZM18.5117 19.9844C20.1686 19.9844 21.5117 18.6412 21.5117 16.9844C21.5117 15.3275 20.1686 13.9844 18.5117 13.9844C16.8549 13.9844 15.5117 15.3275 15.5117 16.9844C15.5117 18.6412 16.8549 19.9844 18.5117 19.9844Z" fill="#0032DA" />
  <path d="M26.3059 25.4844C27.0959 25.9404 27.5117 26.4578 27.5117 26.9844C27.5117 27.511 27.0959 28.0283 26.3059 28.4844C25.516 28.9404 24.3799 29.3191 23.0117 29.5825C21.6435 29.8458 20.0916 29.9844 18.5117 29.9844C16.9319 29.9844 15.3799 29.8458 14.0117 29.5825C12.6435 29.3191 11.5074 28.9404 10.7175 28.4844C9.92758 28.0283 9.51172 27.511 9.51172 26.9844C9.51172 26.4578 9.92757 25.9404 10.7175 25.4844" stroke="#CAD5F8" stroke-width="1.2" stroke-linecap="round" />
</svg>
  