<svg width="19" height="20" viewBox="0 0 19 20" fill="#d9e0f9"  xmlns="http://www.w3.org/2000/svg">
  <path d="M4.24472 6.36004C4.55906 3.53094 6.95037 1.39062 9.79688 1.39062V1.39062C12.6434 1.39062 15.0347 3.53095 15.349 6.36004L15.6008 8.62626C15.604 8.65515 15.6056 8.66959 15.6073 8.68388C15.7362 9.80757 16.102 10.8912 16.6804 11.8631C16.6878 11.8755 16.6953 11.8879 16.7102 11.9129L17.2883 12.8763C17.8128 13.7505 18.0751 14.1876 18.0185 14.5465C17.9808 14.7853 17.8579 15.0023 17.6725 15.1575C17.394 15.3906 16.8842 15.3906 15.8646 15.3906H3.72911C2.70956 15.3906 2.19978 15.3906 1.92121 15.1575C1.73585 15.0023 1.61296 14.7853 1.57529 14.5465C1.51867 14.1876 1.78094 13.7505 2.3055 12.8763L2.88353 11.9129C2.89849 11.8879 2.90596 11.8755 2.91332 11.8631C3.49176 10.8912 3.85751 9.80757 3.98646 8.68388C3.9881 8.66959 3.98971 8.65515 3.99292 8.62626L4.24472 6.36004Z" />
  <path d="M6.8991 15.7965C7.07002 16.5407 7.44666 17.1983 7.97059 17.6674C8.49452 18.1364 9.13647 18.3906 9.79687 18.3906C10.4573 18.3906 11.0992 18.1364 11.6232 17.6674C12.1471 17.1983 12.5237 16.5407 12.6947 15.7965"  stroke-linecap="round" />
</svg>
