<svg width="12" height="7" viewBox="0 0 12 7" fill="none" xmlns="http://www.w3.org/2000/svg">
  <path d="M9.74604 0.469911C10.0389 0.177018 10.5138 0.177018 10.8067 0.469911C11.0996 0.762804 11.0996 1.23768 10.8067 1.53057L9.74604 0.469911ZM5.70532 5.57129L6.23565 6.10162L5.70532 6.63195L5.17499 6.10162L5.70532 5.57129ZM0.603942 1.53057C0.311048 1.23768 0.311048 0.762805 0.603942 0.469912C0.896834 0.177019 1.37171 0.177019 1.6646 0.469911L0.603942 1.53057ZM10.8067 1.53057L6.23565 6.10162L5.17499 5.04096L9.74604 0.469911L10.8067 1.53057ZM5.17499 6.10162L0.603942 1.53057L1.6646 0.469911L6.23565 5.04096L5.17499 6.10162Z" fill="#4065E3" />
</svg>
  