<svg width="12" height="8" viewBox="0 0 12 8" fill="none" xmlns="http://www.w3.org/2000/svg">
  <path d="M2.26013 7.09989C1.96712 7.39266 1.49224 7.39246 1.19947 7.09945C0.906702 6.80643 0.906901 6.33156 1.19992 6.03879L2.26013 7.09989ZM6.30298 2.0002L5.77287 1.46965L6.30342 0.93954L6.83353 1.47009L6.30298 2.0002ZM11.4027 6.04305C11.6954 6.33606 11.6952 6.81094 11.4022 7.10371C11.1092 7.39648 10.6343 7.39628 10.3416 7.10326L11.4027 6.04305ZM1.19992 6.03879L5.77287 1.46965L6.83309 2.53075L2.26013 7.09989L1.19992 6.03879ZM6.83353 1.47009L11.4027 6.04305L10.3416 7.10326L5.77243 2.53031L6.83353 1.47009Z" fill="#4065E3"/>
  </svg>
  