<svg width="12" height="13" viewBox="0 0 12 13" fill="none" stroke="#345CE2" xmlns="http://www.w3.org/2000/svg">
  <path d="M6.99152 4.65716L3.98866 7.39585C3.72319 7.63825 3.57405 7.96702 3.57405 8.30983C3.57405 8.65264 3.72319 8.9814 3.98866 9.2238C4.25413 9.46621 4.61418 9.60239 4.98962 9.60239C5.36505 9.60239 5.7251 9.46621 5.99057 9.2238L10.3764 5.22557C10.9073 4.74076 11.2056 4.08323 11.2056 3.39761C11.2056 2.712 10.9073 2.05447 10.3764 1.56966C9.84544 1.08486 9.12533 0.8125 8.37447 0.8125C7.62361 0.8125 6.9035 1.08486 6.37256 1.56966L1.99383 5.5679C1.19742 6.29511 0.75 7.28141 0.75 8.30983C0.75 9.33825 1.19742 10.3246 1.99383 11.0518C2.79024 11.779 3.8704 12.1875 4.99669 12.1875C6.12298 12.1875 7.20314 11.779 7.99955 11.0518L11.25 8.08376" stroke-width="1.5" stroke-linecap="round" stroke-linejoin="round" />
</svg>
