<svg width="25" height="12" viewBox="0 0 25 12" fill="none" xmlns="http://www.w3.org/2000/svg">
  <path fill-rule="evenodd" clip-rule="evenodd" d="M7.0248 0.345315C6.9465 0.266811 6.85347 0.204526 6.75106 0.162028C6.64864 0.119531 6.53885 0.0976562 6.42797 0.0976562C6.31708 0.0976563 6.20729 0.119531 6.10488 0.162028C6.00246 0.204526 5.90944 0.266811 5.83113 0.345315L0.773205 5.40324C0.694701 5.48155 0.632417 5.57457 0.589919 5.67699C0.547422 5.7794 0.525547 5.88919 0.525547 6.00008C0.525547 6.11096 0.547422 6.22075 0.589919 6.32317C0.632417 6.42558 0.694701 6.51861 0.773205 6.59691L5.83113 11.6548C5.98942 11.8131 6.20411 11.9021 6.42797 11.9021C6.65182 11.9021 6.86651 11.8131 7.0248 11.6548C7.18309 11.4965 7.27202 11.2819 7.27202 11.058C7.27202 10.8341 7.18309 10.6195 7.0248 10.4612L2.56203 6.00008L7.0248 1.53899C7.10331 1.46068 7.16559 1.36765 7.20809 1.26524C7.25059 1.16283 7.27246 1.05303 7.27246 0.94215C7.27246 0.831268 7.25059 0.721476 7.20809 0.619061C7.16559 0.516646 7.10331 0.423621 7.0248 0.345315Z" fill="#101840" />
  <path fill-rule="evenodd" clip-rule="evenodd" d="M24.9502 5.99924C24.9502 5.77566 24.8614 5.56125 24.7033 5.40316C24.5452 5.24506 24.3308 5.15625 24.1072 5.15625H2.21231C1.98874 5.15625 1.77432 5.24506 1.61623 5.40316C1.45814 5.56125 1.36933 5.77566 1.36933 5.99924C1.36933 6.22281 1.45814 6.43723 1.61623 6.59532C1.77432 6.75341 1.98874 6.84223 2.21231 6.84223H24.1072C24.3308 6.84223 24.5452 6.75341 24.7033 6.59532C24.8614 6.43723 24.9502 6.22281 24.9502 5.99924Z" fill="#101840" />
</svg>
