<svg width="36" height="36" viewBox="0 0 36 36" fill="none" xmlns="http://www.w3.org/2000/svg">
  <rect x="0.183594" y="0.53125" width="35" height="35" rx="4" fill="#E9EEFF" />
  <g clip-path="url(#clip0_4403_112727)">
    <path d="M9.68359 11.0312V25.0312H25.6836V11.0312H9.68359ZM8.68359 9.03125H26.6836C26.9488 9.03125 27.2032 9.13661 27.3907 9.32414C27.5782 9.51168 27.6836 9.76603 27.6836 10.0312V26.0312C27.6836 26.2965 27.5782 26.5508 27.3907 26.7384C27.2032 26.9259 26.9488 27.0312 26.6836 27.0312H8.68359C8.41838 27.0312 8.16402 26.9259 7.97649 26.7384C7.78895 26.5508 7.68359 26.2965 7.68359 26.0312V10.0312C7.68359 9.76603 7.78895 9.51168 7.97649 9.32414C8.16402 9.13661 8.41838 9.03125 8.68359 9.03125ZM17.6836 15.0312V12.0312L22.6836 17.0312H13.6836V15.0312H17.6836ZM12.6836 19.0312H21.6836V21.0312H17.6836V24.0312L12.6836 19.0312Z" fill="#0032DA" />
  </g>
  <defs>
    <clipPath id="clip0_4403_112727">
      <rect width="24" height="24" fill="white" transform="translate(5.68359 6.03125)" />
    </clipPath>
  </defs>
</svg>
  