<svg width="39" height="39" viewBox="0 0 39 39" fill="none" xmlns="http://www.w3.org/2000/svg">
  <rect x="2" y="1.78906" width="35" height="35" rx="4" fill="#E9EEFF" />
  <path d="M27.9281 16.8869H9.92812C9.59692 16.8869 9.32812 16.6181 9.32812 16.2869V15.0869C9.32812 14.8648 9.45054 14.662 9.64607 14.5577L18.6461 9.75771C18.8225 9.6641 19.0349 9.6641 19.2112 9.75771L28.2112 14.5577C28.4057 14.662 28.5281 14.8648 28.5281 15.0869V16.2869C28.5281 16.6181 28.2593 16.8869 27.9281 16.8869H27.9281ZM10.5281 15.6869H27.3281V15.4469L18.9281 10.9671L10.5281 15.4469V15.6869Z" fill="#0032DA" />
  <path d="M27.9281 28.8891H9.92812C9.59692 28.8891 9.32812 28.6203 9.32812 28.2891V26.4891C9.32812 25.8267 9.86693 25.2891 10.5281 25.2891H27.3281C27.9905 25.2891 28.5281 25.8267 28.5281 26.4891V28.2891C28.5281 28.6203 28.2593 28.8891 27.9281 28.8891ZM10.5281 27.6891H27.3281V26.4891H10.5281V27.6891Z" fill="#0032DA" />
  <path d="M11.1273 26.4875C10.7961 26.4875 10.5273 26.2187 10.5273 25.8875V16.2875C10.5273 15.9563 10.7961 15.6875 11.1273 15.6875C11.4586 15.6875 11.7273 15.9563 11.7273 16.2875V25.8875C11.7273 26.2187 11.4586 26.4875 11.1273 26.4875Z" fill="#0032DA" />
  <path d="M13.5277 26.4875C13.1965 26.4875 12.9277 26.2187 12.9277 25.8875V16.2875C12.9277 15.9563 13.1965 15.6875 13.5277 15.6875C13.8589 15.6875 14.1277 15.9563 14.1277 16.2875V25.8875C14.1277 26.2187 13.8589 26.4875 13.5277 26.4875Z" fill="#0032DA" />
  <path d="M24.3285 26.4875C23.9973 26.4875 23.7285 26.2187 23.7285 25.8875V16.2875C23.7285 15.9563 23.9973 15.6875 24.3285 15.6875C24.6597 15.6875 24.9285 15.9563 24.9285 16.2875V25.8875C24.9285 26.2187 24.6597 26.4875 24.3285 26.4875Z" fill="#0032DA" />
  <path d="M26.7289 26.4875C26.3977 26.4875 26.1289 26.2187 26.1289 25.8875V16.2875C26.1289 15.9563 26.3977 15.6875 26.7289 15.6875C27.0601 15.6875 27.3289 15.9563 27.3289 16.2875V25.8875C27.3289 26.2187 27.0601 26.4875 26.7289 26.4875Z" fill="#0032DA" />
  <path d="M18.9289 24.0859H17.7289C17.3977 24.0859 17.1289 23.8171 17.1289 23.4859C17.1289 23.1547 17.3977 22.8859 17.7289 22.8859H18.9289C19.2589 22.8859 19.5289 22.6159 19.5289 22.2859C19.5289 21.9559 19.2589 21.6859 18.9289 21.6859C17.9365 21.6859 17.1289 20.8783 17.1289 19.8859C17.1289 18.8935 17.9365 18.0859 18.9289 18.0859H20.1289C20.4601 18.0859 20.7289 18.3547 20.7289 18.6859C20.7289 19.0171 20.4601 19.2859 20.1289 19.2859H18.9289C18.5977 19.2859 18.3289 19.5559 18.3289 19.8859C18.3289 20.2159 18.5977 20.4859 18.9289 20.4859C19.9213 20.4859 20.7289 21.2935 20.7289 22.2859C20.7289 23.2783 19.9213 24.0859 18.9289 24.0859Z" fill="#0032DA" />
  <path d="M18.9281 19.2906C18.5969 19.2906 18.3281 19.0218 18.3281 18.6906V17.4906C18.3281 17.1594 18.5969 16.8906 18.9281 16.8906C19.2593 16.8906 19.5281 17.1594 19.5281 17.4906V18.6906C19.5281 19.0218 19.2593 19.2906 18.9281 19.2906Z" fill="#0032DA" />
  <path d="M18.9281 25.2906C18.5969 25.2906 18.3281 25.0218 18.3281 24.6906V23.4906C18.3281 23.1594 18.5969 22.8906 18.9281 22.8906C19.2593 22.8906 19.5281 23.1594 19.5281 23.4906V24.6906C19.5281 25.0218 19.2593 25.2906 18.9281 25.2906Z" fill="#0032DA" />
</svg>
  