<svg width="20" height="21" viewBox="0 0 20 21" fill="none" xmlns="http://www.w3.org/2000/svg">
  <path d="M15 6.92773C15 5.60165 14.4732 4.32988 13.5355 3.3922C12.5979 2.45452 11.3261 1.92773 10 1.92773C8.67392 1.92773 7.40215 2.45452 6.46447 3.3922C5.52678 4.32988 5 5.60165 5 6.92773C5 12.7611 2.5 14.4277 2.5 14.4277H17.5C17.5 14.4277 15 12.7611 15 6.92773Z" stroke="#696F8C" stroke-width="1.5" stroke-linecap="round" stroke-linejoin="round" />
  <path d="M11.4419 17.7617C11.2954 18.0143 11.0851 18.2239 10.8321 18.3697C10.5791 18.5154 10.2922 18.5921 10.0003 18.5921C9.70828 18.5921 9.42142 18.5154 9.16841 18.3697C8.91539 18.2239 8.7051 18.0143 8.55859 17.7617" stroke="#696F8C" stroke-width="1.5" stroke-linecap="round" stroke-linejoin="round" />
</svg>
