<svg width="36" height="36" viewBox="0 0 36 36" fill="none" xmlns="http://www.w3.org/2000/svg">
  <rect x="0.183594" y="0.53125" width="35" height="35" rx="4" fill="#E9EEFF"/>
  <g clip-path="url(#clip0_4403_112032)">
  <path d="M8.68359 13.0325L17.1286 7.40252C17.2929 7.29289 17.486 7.23438 17.6836 7.23438C17.8811 7.23438 18.0743 7.29289 18.2386 7.40252L26.6836 13.0325V27.0325C26.6836 27.2977 26.5782 27.5521 26.3907 27.7396C26.2032 27.9272 25.9488 28.0325 25.6836 28.0325H9.68359C9.41838 28.0325 9.16402 27.9272 8.97649 27.7396C8.78895 27.5521 8.68359 27.2977 8.68359 27.0325V13.0325ZM10.6836 14.1025V26.0325H24.6836V14.1025L17.6836 9.43652L10.6836 14.1025ZM13.6836 22.0325H21.6836V24.0325H13.6836V22.0325ZM13.6836 19.0325H21.6836V21.0325H13.6836V19.0325ZM17.6836 17.0325C17.1532 17.0325 16.6445 16.8218 16.2694 16.4467C15.8943 16.0717 15.6836 15.563 15.6836 15.0325C15.6836 14.5021 15.8943 13.9934 16.2694 13.6183C16.6445 13.2432 17.1532 13.0325 17.6836 13.0325C18.214 13.0325 18.7227 13.2432 19.0978 13.6183C19.4729 13.9934 19.6836 14.5021 19.6836 15.0325C19.6836 15.563 19.4729 16.0717 19.0978 16.4467C18.7227 16.8218 18.214 17.0325 17.6836 17.0325Z" fill="#0032DA"/>
  </g>
  <defs>
  <clipPath id="clip0_4403_112032">
  <rect width="24" height="24" fill="white" transform="translate(5.68359 6.03125)"/>
  </clipPath>
  </defs>
  </svg>
  