<svg width="60" height="60" viewBox="0 0 60 60" fill="none" xmlns="http://www.w3.org/2000/svg">
    <path fill-rule="evenodd" clip-rule="evenodd"
        d="M29.845 3.125H30.155C35.3275 3.125 39.42 3.125 42.6225 3.6025C45.93 4.0975 48.555 5.1375 50.5975 7.4075C52.615 9.6475 53.5175 12.4825 53.9475 16.0575C54.375 19.575 54.375 24.0875 54.375 29.87V30.13C54.375 35.9125 54.375 40.425 53.95 43.9425C53.5175 47.5175 52.615 50.3525 50.6 52.5925C48.555 54.8625 45.9325 55.9025 42.6225 56.3975C39.42 56.875 35.3275 56.875 30.1575 56.875H29.8425C24.6725 56.875 20.58 56.875 17.3775 56.3975C14.0675 55.9025 11.445 54.8625 9.4025 52.5925C7.385 50.3525 6.4825 47.5175 6.0525 43.9425C5.625 40.425 5.625 35.9125 5.625 30.13V29.87C5.625 24.0875 5.625 19.575 6.05 16.06C6.4825 12.48 7.385 9.6475 9.4 7.4075C11.445 5.1375 14.0675 4.0975 17.3775 3.6025C20.58 3.125 24.6725 3.125 29.845 3.125ZM17.9325 7.3125C15.115 7.7325 13.44 8.525 12.1875 9.915C10.9125 11.335 10.1625 13.28 9.7725 16.51C9.3775 19.775 9.375 24.06 9.375 30C9.375 35.94 9.3775 40.225 9.775 43.49C10.165 46.72 10.91 48.665 12.1875 50.085C13.44 51.475 15.115 52.2675 17.9325 52.6875C20.825 53.12 24.6375 53.125 30 53.125C35.3625 53.125 39.175 53.12 42.0675 52.6875C44.885 52.2675 46.56 51.475 47.81 50.085C49.09 48.665 49.835 46.72 50.2275 43.49C50.6225 40.225 50.625 35.94 50.625 30C50.625 24.06 50.6225 19.775 50.225 16.51C49.835 13.28 49.09 11.335 47.8125 9.915C46.56 8.525 44.885 7.7325 42.0675 7.3125C39.175 6.88 35.3625 6.875 30 6.875C24.6375 6.875 20.825 6.88 17.9325 7.3125ZM22.29 13.125H37.71C38.66 13.125 39.485 13.125 40.205 13.3175C41.1585 13.5728 42.0279 14.0746 42.7261 14.7723C43.4243 15.47 43.9266 16.3392 44.1825 17.2925C44.3775 18.0175 44.3775 18.8375 44.375 19.7925V20.21C44.375 21.16 44.375 21.985 44.1825 22.705C43.9272 23.6585 43.4254 24.5279 42.7277 25.2261C42.03 25.9243 41.1608 26.4266 40.2075 26.6825C39.4825 26.8775 38.6625 26.8775 37.7075 26.875H22.2925C21.3425 26.875 20.5175 26.875 19.7975 26.6825C18.844 26.4272 17.9746 25.9254 17.2764 25.2277C16.5782 24.53 16.0759 23.6608 15.82 22.7075C15.625 21.9825 15.6275 21.1625 15.6275 20.2075C15.6277 20.0683 15.6277 19.9292 15.6275 19.79C15.6275 18.84 15.6275 18.015 15.82 17.295C16.0753 16.3415 16.5771 15.4721 17.2748 14.7739C17.9725 14.0757 18.8417 13.5734 19.795 13.3175C20.52 13.1225 21.34 13.125 22.295 13.125M22.5 16.875C21.2175 16.875 20.9425 16.89 20.765 16.94C20.4473 17.0252 20.1577 17.1925 19.9251 17.4251C19.6925 17.6577 19.5252 17.9473 19.44 18.265C19.39 18.4425 19.375 18.715 19.375 20C19.375 21.2825 19.39 21.5575 19.44 21.735C19.5252 22.0527 19.6925 22.3423 19.9251 22.5749C20.1577 22.8075 20.4473 22.9748 20.765 23.06C20.9425 23.11 21.215 23.125 22.5 23.125H37.5C38.7825 23.125 39.0575 23.11 39.235 23.06C39.5527 22.9748 39.8423 22.8075 40.0749 22.5749C40.3075 22.3423 40.4748 22.0527 40.56 21.735C40.61 21.5575 40.625 21.285 40.625 20C40.625 18.7175 40.61 18.4425 40.56 18.265C40.4748 17.9473 40.3075 17.6577 40.0749 17.4251C39.8423 17.1925 39.5527 17.0252 39.235 16.94C39.0575 16.89 38.785 16.875 37.5 16.875H22.5Z"
        fill="white" />
    <path
        d="M22.5 32.5C22.5 33.163 22.2366 33.7989 21.7678 34.2678C21.2989 34.7366 20.663 35 20 35C19.337 35 18.7011 34.7366 18.2322 34.2678C17.7634 33.7989 17.5 33.163 17.5 32.5C17.5 31.837 17.7634 31.2011 18.2322 30.7322C18.7011 30.2634 19.337 30 20 30C20.663 30 21.2989 30.2634 21.7678 30.7322C22.2366 31.2011 22.5 31.837 22.5 32.5ZM22.5 42.5C22.5 43.163 22.2366 43.7989 21.7678 44.2678C21.2989 44.7366 20.663 45 20 45C19.337 45 18.7011 44.7366 18.2322 44.2678C17.7634 43.7989 17.5 43.163 17.5 42.5C17.5 41.837 17.7634 41.2011 18.2322 40.7322C18.7011 40.2634 19.337 40 20 40C20.663 40 21.2989 40.2634 21.7678 40.7322C22.2366 41.2011 22.5 41.837 22.5 42.5ZM32.5 32.5C32.5 33.163 32.2366 33.7989 31.7678 34.2678C31.2989 34.7366 30.663 35 30 35C29.337 35 28.7011 34.7366 28.2322 34.2678C27.7634 33.7989 27.5 33.163 27.5 32.5C27.5 31.837 27.7634 31.2011 28.2322 30.7322C28.7011 30.2634 29.337 30 30 30C30.663 30 31.2989 30.2634 31.7678 30.7322C32.2366 31.2011 32.5 31.837 32.5 32.5ZM32.5 42.5C32.5 43.163 32.2366 43.7989 31.7678 44.2678C31.2989 44.7366 30.663 45 30 45C29.337 45 28.7011 44.7366 28.2322 44.2678C27.7634 43.7989 27.5 43.163 27.5 42.5C27.5 41.837 27.7634 41.2011 28.2322 40.7322C28.7011 40.2634 29.337 40 30 40C30.663 40 31.2989 40.2634 31.7678 40.7322C32.2366 41.2011 32.5 41.837 32.5 42.5ZM42.5 32.5C42.5 33.163 42.2366 33.7989 41.7678 34.2678C41.2989 34.7366 40.663 35 40 35C39.337 35 38.7011 34.7366 38.2322 34.2678C37.7634 33.7989 37.5 33.163 37.5 32.5C37.5 31.837 37.7634 31.2011 38.2322 30.7322C38.7011 30.2634 39.337 30 40 30C40.663 30 41.2989 30.2634 41.7678 30.7322C42.2366 31.2011 42.5 31.837 42.5 32.5ZM42.5 42.5C42.5 43.163 42.2366 43.7989 41.7678 44.2678C41.2989 44.7366 40.663 45 40 45C39.337 45 38.7011 44.7366 38.2322 44.2678C37.7634 43.7989 37.5 43.163 37.5 42.5C37.5 41.837 37.7634 41.2011 38.2322 40.7322C38.7011 40.2634 39.337 40 40 40C40.663 40 41.2989 40.2634 41.7678 40.7322C42.2366 41.2011 42.5 41.837 42.5 42.5Z"
        fill="white" />
</svg>
    