<svg width="41" height="20" viewBox="0 0 41 20" fill="none" xmlns="http://www.w3.org/2000/svg">
  <path fill-rule="evenodd" clip-rule="evenodd" d="M30.1731 0.526516C30.0061 0.5958 29.8544 0.697343 29.7268 0.82533C29.5988 0.952993 29.4973 1.10465 29.428 1.27162C29.3587 1.43859 29.323 1.61758 29.323 1.79835C29.323 1.97913 29.3587 2.15812 29.428 2.32509C29.4973 2.49206 29.5988 2.64372 29.7268 2.77138L35.6276 8.66996H1.87677C1.51228 8.66996 1.16271 8.81475 0.904973 9.07249C0.647237 9.33022 0.502441 9.67979 0.502441 10.0443C0.502441 10.4088 0.647237 10.7583 0.904973 11.0161C1.16271 11.2738 1.51228 11.4186 1.87677 11.4186H35.6277L29.7268 17.3173C29.4687 17.5753 29.3237 17.9253 29.3237 18.2903C29.3237 18.6553 29.4687 19.0053 29.7268 19.2633C29.9848 19.5214 30.3349 19.6664 30.6998 19.6664C31.0648 19.6664 31.4148 19.5214 31.6728 19.2633L39.9188 11.0174C40.0468 10.8897 40.1483 10.738 40.2176 10.5711C40.2869 10.4041 40.3226 10.2251 40.3226 10.0443C40.3226 9.86355 40.2869 9.68456 40.2176 9.51759C40.1483 9.35062 40.0468 9.19896 39.9188 9.0713L31.6728 0.82533C31.5452 0.697343 31.3935 0.5958 31.2265 0.526516C31.0596 0.457232 30.8806 0.42157 30.6998 0.42157C30.519 0.42157 30.34 0.457232 30.1731 0.526516Z" fill="black" />
</svg>
