<svg width="25" height="12" viewBox="0 0 25 12" fill="none" xmlns="http://www.w3.org/2000/svg">
  <path opacity="0.3" fill-rule="evenodd" clip-rule="evenodd" d="M6.54117 0.206096C6.64359 0.248593 6.73661 0.310878 6.81492 0.389382C6.89342 0.467689 6.95571 0.560713 6.9982 0.663128C7.0407 0.765543 7.06258 0.875336 7.06258 0.986218C7.06258 1.0971 7.0407 1.20689 6.9982 1.30931C6.95571 1.41172 6.89342 1.50475 6.81492 1.58305L3.19542 5.20119H23.8977C24.1213 5.20119 24.3357 5.29 24.4938 5.44809C24.6519 5.60618 24.7407 5.8206 24.7407 6.04417C24.7407 6.26775 24.6519 6.48217 24.4938 6.64026C24.3357 6.79835 24.1213 6.88716 23.8977 6.88716H3.19548L6.81492 10.5052C6.97321 10.6635 7.06214 10.8782 7.06214 11.1021C7.06214 11.3259 6.97321 11.5406 6.81492 11.6989C6.65663 11.8572 6.44194 11.9461 6.21808 11.9461C5.99422 11.9461 5.77954 11.8572 5.62125 11.6989L0.56332 6.64098C0.484816 6.56267 0.422531 6.46965 0.380035 6.36723C0.337538 6.26482 0.315662 6.15503 0.315662 6.04414C0.315662 5.93326 0.337538 5.82347 0.380035 5.72105C0.422531 5.61864 0.484816 5.52561 0.56332 5.44731L5.62125 0.389382C5.69955 0.310878 5.79258 0.248593 5.89499 0.206096C5.99741 0.163598 6.1072 0.141724 6.21808 0.141724C6.32896 0.141724 6.43876 0.163598 6.54117 0.206096Z" fill="black" />
</svg>
