<svg width="25" height="25" viewBox="0 0 25 25" fill="none" xmlns="http://www.w3.org/2000/svg">
  <path
    d="M23.7823 12.387C23.7864 13.9702 23.4166 15.5319 22.7028 16.9451C21.8565 18.6384 20.5554 20.0627 18.9453 21.0584C17.3353 22.0541 15.4798 22.5819 13.5867 22.5826C12.0036 22.5868 10.4418 22.2169 9.02869 21.5031L2.19165 23.7821L4.47067 16.9451C3.75689 15.5319 3.387 13.9702 3.39113 12.387C3.39186 10.494 3.91964 8.63847 4.91534 7.02841C5.91103 5.41834 7.33533 4.11729 9.02869 3.27097C10.4418 2.5572 12.0036 2.18731 13.5867 2.19144H14.1865C16.6866 2.32937 19.048 3.38464 20.8186 5.15519C22.5891 6.92574 23.6444 9.28716 23.7823 11.7873V12.387Z"
    stroke="#345CE2" stroke-width="2.39896" stroke-linecap="round" stroke-linejoin="round" />
</svg>