<svg width="20" height="20" viewBox="0 0 20 20" fill="none" xmlns="http://www.w3.org/2000/svg">
  <path
    d="M10 0C4.47715 0 0 4.47715 0 10C0 15.5228 4.47715 20 10 20C15.5228 20 20 15.5228 20 10C19.9936 4.47982 15.5202 0.00642897 10 0Z"
    fill="#E2E9FE" />
  <path
    d="M15.7725 6.83362L10.0683 14.5745C9.93229 14.7549 9.72944 14.8732 9.50535 14.9027C9.28126 14.9321 9.05473 14.8703 8.87666 14.7311L4.80333 11.4745C4.44388 11.1868 4.38568 10.6622 4.67333 10.3028C4.96098 9.94334 5.48555 9.88514 5.845 10.1728L9.24166 12.8903L14.4308 5.84778C14.601 5.59244 14.8977 5.45127 15.2032 5.48032C15.5086 5.50936 15.7734 5.70393 15.8924 5.98676C16.0114 6.2696 15.9653 6.59494 15.7725 6.83362Z"
    fill="#3F65E4" />
</svg>
  