<svg width="24" height="25" viewBox="0 0 24 25" fill="none" xmlns="http://www.w3.org/2000/svg">
  <path d="M12 21.2617C10.8181 21.2617 9.64778 21.0289 8.55585 20.5766C7.46392 20.1243 6.47177 19.4614 5.63604 18.6257C4.80031 17.79 4.13738 16.7978 3.68508 15.7059C3.23279 14.6139 3 13.4436 3 12.2617C3 11.0798 3.23279 9.9095 3.68508 8.81757C4.13738 7.72564 4.80031 6.73348 5.63604 5.89776C6.47177 5.06203 7.46392 4.39909 8.55585 3.9468C9.64778 3.49451 10.8181 3.26172 12 3.26172C13.1819 3.26172 14.3522 3.49451 15.4442 3.9468C16.5361 4.3991 17.5282 5.06203 18.364 5.89776C19.1997 6.73349 19.8626 7.72564 20.3149 8.81757C20.7672 9.9095 21 11.0798 21 12.2617C21 13.4436 20.7672 14.6139 20.3149 15.7059C19.8626 16.7978 19.1997 17.79 18.364 18.6257C17.5282 19.4614 16.5361 20.1243 15.4441 20.5766C14.3522 21.0289 13.1819 21.2617 12 21.2617L12 21.2617Z" stroke="#101840" stroke-linecap="round" />
  <path d="M9 9.26172L15 15.2617" stroke="#101840" stroke-linecap="round" />
  <path d="M15 9.26172L9 15.2617" stroke="#101840" stroke-linecap="round" />
</svg>
  