<svg width="20" height="9" viewBox="0 0 20 9" fill="none" xmlns="http://www.w3.org/2000/svg">
  <path d="M19.7099 1.54635L19.3909 1.90674C19.0177 2.30217 18.5776 2.7615 18.0609 3.27183L19.0815 4.2287C19.2047 4.34489 19.2767 4.50536 19.2814 4.67465C19.2863 4.8441 19.2235 5.00827 19.107 5.13129C18.987 5.25901 18.8198 5.33163 18.6445 5.3322C18.4808 5.33249 18.3231 5.26969 18.2044 5.15677L17.1135 4.12329V4.12343C16.4102 4.72204 15.6459 5.24477 14.833 5.68303L15.4709 6.95885C15.5445 7.11121 15.5545 7.2865 15.499 7.44611C15.4433 7.60573 15.3265 7.73687 15.1743 7.81049C15.088 7.85306 14.9931 7.87485 14.8968 7.87428C14.7792 7.87841 14.6627 7.84993 14.5602 7.79198C14.4578 7.73403 14.3734 7.64873 14.3163 7.54578L13.6784 6.23806C12.7328 6.60302 11.7366 6.82031 10.7249 6.88239V8.23797C10.7249 8.4658 10.6033 8.67638 10.4059 8.79044C10.2086 8.90435 9.96539 8.90435 9.76803 8.79044C9.57068 8.67638 9.44908 8.46579 9.44908 8.23797V6.88239C8.43553 6.81646 7.43838 6.5949 6.49234 6.22527L5.85443 7.53299C5.80189 7.64035 5.72015 7.73077 5.61863 7.79399C5.5171 7.85721 5.39991 7.89053 5.28031 7.89025C5.18419 7.89082 5.08908 7.86903 5.00279 7.82646C4.85114 7.75227 4.73509 7.62099 4.68013 7.46135C4.62516 7.30172 4.6357 7.12673 4.70946 6.97479L5.34737 5.69897C4.53518 5.25757 3.7718 4.73157 3.06995 4.12981L1.96316 5.16316C1.79742 5.31993 1.56062 5.37618 1.34205 5.31096C1.12334 5.24574 0.956171 5.06875 0.903498 4.84693C0.850672 4.62494 0.9203 4.39171 1.08604 4.23508L2.1067 3.27821C1.59637 2.78071 1.14983 2.32134 0.795848 1.91312L0.476892 1.55272V1.55258C0.330941 1.38484 0.282956 1.15303 0.350163 0.941025C0.417515 0.729006 0.590374 0.567392 0.806543 0.514427C1.02255 0.461459 1.25053 0.524964 1.40829 0.681881L1.74633 1.04866C3.31235 2.76147 5.94051 5.63215 10.0869 5.63215C14.2334 5.63215 16.8615 2.76154 18.437 1.04575L18.7783 0.678964C18.9359 0.522049 19.1641 0.458542 19.3801 0.511511C19.5961 0.564337 19.7691 0.726094 19.8363 0.93811C19.9037 1.15013 19.8557 1.3818 19.7097 1.54967L19.7099 1.54635Z" fill="#080F30" />
</svg>
