<svg width="19" height="18" viewBox="0 0 19 18" fill="#d9e0f9" xmlns="http://www.w3.org/2000/svg">
  <path d="M16.8232 0.890625H2.42324C1.22324 0.890625 0.323242 1.89062 0.323242 3.09063V12.4906C0.323242 13.6906 1.32324 14.6906 2.42324 14.6906H8.82324V16.6906C8.82324 16.9906 8.92324 17.1906 9.22324 17.2906C9.32324 17.3906 9.42324 17.3906 9.62324 17.3906C9.72324 17.3906 9.92324 17.3906 10.0232 17.2906L14.6232 14.5906H16.8232C18.0232 14.5906 18.9232 13.5906 18.9232 12.3906V2.99063C18.9232 1.79063 18.0232 0.890625 16.8232 0.890625ZM17.4232 12.3906C17.4232 12.7906 17.1232 13.0906 16.8232 13.0906H14.4232C14.3232 13.0906 14.1232 13.0906 14.0232 13.1906L10.3232 15.2906V13.7906C10.3232 13.3906 10.0232 12.9906 9.52324 12.9906H2.42324C2.12324 12.9906 1.82324 12.6906 1.82324 12.2906V2.99063C1.82324 2.59063 2.12324 2.29062 2.42324 2.29062H16.8232C17.1232 2.29062 17.4232 2.59063 17.4232 2.99063V12.3906Z"  />
  <path d="M5.42285 8.58984C5.97514 8.58984 6.42285 8.14213 6.42285 7.58984C6.42285 7.03756 5.97514 6.58984 5.42285 6.58984C4.87057 6.58984 4.42285 7.03756 4.42285 7.58984C4.42285 8.14213 4.87057 8.58984 5.42285 8.58984Z"  />
  <path d="M9.62305 8.58984C10.1753 8.58984 10.623 8.14213 10.623 7.58984C10.623 7.03756 10.1753 6.58984 9.62305 6.58984C9.07076 6.58984 8.62305 7.03756 8.62305 7.58984C8.62305 8.14213 9.07076 8.58984 9.62305 8.58984Z"  />
  <path d="M13.8232 8.58984C14.3755 8.58984 14.8232 8.14213 14.8232 7.58984C14.8232 7.03756 14.3755 6.58984 13.8232 6.58984C13.271 6.58984 12.8232 7.03756 12.8232 7.58984C12.8232 8.14213 13.271 8.58984 13.8232 8.58984Z"  />
</svg>
