<svg width="39" height="39" viewBox="0 0 39 39" fill="none" xmlns="http://www.w3.org/2000/svg">
<path d="M2.12013 12.167C2.11973 11.7626 2.19899 11.3622 2.35338 10.9885C2.50778 10.6148 2.73431 10.2752 3.02002 9.98901C3.30572 9.70286 3.64501 9.47581 4.01849 9.32082C4.39197 9.16584 4.79233 9.08596 5.1967 9.08575L5.51696 9.08558L5.51139 9.10787C6.00792 9.15917 6.4862 9.33078 6.90388 9.60986C7.4096 9.94777 7.80376 10.4281 8.03651 10.99C8.26927 11.5519 8.33017 12.1702 8.21151 12.7668C8.09285 13.3633 7.79997 13.9113 7.36989 14.3414C6.93981 14.7714 6.39185 15.0643 5.79532 15.183C5.19878 15.3016 4.58045 15.2407 4.01853 15.008C3.4566 14.7752 2.97631 14.3811 2.6384 13.8753C2.30052 13.3697 2.12016 12.7751 2.12013 12.167ZM2.12013 12.167C2.12013 12.1669 2.12013 12.1669 2.12013 12.1668H2.37013L2.12013 12.1671C2.12013 12.167 2.12013 12.167 2.12013 12.167ZM11.7365 23.6083H11.8278C12.6232 23.6326 13.381 23.9592 13.9454 24.5236C14.5317 25.1099 14.8614 25.905 14.8622 26.7342V38.0857H7.84572V30.8747V30.6247H7.59572H0.384766V19.5593C0.385281 18.9072 0.533568 18.2636 0.818486 17.6771C1.10342 17.0905 1.51759 16.5761 2.02987 16.1725L2.26699 15.9857L2.0393 15.7876C1.27952 15.1263 0.746402 14.2433 0.515063 13.263C0.283723 12.2827 0.365829 11.2545 0.749809 10.3233C1.13379 9.39213 1.80029 8.60492 2.65537 8.07261C3.51046 7.54029 4.51102 7.28972 5.51607 7.3562C6.52111 7.42267 7.47996 7.80284 8.25748 8.44314C9.03501 9.08343 9.59202 9.95157 9.85001 10.9252C10.108 11.8988 10.054 12.9289 9.69554 13.8702C9.3371 14.8115 8.69233 15.6166 7.85208 16.172L7.60011 16.3386L7.81083 16.555C8.59445 17.3597 9.03269 18.4387 9.0321 19.562V19.5621V23.3583V23.6083H9.2821H11.7365ZM9.2821 23.1083V19.5621L11.735 23.3597L11.5597 23.535L11.5582 23.5336L11.3829 23.3583H9.5321H9.2821V23.1083ZM12.8768 36.3576H13.1268L13.1268 36.1076L13.1283 26.7427V26.7424C13.1278 26.3735 12.981 26.0198 12.7202 25.759C12.4593 25.4982 12.1057 25.3514 11.7368 25.3509H11.7365H7.29382V19.5665C7.29382 18.8806 7.02135 18.2228 6.53636 17.7378C6.05137 17.2528 5.39358 16.9804 4.7077 16.9804C4.02183 16.9804 3.36404 17.2528 2.87905 17.7378C2.39406 18.2228 2.12159 18.8806 2.12159 19.5665V28.6466V28.8966H2.37159H9.58255V36.1076V36.3576H9.83255H12.8768Z"  stroke="white" stroke-width="0.5"/>
<path d="M36.297 15.9735V16.5228L36.5529 16.2999C36.9915 16.6816 37.3491 17.1484 37.6035 17.6729C37.8882 18.26 38.0361 18.904 38.036 19.5565V19.5565V30.622H30.825H30.575V30.872V38.083H23.5586V26.7357C23.5586 25.906 23.888 25.1102 24.4744 24.5233C25.0608 23.9364 25.8563 23.6063 26.6859 23.6056H29.1401H29.3901V23.3556V19.5594V19.5593C29.3894 18.436 29.8276 17.357 30.6114 16.5524L30.822 16.3361L30.5702 16.1694C29.7309 15.6141 29.0869 14.8093 28.7291 13.8687C28.3713 12.928 28.3176 11.8987 28.5756 10.9259C28.8336 9.9531 29.3903 9.08575 30.1673 8.44604C30.9442 7.80633 31.9023 7.42652 32.9066 7.3601C33.9108 7.29367 34.9106 7.544 35.7651 8.0758C36.6196 8.6076 37.2857 9.39407 37.6695 10.3244C38.0534 11.2548 38.1358 12.2821 37.9049 13.2618C37.6901 14.1735 37.214 15.0012 36.5372 15.6445L36.297 15.4551V15.9706V15.9735ZM33.2254 9.08453L33.2251 9.08453C32.4098 9.08538 31.6282 9.40962 31.0517 9.98611C30.4753 10.5626 30.151 11.3442 30.1501 12.1595V12.1598C30.1501 12.768 30.3305 13.3626 30.6684 13.8683C31.0063 14.374 31.4866 14.7682 32.0486 15.0009C32.6105 15.2337 33.2288 15.2946 33.8253 15.1759C34.4219 15.0573 34.9698 14.7644 35.3999 14.3343C35.83 13.9042 36.1229 13.3563 36.2415 12.7597C36.3602 12.1632 36.2993 11.5449 36.0665 10.9829C35.8338 10.421 35.4396 9.94072 34.9339 9.60281C34.4282 9.2649 33.8336 9.08453 33.2254 9.08453ZM36.0506 28.8896H36.3007L36.3006 28.6395L36.2962 19.558C36.2962 19.5579 36.2962 19.5579 36.2962 19.5578C36.2962 18.872 36.0238 18.2143 35.5388 17.7293C35.0538 17.2443 34.396 16.9718 33.7101 16.9718C33.0242 16.9718 32.3664 17.2443 31.8815 17.7293C31.3965 18.2143 31.124 18.8721 31.124 19.558V25.3424H26.6843H26.6837C26.3151 25.3434 25.9619 25.4903 25.7014 25.7511C25.4409 26.0119 25.2944 26.3653 25.294 26.7339V26.7342V36.1005V36.3505H25.544H28.5897H28.8397V36.1005V28.8896H36.0506Z"  stroke="white" stroke-width="0.5"/>
<path d="M16.7838 12.2794L16.7116 12.1544H16.5673H15.214C14.4437 12.1537 13.7051 11.8473 13.1604 11.3026C12.6156 10.7579 12.3093 10.0193 12.3086 9.24894L12.3086 3.33893C12.3093 2.56861 12.6157 1.83006 13.1604 1.28536C13.7051 0.740642 14.4437 0.434306 15.214 0.433594L23.212 0.433594C23.9823 0.434335 24.7208 0.740668 25.2655 1.28536C25.8102 1.83009 26.1166 2.56868 26.1173 3.33904V9.24894C26.1166 10.0193 25.8102 10.7579 25.2655 11.3026C24.7208 11.8473 23.9822 12.1537 23.2118 12.1544H21.8586H21.7143L21.6421 12.2794L19.2129 16.4861L16.7838 12.2794ZM24.3819 9.24917V9.24911L24.3805 3.33874V3.33841C24.38 3.02879 24.2568 2.73199 24.0378 2.51306C23.8189 2.29413 23.5221 2.17091 23.2125 2.17042H23.2121L15.2138 2.17042L15.2134 2.17042C14.9038 2.17091 14.607 2.29413 14.3881 2.51306C14.1691 2.73199 14.0459 3.02879 14.0454 3.33841V3.3388V9.24917C14.0454 9.55911 14.1684 9.85639 14.3874 10.0757C14.6064 10.2951 14.9035 10.4185 15.2134 10.419H15.2138H17.7137L18.9964 12.6404L19.2128 13.0151L19.4294 12.6405L20.7136 10.419H23.2135H23.2139C23.5239 10.4185 23.8209 10.2951 24.0399 10.0757C24.2589 9.85639 24.3819 9.55911 24.3819 9.24917Z" stroke="white" stroke-width="0.5"/>
</svg>
