<svg width="19" height="22" viewBox="0 0 19 22" fill="none" xmlns="http://www.w3.org/2000/svg">
  <g clip-path="url(#clip0_347_32995)">
    <path d="M11.6373 20.1665H2.65936C2.05765 20.1665 1.48059 19.9328 1.05512 19.5168C0.629651 19.1008 0.390625 18.5365 0.390625 17.9482V6.3807C0.390625 5.79237 0.629651 5.22813 1.05512 4.81211C1.48059 4.3961 2.05765 4.16238 2.65936 4.16238H11.6373C12.239 4.16238 12.8161 4.3961 13.2416 4.81211C13.667 5.22813 13.9061 5.79237 13.9061 6.3807V17.9482C13.9061 18.5365 13.667 19.1008 13.2416 19.5168C12.8161 19.9328 12.239 20.1665 11.6373 20.1665ZM2.65936 5.28566C2.3625 5.28619 2.07796 5.40173 1.86805 5.60698C1.65814 5.81222 1.53997 6.09044 1.53943 6.3807V17.9482C1.53997 18.2385 1.65814 18.5167 1.86805 18.7219C2.07796 18.9272 2.3625 19.0427 2.65936 19.0432H11.6373C11.9342 19.0427 12.2187 18.9272 12.4286 18.7219C12.6386 18.5167 12.7567 18.2385 12.7573 17.9482V6.3807C12.7567 6.09044 12.6386 5.81222 12.4286 5.60698C12.2187 5.40173 11.9342 5.28619 11.6373 5.28566H2.65936Z" fill="black" />
    <path d="M16.603 15.0785H16.0997C15.9482 15.0785 15.8029 15.0196 15.6958 14.9149C15.5886 14.8101 15.5284 14.668 15.5284 14.5199C15.5284 14.3717 15.5886 14.2296 15.6958 14.1249C15.8029 14.0201 15.9482 13.9613 16.0997 13.9613H16.6112C16.8386 13.9607 17.0565 13.8722 17.2173 13.715C17.3781 13.5577 17.4687 13.3447 17.4692 13.1223V2.21831C17.4687 1.92806 17.3505 1.64984 17.1406 1.44459C16.9307 1.23935 16.6462 1.12381 16.3493 1.12327H8.04162C7.81514 1.12327 7.59784 1.21082 7.43711 1.36685C7.27638 1.52287 7.18526 1.7347 7.18363 1.95615C7.18363 2.1043 7.12344 2.24639 7.0163 2.35115C6.90916 2.45591 6.76384 2.51476 6.61232 2.51476C6.4608 2.51476 6.31549 2.45591 6.20835 2.35115C6.10121 2.24639 6.04102 2.1043 6.04102 1.95615C6.04156 1.43751 6.25252 0.940266 6.62758 0.573533C7.00265 0.206799 7.5112 0.000533855 8.04162 0L16.3411 0C16.9428 0 17.5198 0.233715 17.9453 0.649729C18.3708 1.06574 18.6098 1.62998 18.6098 2.21831V13.1284C18.6076 13.647 18.3951 14.1436 18.0188 14.5092C17.6426 14.8748 17.1334 15.0796 16.603 15.0785Z" fill="black" />
  </g>
  <defs>
    <clipPath id="clip0_347_32995">
      <rect width="18" height="22" fill="white" transform="translate(0.5)" />
    </clipPath>
  </defs>
</svg>