<svg width="32" height="32" viewBox="0 0 32 32" fill="none" xmlns="http://www.w3.org/2000/svg">
<rect width="32" height="32" rx="16" fill="#F9F9F9"/>
<g clip-path="url(#clip0_900_20059)">
<path d="M10.7007 13.1016L11.4272 21.8717C11.4792 22.5041 12.018 23 12.6528 23H19.3467C19.9816 23 20.5203 22.5041 20.5724 21.8717L21.2989 13.1016H10.7007ZM13.9486 21.3594C13.7339 21.3594 13.5533 21.1924 13.5396 20.9748L13.1295 14.3577C13.1155 14.1314 13.2873 13.9367 13.5132 13.9227C13.7475 13.9062 13.9338 14.0801 13.9482 14.3064L14.3583 20.9236C14.3729 21.1579 14.1874 21.3594 13.9486 21.3594ZM16.4099 20.9492C16.4099 21.1759 16.2265 21.3594 15.9998 21.3594C15.7731 21.3594 15.5896 21.1759 15.5896 20.9492V14.332C15.5896 14.1053 15.7731 13.9219 15.9998 13.9219C16.2265 13.9219 16.4099 14.1053 16.4099 14.332V20.9492ZM18.87 14.3577L18.4599 20.9749C18.4464 21.1902 18.2669 21.3696 18.0249 21.3586C17.799 21.3446 17.6272 21.1499 17.6412 20.9236L18.0513 14.3064C18.0654 14.0801 18.2636 13.9155 18.4863 13.9227C18.7122 13.9367 18.8841 14.1314 18.87 14.3577Z" fill="#474A50"/>
<path d="M21.332 10.6406H18.8711V10.2305C18.8711 9.55196 18.3191 9 17.6406 9H14.3594C13.6809 9 13.1289 9.55196 13.1289 10.2305V10.6406H10.668C10.2149 10.6406 9.84766 11.0079 9.84766 11.4609C9.84766 11.9139 10.2149 12.2812 10.668 12.2812C14.4405 12.2812 17.5597 12.2812 21.332 12.2812C21.7851 12.2812 22.1523 11.9139 22.1523 11.4609C22.1523 11.0079 21.7851 10.6406 21.332 10.6406ZM18.0508 10.6406H13.9492V10.2305C13.9492 10.0042 14.1331 9.82031 14.3594 9.82031H17.6406C17.8669 9.82031 18.0508 10.0042 18.0508 10.2305V10.6406Z" fill="#474A50"/>
</g>
<defs>
<clipPath id="clip0_900_20059">
<rect width="14" height="14" fill="white" transform="translate(9 9)"/>
</clipPath>
</defs>
</svg>
