<svg width="39" height="39" viewBox="0 0 39 39" fill="none" xmlns="http://www.w3.org/2000/svg">
  <path d="M30.5186 4H30.7186C32.5099 4 33.4056 4 33.9621 4.5565C34.5186 5.11299 34.5186 6.00866 34.5186 7.8V8" stroke="#0032DA" stroke-linecap="round" />
  <path d="M30.519 35.7617H30.719C32.5104 35.7617 33.406 35.7617 33.9625 35.2052C34.519 34.6487 34.519 33.7531 34.519 31.9617V31.7617" stroke="#0032DA" stroke-linecap="round" />
  <path d="M6.93359 4H6.73359C4.94226 4 4.04659 4 3.49009 4.5565C2.93359 5.11299 2.93359 6.00866 2.93359 7.8V8" stroke="#0032DA" stroke-linecap="round" />
  <path d="M6.93359 35.7617H6.73359C4.94226 35.7617 4.04659 35.7617 3.49009 35.2052C2.93359 34.6487 2.93359 33.7531 2.93359 31.9617V31.7617" stroke="#0032DA" stroke-linecap="round" />
  <path d="M11.562 11.3789C11.562 10.2743 12.4574 9.37891 13.562 9.37891H19.1836C19.3217 9.37891 19.4336 9.49084 19.4336 9.62891V15.2505C19.4336 16.3551 20.3291 17.2505 21.4336 17.2505H27.0552C27.1933 17.2505 27.3052 17.3625 27.3052 17.5005V27.6202C27.3052 28.7248 26.4098 29.6202 25.3052 29.6202H13.562C12.4574 29.6202 11.562 28.7248 11.562 27.6202V11.3789Z" fill="#CAD5F8" />
  <path d="M20.5581 15.126V9.98246C20.5581 9.75973 20.8274 9.64819 20.9849 9.80568L26.8784 15.6992C27.0359 15.8567 26.9244 16.126 26.7017 16.126H21.5581C21.0058 16.126 20.5581 15.6783 20.5581 15.126Z" fill="#0032DA" />
  <path d="M15.498 21.1875L22.2451 21.1875" stroke="#0032DA" stroke-linecap="round" />
  <path d="M15.498 24.5625L21.1206 24.5625" stroke="#0032DA" stroke-linecap="round" />
</svg>
  