<svg width="56" height="60" viewBox="0 0 56 60" fill="none" xmlns="http://www.w3.org/2000/svg">
    <path fill-rule="evenodd" clip-rule="evenodd"
        d="M35.7429 31.1141C35.2831 29.8141 34.4316 28.6885 33.3056 27.8924C32.1797 27.0963 30.8346 26.6688 29.4557 26.6688V25.002H26.1221V26.6688C24.3538 26.6688 22.658 27.3712 21.4076 28.6215C20.1573 29.8719 19.4548 31.5677 19.4548 33.336C19.4548 35.1042 20.1573 36.8001 21.4076 38.0504C22.658 39.3008 24.3538 40.0032 26.1221 40.0032V46.6704C24.6719 46.6704 23.4368 45.7453 22.9768 44.4486C22.9085 44.2364 22.7984 44.0401 22.653 43.8712C22.5075 43.7024 22.3297 43.5644 22.13 43.4655C21.9303 43.3665 21.7128 43.3086 21.4903 43.2952C21.2678 43.2818 21.0449 43.3132 20.8348 43.3874C20.6247 43.4617 20.4316 43.5773 20.2669 43.7275C20.1022 43.8777 19.9693 44.0594 19.8761 44.2618C19.7829 44.4642 19.7312 44.6833 19.7241 44.906C19.717 45.1288 19.7547 45.3507 19.8349 45.5587C20.2946 46.8587 21.1461 47.9843 22.2721 48.7804C23.398 49.5765 24.7431 50.004 26.1221 50.004V51.6708H29.4557V50.004C31.2239 50.004 32.9198 49.3016 34.1701 48.0512C35.4205 46.8009 36.1229 45.1051 36.1229 43.3368C36.1229 41.5686 35.4205 39.8727 34.1701 38.6224C32.9198 37.372 31.2239 36.6696 29.4557 36.6696V30.0024C30.1451 30.0022 30.8176 30.2158 31.3806 30.6137C31.9436 31.0116 32.3693 31.5743 32.5993 32.2242C32.7465 32.6411 33.0532 32.9824 33.4521 33.1731C33.6496 33.2675 33.8638 33.3221 34.0824 33.3337C34.3009 33.3454 34.5197 33.3139 34.7261 33.241C34.9325 33.1681 35.1226 33.0552 35.2854 32.9089C35.4482 32.7626 35.5806 32.5856 35.675 32.3881C35.7694 32.1906 35.824 31.9765 35.8356 31.7579C35.8473 31.5393 35.8157 31.3205 35.7429 31.1141ZM26.1221 30.0024C25.2379 30.0024 24.39 30.3536 23.7648 30.9788C23.1397 31.6039 22.7884 32.4519 22.7884 33.336C22.7884 34.2201 23.1397 35.068 23.7648 35.6932C24.39 36.3184 25.2379 36.6696 26.1221 36.6696V30.0024ZM29.4557 46.6704C30.3398 46.6704 31.1877 46.3192 31.8129 45.694C32.4381 45.0689 32.7893 44.2209 32.7893 43.3368C32.7893 42.4527 32.4381 41.6048 31.8129 40.9796C31.1877 40.3544 30.3398 40.0032 29.4557 40.0032V46.6704Z"
        fill="white" />
    <path fill-rule="evenodd" clip-rule="evenodd"
        d="M9.7089 4.3687C13.7992 2.36686 20.5098 0 27.8537 0C35.0443 0 41.5782 2.26852 45.6469 4.24369L45.8769 4.35536C47.1037 4.96208 48.0938 5.53546 48.7905 6.0005L42.6333 15.0012C56.8278 29.5125 67.7921 60 27.8537 60C-12.0846 60 -1.41536 30.0658 12.9025 15.0012L6.78532 6.0005C7.25703 5.69214 7.85541 5.33378 8.56881 4.95375C8.92217 4.76373 9.3022 4.56705 9.7089 4.3687ZM38.6763 14.8829L43.6051 7.67731C39.0213 8.00733 33.5676 9.08409 28.3171 10.6042C24.5668 11.6876 20.3998 11.5226 16.5411 10.8109C15.5688 10.6306 14.6031 10.416 13.6459 10.1675L16.8462 14.8796C23.7051 17.3214 31.8157 17.3214 38.6763 14.8829ZM14.921 17.7181C22.9467 20.8184 32.5925 20.8184 40.6181 17.7148C43.9682 21.2463 46.7706 25.2594 48.9322 29.6208C51.1857 34.2178 52.4125 38.8132 52.2124 42.7736C52.0191 46.5956 50.5156 49.8608 47.082 52.2877C43.5034 54.8162 37.4845 56.6664 27.8521 56.6664C18.2096 56.6664 12.1624 54.8479 8.55047 52.3477C5.09185 49.9525 3.57339 46.7306 3.35837 42.9602C3.13335 39.0433 4.33345 34.4712 6.57864 29.8425C8.72048 25.4288 11.7091 21.1801 14.921 17.7181ZM13.0042 6.52721C14.3376 6.92391 15.7311 7.26894 17.1445 7.53063C20.7282 8.19068 24.3218 8.28736 27.3887 7.39895C30.9627 6.35777 34.5977 5.53891 38.2729 4.94708C35.206 4.02367 31.6191 3.33361 27.8521 3.33361C22.1099 3.33361 16.7545 4.93541 13.0042 6.52721Z"
        fill="white" />
</svg>
    