<svg width="24" height="24" viewBox="0 0 24 24" fill="none" xmlns="http://www.w3.org/2000/svg">
  <circle cx="12" cy="11.999" r="8" fill="#EAEFFF" />
  <path d="M8.5 10.999L11.3939 13.893C11.4525 13.9515 11.5475 13.9515 11.6061 13.893L19.5 5.99902" stroke="#0032DA" stroke-width="1.2" />
  <path d="M19.3578 10.5456C19.6899 12.2267 19.4363 13.971 18.6391 15.4879C17.8419 17.0049 16.5493 18.2031 14.9763 18.8832C13.4033 19.5632 11.6449 19.6841 9.99369 19.2257C8.34247 18.7673 6.89803 17.7572 5.90077 16.3636C4.90351 14.97 4.41358 13.2769 4.51251 11.566C4.61144 9.85522 5.29327 8.22987 6.44453 6.9605C7.59578 5.69113 9.14703 4.85429 10.8401 4.58926C12.5331 4.32423 14.2659 4.64699 15.75 5.50383" stroke="#0032DA" stroke-linecap="round" />
</svg>
