<svg width="365" height="166" viewBox="0 0 365 166" fill="none" xmlns="http://www.w3.org/2000/svg">
  <circle cx="361.55" cy="3.34322" r="2.71242" transform="rotate(90 361.55 3.34322)" fill="#70C217" />
  <circle cx="361.55" cy="43.1251" r="2.71242" transform="rotate(90 361.55 43.1251)" fill="#70C217" />
  <circle cx="361.55" cy="82.9073" r="2.71242" transform="rotate(90 361.55 82.9073)" fill="#70C217" />
  <circle cx="361.55" cy="122.689" r="2.71242" transform="rotate(90 361.55 122.689)" fill="#70C217" />
  <circle cx="361.55" cy="162.472" r="2.71242" transform="rotate(90 361.55 162.472)" fill="#70C217" />
  <circle cx="321.768" cy="3.34286" r="2.71242" transform="rotate(90 321.768 3.34286)" fill="#70C217" />
  <circle cx="321.768" cy="43.1251" r="2.71242" transform="rotate(90 321.768 43.1251)" fill="#70C217" />
  <circle cx="321.768" cy="82.9073" r="2.71242" transform="rotate(90 321.768 82.9073)" fill="#70C217" />
  <circle cx="321.768" cy="122.689" r="2.71242" transform="rotate(90 321.768 122.689)" fill="#70C217" />
  <circle cx="321.768" cy="162.472" r="2.71242" transform="rotate(90 321.768 162.472)" fill="#70C217" />
  <circle cx="281.987" cy="3.34286" r="2.71242" transform="rotate(90 281.987 3.34286)" fill="#70C217" />
  <circle cx="281.987" cy="43.1251" r="2.71242" transform="rotate(90 281.987 43.1251)" fill="#70C217" />
  <circle cx="281.987" cy="82.9073" r="2.71242" transform="rotate(90 281.987 82.9073)" fill="#70C217" />
  <circle cx="281.987" cy="122.689" r="2.71242" transform="rotate(90 281.987 122.689)" fill="#70C217" />
  <circle cx="281.987" cy="162.472" r="2.71242" transform="rotate(90 281.987 162.472)" fill="#70C217" />
  <circle cx="242.204" cy="3.34286" r="2.71242" transform="rotate(90 242.204 3.34286)" fill="#70C217" />
  <circle cx="242.204" cy="43.1251" r="2.71242" transform="rotate(90 242.204 43.1251)" fill="#70C217" />
  <circle cx="242.204" cy="82.9073" r="2.71242" transform="rotate(90 242.204 82.9073)" fill="#70C217" />
  <circle cx="242.204" cy="122.689" r="2.71242" transform="rotate(90 242.204 122.689)" fill="#70C217" />
  <circle cx="242.204" cy="162.472" r="2.71242" transform="rotate(90 242.204 162.472)" fill="#70C217" />
  <circle cx="202.421" cy="3.34286" r="2.71242" transform="rotate(90 202.421 3.34286)" fill="#70C217" />
  <circle cx="202.421" cy="43.1251" r="2.71242" transform="rotate(90 202.421 43.1251)" fill="#70C217" />
  <circle cx="202.421" cy="82.9073" r="2.71242" transform="rotate(90 202.421 82.9073)" fill="#70C217" />
  <circle cx="202.421" cy="122.689" r="2.71242" transform="rotate(90 202.421 122.689)" fill="#70C217" />
  <circle cx="202.421" cy="162.472" r="2.71242" transform="rotate(90 202.421 162.472)" fill="#70C217" />
  <circle cx="162.639" cy="3.34286" r="2.71242" transform="rotate(90 162.639 3.34286)" fill="#70C217" />
  <circle cx="162.639" cy="43.1251" r="2.71242" transform="rotate(90 162.639 43.1251)" fill="#70C217" />
  <circle cx="162.639" cy="82.9073" r="2.71242" transform="rotate(90 162.639 82.9073)" fill="#70C217" />
  <circle cx="162.639" cy="122.689" r="2.71242" transform="rotate(90 162.639 122.689)" fill="#70C217" />
  <circle cx="162.639" cy="162.472" r="2.71242" transform="rotate(90 162.639 162.472)" fill="#70C217" />
  <circle cx="122.858" cy="3.34286" r="2.71242" transform="rotate(90 122.858 3.34286)" fill="#70C217" />
  <circle cx="122.858" cy="43.1251" r="2.71242" transform="rotate(90 122.858 43.1251)" fill="#70C217" />
  <circle cx="122.858" cy="82.9073" r="2.71242" transform="rotate(90 122.858 82.9073)" fill="#70C217" />
  <circle cx="122.858" cy="122.689" r="2.71242" transform="rotate(90 122.858 122.689)" fill="#70C217" />
  <circle cx="122.858" cy="162.472" r="2.71242" transform="rotate(90 122.858 162.472)" fill="#70C217" />
  <circle cx="83.0752" cy="3.34286" r="2.71242" transform="rotate(90 83.0752 3.34286)" fill="#70C217" />
  <circle cx="83.0752" cy="43.1251" r="2.71242" transform="rotate(90 83.0752 43.1251)" fill="#70C217" />
  <circle cx="83.0752" cy="82.9073" r="2.71242" transform="rotate(90 83.0752 82.9073)" fill="#70C217" />
  <circle cx="83.0752" cy="122.689" r="2.71242" transform="rotate(90 83.0752 122.689)" fill="#70C217" />
  <circle cx="83.0752" cy="162.472" r="2.71242" transform="rotate(90 83.0752 162.472)" fill="#70C217" />
  <circle cx="43.2925" cy="3.34286" r="2.71242" transform="rotate(90 43.2925 3.34286)" fill="#70C217" />
  <circle cx="43.2925" cy="43.1251" r="2.71242" transform="rotate(90 43.2925 43.1251)" fill="#70C217" />
  <circle cx="43.2925" cy="82.9073" r="2.71242" transform="rotate(90 43.2925 82.9073)" fill="#70C217" />
  <circle cx="43.2925" cy="122.689" r="2.71242" transform="rotate(90 43.2925 122.689)" fill="#70C217" />
  <circle cx="43.2925" cy="162.472" r="2.71242" transform="rotate(90 43.2925 162.472)" fill="#70C217" />
  <circle cx="3.50974" cy="3.34286" r="2.71242" transform="rotate(90 3.50974 3.34286)" fill="#70C217" />
  <circle cx="3.50974" cy="43.1251" r="2.71242" transform="rotate(90 3.50974 43.1251)" fill="#70C217" />
  <circle cx="3.50974" cy="82.9073" r="2.71242" transform="rotate(90 3.50974 82.9073)" fill="#70C217" />
  <circle cx="3.50974" cy="122.689" r="2.71242" transform="rotate(90 3.50974 122.689)" fill="#70C217" />
  <circle cx="3.50974" cy="162.472" r="2.71242" transform="rotate(90 3.50974 162.472)" fill="#70C217" />
</svg>
