<svg width="263" height="472" viewBox="0 0 263 472" fill="none" xmlns="http://www.w3.org/2000/svg">
  <circle cx="143.326" cy="2.5" r="2" fill="#0A44E4" />
  <circle cx="172.659" cy="2.5" r="2" fill="#0A44E4" />
  <circle cx="201.993" cy="2.5" r="2" fill="#0A44E4" />
  <circle cx="231.325" cy="2.5" r="2" fill="#0A44E4" />
  <circle cx="260.659" cy="2.5" r="2" fill="#0A44E4" />
  <circle cx="143.326" cy="31.8333" r="2" fill="#0A44E4" />
  <circle cx="172.659" cy="31.8333" r="2" fill="#0A44E4" />
  <circle cx="201.993" cy="31.8333" r="2" fill="#0A44E4" />
  <circle cx="231.325" cy="31.8333" r="2" fill="#0A44E4" />
  <circle cx="260.659" cy="31.8333" r="2" fill="#0A44E4" />
  <circle cx="143.326" cy="61.1667" r="2" fill="#0A44E4" />
  <circle cx="172.659" cy="61.1667" r="2" fill="#0A44E4" />
  <circle cx="201.993" cy="61.1667" r="2" fill="#0A44E4" />
  <circle cx="231.325" cy="61.1667" r="2" fill="#0A44E4" />
  <circle cx="260.659" cy="61.1667" r="2" fill="#0A44E4" />
  <circle cx="143.326" cy="90.5" r="2" fill="#0A44E4" />
  <circle cx="172.659" cy="90.5" r="2" fill="#0A44E4" />
  <circle cx="201.993" cy="90.5" r="2" fill="#0A44E4" />
  <circle cx="231.325" cy="90.5" r="2" fill="#0A44E4" />
  <circle cx="260.659" cy="90.5" r="2" fill="#0A44E4" />
  <circle cx="143.326" cy="119.833" r="2" fill="#0A44E4" />
  <circle cx="172.659" cy="119.833" r="2" fill="#0A44E4" />
  <circle cx="201.993" cy="119.833" r="2" fill="#0A44E4" />
  <circle cx="231.325" cy="119.833" r="2" fill="#0A44E4" />
  <circle cx="260.659" cy="119.833" r="2" fill="#0A44E4" />
  <circle cx="143.326" cy="149.167" r="2" fill="#0A44E4" />
  <circle cx="172.659" cy="149.167" r="2" fill="#0A44E4" />
  <circle cx="201.993" cy="149.167" r="2" fill="#0A44E4" />
  <circle cx="231.325" cy="149.167" r="2" fill="#0A44E4" />
  <circle cx="260.659" cy="149.167" r="2" fill="#0A44E4" />
  <circle cx="143.326" cy="178.5" r="2" fill="#0A44E4" />
  <circle cx="172.659" cy="178.5" r="2" fill="#0A44E4" />
  <circle cx="201.993" cy="178.5" r="2" fill="#0A44E4" />
  <circle cx="231.325" cy="178.5" r="2" fill="#0A44E4" />
  <circle cx="260.659" cy="178.5" r="2" fill="#0A44E4" />
  <circle cx="143.326" cy="207.833" r="2" fill="#0A44E4" />
  <circle cx="172.659" cy="207.833" r="2" fill="#0A44E4" />
  <circle cx="201.993" cy="207.833" r="2" fill="#0A44E4" />
  <circle cx="231.325" cy="207.833" r="2" fill="#0A44E4" />
  <circle cx="260.659" cy="207.833" r="2" fill="#0A44E4" />
  <circle cx="143.326" cy="237.167" r="2" fill="#0A44E4" />
  <circle cx="172.659" cy="237.167" r="2" fill="#0A44E4" />
  <circle cx="201.993" cy="237.167" r="2" fill="#0A44E4" />
  <circle cx="231.325" cy="237.167" r="2" fill="#0A44E4" />
  <circle cx="260.659" cy="237.167" r="2" fill="#0A44E4" />
  <circle cx="143.326" cy="266.5" r="2" fill="#0A44E4" />
  <circle cx="172.659" cy="266.5" r="2" fill="#0A44E4" />
  <circle cx="201.993" cy="266.5" r="2" fill="#0A44E4" />
  <circle cx="231.325" cy="266.5" r="2" fill="#0A44E4" />
  <circle cx="260.659" cy="266.5" r="2" fill="#0A44E4" />
  <circle cx="2" cy="206" r="2" fill="#0A44E4" />
  <circle cx="31.3335" cy="206" r="2" fill="#0A44E4" />
  <circle cx="60.667" cy="206" r="2" fill="#0A44E4" />
  <circle cx="89.9995" cy="206" r="2" fill="#0A44E4" />
  <circle cx="119.333" cy="206" r="2" fill="#0A44E4" />
  <circle cx="2" cy="235.333" r="2" fill="#0A44E4" />
  <circle cx="31.3335" cy="235.333" r="2" fill="#0A44E4" />
  <circle cx="60.667" cy="235.333" r="2" fill="#0A44E4" />
  <circle cx="89.9995" cy="235.333" r="2" fill="#0A44E4" />
  <circle cx="119.333" cy="235.333" r="2" fill="#0A44E4" />
  <circle cx="2" cy="264.667" r="2" fill="#0A44E4" />
  <circle cx="31.3335" cy="264.667" r="2" fill="#0A44E4" />
  <circle cx="60.667" cy="264.667" r="2" fill="#0A44E4" />
  <circle cx="89.9995" cy="264.667" r="2" fill="#0A44E4" />
  <circle cx="119.333" cy="264.667" r="2" fill="#0A44E4" />
  <circle cx="2" cy="294" r="2" fill="#0A44E4" />
  <circle cx="31.3335" cy="294" r="2" fill="#0A44E4" />
  <circle cx="60.667" cy="294" r="2" fill="#0A44E4" />
  <circle cx="89.9995" cy="294" r="2" fill="#0A44E4" />
  <circle cx="119.333" cy="294" r="2" fill="#0A44E4" />
  <circle cx="2" cy="323.333" r="2" fill="#0A44E4" />
  <circle cx="31.3335" cy="323.333" r="2" fill="#0A44E4" />
  <circle cx="60.667" cy="323.333" r="2" fill="#0A44E4" />
  <circle cx="89.9995" cy="323.333" r="2" fill="#0A44E4" />
  <circle cx="119.333" cy="323.333" r="2" fill="#0A44E4" />
  <circle cx="2" cy="352.667" r="2" fill="#0A44E4" />
  <circle cx="31.3335" cy="352.667" r="2" fill="#0A44E4" />
  <circle cx="60.667" cy="352.667" r="2" fill="#0A44E4" />
  <circle cx="89.9995" cy="352.667" r="2" fill="#0A44E4" />
  <circle cx="119.333" cy="352.667" r="2" fill="#0A44E4" />
  <circle cx="2" cy="382" r="2" fill="#0A44E4" />
  <circle cx="31.3335" cy="382" r="2" fill="#0A44E4" />
  <circle cx="60.667" cy="382" r="2" fill="#0A44E4" />
  <circle cx="89.9995" cy="382" r="2" fill="#0A44E4" />
  <circle cx="119.333" cy="382" r="2" fill="#0A44E4" />
  <circle cx="2" cy="411.333" r="2" fill="#0A44E4" />
  <circle cx="31.3335" cy="411.333" r="2" fill="#0A44E4" />
  <circle cx="60.667" cy="411.333" r="2" fill="#0A44E4" />
  <circle cx="89.9995" cy="411.333" r="2" fill="#0A44E4" />
  <circle cx="119.333" cy="411.333" r="2" fill="#0A44E4" />
  <circle cx="2" cy="440.667" r="2" fill="#0A44E4" />
  <circle cx="31.3335" cy="440.667" r="2" fill="#0A44E4" />
  <circle cx="60.667" cy="440.667" r="2" fill="#0A44E4" />
  <circle cx="89.9995" cy="440.667" r="2" fill="#0A44E4" />
  <circle cx="119.333" cy="440.667" r="2" fill="#0A44E4" />
  <circle cx="2" cy="470" r="2" fill="#0A44E4" />
  <circle cx="31.3335" cy="470" r="2" fill="#0A44E4" />
  <circle cx="60.667" cy="470" r="2" fill="#0A44E4" />
  <circle cx="89.9995" cy="470" r="2" fill="#0A44E4" />
  <circle cx="119.333" cy="470" r="2" fill="#0A44E4" />
</svg>
