<svg width="233" height="165" viewBox="0 0 233 165" fill="none" xmlns="http://www.w3.org/2000/svg">
  <circle cx="202.233" cy="3.03811" r="2.71242" transform="rotate(90 202.233 3.03811)" fill="#70C217" />
  <circle cx="202.233" cy="42.8203" r="2.71242" transform="rotate(90 202.233 42.8203)" fill="#70C217" />
  <circle cx="202.233" cy="82.6026" r="2.71242" transform="rotate(90 202.233 82.6026)" fill="#70C217" />
  <circle cx="202.233" cy="122.385" r="2.71242" transform="rotate(90 202.233 122.385)" fill="#70C217" />
  <circle cx="202.233" cy="162.167" r="2.71242" transform="rotate(90 202.233 162.167)" fill="#70C217" />
  <circle cx="162.451" cy="3.03811" r="2.71242" transform="rotate(90 162.451 3.03811)" fill="#70C217" />
  <circle cx="162.451" cy="42.8203" r="2.71242" transform="rotate(90 162.451 42.8203)" fill="#70C217" />
  <circle cx="162.451" cy="82.6026" r="2.71242" transform="rotate(90 162.451 82.6026)" fill="#70C217" />
  <circle cx="162.451" cy="122.385" r="2.71242" transform="rotate(90 162.451 122.385)" fill="#70C217" />
  <circle cx="162.451" cy="162.167" r="2.71242" transform="rotate(90 162.451 162.167)" fill="#70C217" />
  <circle cx="122.67" cy="3.03811" r="2.71242" transform="rotate(90 122.67 3.03811)" fill="#70C217" />
  <circle cx="122.67" cy="42.8203" r="2.71242" transform="rotate(90 122.67 42.8203)" fill="#70C217" />
  <circle cx="122.67" cy="82.6026" r="2.71242" transform="rotate(90 122.67 82.6026)" fill="#70C217" />
  <circle cx="122.67" cy="122.385" r="2.71242" transform="rotate(90 122.67 122.385)" fill="#70C217" />
  <circle cx="122.67" cy="162.167" r="2.71242" transform="rotate(90 122.67 162.167)" fill="#70C217" />
  <circle cx="82.8872" cy="3.03811" r="2.71242" transform="rotate(90 82.8872 3.03811)" fill="#70C217" />
  <circle cx="82.8872" cy="42.8203" r="2.71242" transform="rotate(90 82.8872 42.8203)" fill="#70C217" />
  <circle cx="82.8872" cy="82.6026" r="2.71242" transform="rotate(90 82.8872 82.6026)" fill="#70C217" />
  <circle cx="82.8872" cy="122.385" r="2.71242" transform="rotate(90 82.8872 122.385)" fill="#70C217" />
  <circle cx="82.8872" cy="162.167" r="2.71242" transform="rotate(90 82.8872 162.167)" fill="#70C217" />
  <circle cx="43.1045" cy="3.03811" r="2.71242" transform="rotate(90 43.1045 3.03811)" fill="#70C217" />
  <circle cx="43.1045" cy="42.8203" r="2.71242" transform="rotate(90 43.1045 42.8203)" fill="#70C217" />
  <circle cx="43.1045" cy="82.6026" r="2.71242" transform="rotate(90 43.1045 82.6026)" fill="#70C217" />
  <circle cx="43.1045" cy="122.385" r="2.71242" transform="rotate(90 43.1045 122.385)" fill="#70C217" />
  <circle cx="43.1045" cy="162.167" r="2.71242" transform="rotate(90 43.1045 162.167)" fill="#70C217" />
  <circle cx="3.32176" cy="3.03811" r="2.71242" transform="rotate(90 3.32176 3.03811)" fill="#70C217" />
  <circle cx="3.32176" cy="42.8203" r="2.71242" transform="rotate(90 3.32176 42.8203)" fill="#70C217" />
  <circle cx="3.32176" cy="82.6026" r="2.71242" transform="rotate(90 3.32176 82.6026)" fill="#70C217" />
  <circle cx="3.32176" cy="122.385" r="2.71242" transform="rotate(90 3.32176 122.385)" fill="#70C217" />
  <circle cx="3.32176" cy="162.167" r="2.71242" transform="rotate(90 3.32176 162.167)" fill="#70C217" />
</svg>
