<svg width="122" height="268" viewBox="0 0 122 268" fill="none" xmlns="http://www.w3.org/2000/svg">
  <circle cx="2" cy="2" r="2" fill="#0A44E4" />
  <circle cx="31.3335" cy="2" r="2" fill="#0A44E4" />
  <circle cx="60.667" cy="2" r="2" fill="#0A44E4" />
  <circle cx="89.9995" cy="2" r="2" fill="#0A44E4" />
  <circle cx="119.333" cy="2" r="2" fill="#0A44E4" />
  <circle cx="2" cy="31.3333" r="2" fill="#0A44E4" />
  <circle cx="31.3335" cy="31.3333" r="2" fill="#0A44E4" />
  <circle cx="60.667" cy="31.3333" r="2" fill="#0A44E4" />
  <circle cx="89.9995" cy="31.3333" r="2" fill="#0A44E4" />
  <circle cx="119.333" cy="31.3333" r="2" fill="#0A44E4" />
  <circle cx="2" cy="60.6667" r="2" fill="#0A44E4" />
  <circle cx="31.3335" cy="60.6667" r="2" fill="#0A44E4" />
  <circle cx="60.667" cy="60.6667" r="2" fill="#0A44E4" />
  <circle cx="89.9995" cy="60.6667" r="2" fill="#0A44E4" />
  <circle cx="119.333" cy="60.6667" r="2" fill="#0A44E4" />
  <circle cx="2" cy="90" r="2" fill="#0A44E4" />
  <circle cx="31.3335" cy="90" r="2" fill="#0A44E4" />
  <circle cx="60.667" cy="90" r="2" fill="#0A44E4" />
  <circle cx="89.9995" cy="90" r="2" fill="#0A44E4" />
  <circle cx="119.333" cy="90" r="2" fill="#0A44E4" />
  <circle cx="2" cy="119.333" r="2" fill="#0A44E4" />
  <circle cx="31.3335" cy="119.333" r="2" fill="#0A44E4" />
  <circle cx="60.667" cy="119.333" r="2" fill="#0A44E4" />
  <circle cx="89.9995" cy="119.333" r="2" fill="#0A44E4" />
  <circle cx="119.333" cy="119.333" r="2" fill="#0A44E4" />
  <circle cx="2" cy="148.667" r="2" fill="#0A44E4" />
  <circle cx="31.3335" cy="148.667" r="2" fill="#0A44E4" />
  <circle cx="60.667" cy="148.667" r="2" fill="#0A44E4" />
  <circle cx="89.9995" cy="148.667" r="2" fill="#0A44E4" />
  <circle cx="119.333" cy="148.667" r="2" fill="#0A44E4" />
  <circle cx="2" cy="178" r="2" fill="#0A44E4" />
  <circle cx="31.3335" cy="178" r="2" fill="#0A44E4" />
  <circle cx="60.667" cy="178" r="2" fill="#0A44E4" />
  <circle cx="89.9995" cy="178" r="2" fill="#0A44E4" />
  <circle cx="119.333" cy="178" r="2" fill="#0A44E4" />
  <circle cx="2" cy="207.333" r="2" fill="#0A44E4" />
  <circle cx="31.3335" cy="207.333" r="2" fill="#0A44E4" />
  <circle cx="60.667" cy="207.333" r="2" fill="#0A44E4" />
  <circle cx="89.9995" cy="207.333" r="2" fill="#0A44E4" />
  <circle cx="119.333" cy="207.333" r="2" fill="#0A44E4" />
  <circle cx="2" cy="236.667" r="2" fill="#0A44E4" />
  <circle cx="31.3335" cy="236.667" r="2" fill="#0A44E4" />
  <circle cx="60.667" cy="236.667" r="2" fill="#0A44E4" />
  <circle cx="89.9995" cy="236.667" r="2" fill="#0A44E4" />
  <circle cx="119.333" cy="236.667" r="2" fill="#0A44E4" />
  <circle cx="2" cy="266" r="2" fill="#0A44E4" />
  <circle cx="31.3335" cy="266" r="2" fill="#0A44E4" />
  <circle cx="60.667" cy="266" r="2" fill="#0A44E4" />
  <circle cx="89.9995" cy="266" r="2" fill="#0A44E4" />
  <circle cx="119.333" cy="266" r="2" fill="#0A44E4" />
</svg>
