<svg width="364" height="165" viewBox="0 0 364 165" fill="none" xmlns="http://www.w3.org/2000/svg">
  <circle cx="361.217" cy="2.87929" r="2.71242" transform="rotate(90 361.217 2.87929)" fill="#0A44E4" />
  <circle cx="361.217" cy="42.6612" r="2.71242" transform="rotate(90 361.217 42.6612)" fill="#0A44E4" />
  <circle cx="361.217" cy="82.4434" r="2.71242" transform="rotate(90 361.217 82.4434)" fill="#0A44E4" />
  <circle cx="361.217" cy="122.226" r="2.71242" transform="rotate(90 361.217 122.226)" fill="#0A44E4" />
  <circle cx="361.217" cy="162.008" r="2.71242" transform="rotate(90 361.217 162.008)" fill="#0A44E4" />
  <circle cx="321.435" cy="2.87893" r="2.71242" transform="rotate(90 321.435 2.87893)" fill="#0A44E4" />
  <circle cx="321.435" cy="42.6612" r="2.71242" transform="rotate(90 321.435 42.6612)" fill="#0A44E4" />
  <circle cx="321.435" cy="82.4434" r="2.71242" transform="rotate(90 321.435 82.4434)" fill="#0A44E4" />
  <circle cx="321.435" cy="122.226" r="2.71242" transform="rotate(90 321.435 122.226)" fill="#0A44E4" />
  <circle cx="321.435" cy="162.008" r="2.71242" transform="rotate(90 321.435 162.008)" fill="#0A44E4" />
  <circle cx="281.654" cy="2.87893" r="2.71242" transform="rotate(90 281.654 2.87893)" fill="#0A44E4" />
  <circle cx="281.654" cy="42.6612" r="2.71242" transform="rotate(90 281.654 42.6612)" fill="#0A44E4" />
  <circle cx="281.654" cy="82.4434" r="2.71242" transform="rotate(90 281.654 82.4434)" fill="#0A44E4" />
  <circle cx="281.654" cy="122.226" r="2.71242" transform="rotate(90 281.654 122.226)" fill="#0A44E4" />
  <circle cx="281.654" cy="162.008" r="2.71242" transform="rotate(90 281.654 162.008)" fill="#0A44E4" />
  <circle cx="241.871" cy="2.87893" r="2.71242" transform="rotate(90 241.871 2.87893)" fill="#0A44E4" />
  <circle cx="241.871" cy="42.6612" r="2.71242" transform="rotate(90 241.871 42.6612)" fill="#0A44E4" />
  <circle cx="241.871" cy="82.4434" r="2.71242" transform="rotate(90 241.871 82.4434)" fill="#0A44E4" />
  <circle cx="241.871" cy="122.226" r="2.71242" transform="rotate(90 241.871 122.226)" fill="#0A44E4" />
  <circle cx="241.871" cy="162.008" r="2.71242" transform="rotate(90 241.871 162.008)" fill="#0A44E4" />
  <circle cx="202.088" cy="2.87893" r="2.71242" transform="rotate(90 202.088 2.87893)" fill="#0A44E4" />
  <circle cx="202.088" cy="42.6612" r="2.71242" transform="rotate(90 202.088 42.6612)" fill="#0A44E4" />
  <circle cx="202.088" cy="82.4434" r="2.71242" transform="rotate(90 202.088 82.4434)" fill="#0A44E4" />
  <circle cx="202.088" cy="122.226" r="2.71242" transform="rotate(90 202.088 122.226)" fill="#0A44E4" />
  <circle cx="202.088" cy="162.008" r="2.71242" transform="rotate(90 202.088 162.008)" fill="#0A44E4" />
  <circle cx="162.306" cy="2.87893" r="2.71242" transform="rotate(90 162.306 2.87893)" fill="#0A44E4" />
  <circle cx="162.306" cy="42.6612" r="2.71242" transform="rotate(90 162.306 42.6612)" fill="#0A44E4" />
  <circle cx="162.306" cy="82.4434" r="2.71242" transform="rotate(90 162.306 82.4434)" fill="#0A44E4" />
  <circle cx="162.306" cy="122.226" r="2.71242" transform="rotate(90 162.306 122.226)" fill="#0A44E4" />
  <circle cx="162.306" cy="162.008" r="2.71242" transform="rotate(90 162.306 162.008)" fill="#0A44E4" />
  <circle cx="122.525" cy="2.87893" r="2.71242" transform="rotate(90 122.525 2.87893)" fill="#0A44E4" />
  <circle cx="122.525" cy="42.6612" r="2.71242" transform="rotate(90 122.525 42.6612)" fill="#0A44E4" />
  <circle cx="122.525" cy="82.4434" r="2.71242" transform="rotate(90 122.525 82.4434)" fill="#0A44E4" />
  <circle cx="122.525" cy="122.226" r="2.71242" transform="rotate(90 122.525 122.226)" fill="#0A44E4" />
  <circle cx="122.525" cy="162.008" r="2.71242" transform="rotate(90 122.525 162.008)" fill="#0A44E4" />
  <circle cx="82.7422" cy="2.87893" r="2.71242" transform="rotate(90 82.7422 2.87893)" fill="#0A44E4" />
  <circle cx="82.7422" cy="42.6612" r="2.71242" transform="rotate(90 82.7422 42.6612)" fill="#0A44E4" />
  <circle cx="82.7422" cy="82.4434" r="2.71242" transform="rotate(90 82.7422 82.4434)" fill="#0A44E4" />
  <circle cx="82.7422" cy="122.226" r="2.71242" transform="rotate(90 82.7422 122.226)" fill="#0A44E4" />
  <circle cx="82.7422" cy="162.008" r="2.71242" transform="rotate(90 82.7422 162.008)" fill="#0A44E4" />
  <circle cx="42.9594" cy="2.87893" r="2.71242" transform="rotate(90 42.9594 2.87893)" fill="#0A44E4" />
  <circle cx="42.9594" cy="42.6612" r="2.71242" transform="rotate(90 42.9594 42.6612)" fill="#0A44E4" />
  <circle cx="42.9594" cy="82.4434" r="2.71242" transform="rotate(90 42.9594 82.4434)" fill="#0A44E4" />
  <circle cx="42.9594" cy="122.226" r="2.71242" transform="rotate(90 42.9594 122.226)" fill="#0A44E4" />
  <circle cx="42.9594" cy="162.008" r="2.71242" transform="rotate(90 42.9594 162.008)" fill="#0A44E4" />
  <circle cx="3.17674" cy="2.87893" r="2.71242" transform="rotate(90 3.17674 2.87893)" fill="#0A44E4" />
  <circle cx="3.17674" cy="42.6612" r="2.71242" transform="rotate(90 3.17674 42.6612)" fill="#0A44E4" />
  <circle cx="3.17674" cy="82.4434" r="2.71242" transform="rotate(90 3.17674 82.4434)" fill="#0A44E4" />
  <circle cx="3.17674" cy="122.226" r="2.71242" transform="rotate(90 3.17674 122.226)" fill="#0A44E4" />
  <circle cx="3.17674" cy="162.008" r="2.71242" transform="rotate(90 3.17674 162.008)" fill="#0A44E4" />
</svg>
