<svg width="16" height="16" viewBox="0 0 16 16" fill="none" xmlns="http://www.w3.org/2000/svg">
  <path d="M7.84863 10L7.49508 10.3536L7.84863 10.7071L8.20219 10.3536L7.84863 10ZM8.34863 1C8.34863 0.723858 8.12478 0.5 7.84863 0.5C7.57249 0.5 7.34863 0.723858 7.34863 1L8.34863 1ZM2.49508 5.35355L7.49508 10.3536L8.20219 9.64645L3.20219 4.64645L2.49508 5.35355ZM8.20219 10.3536L13.2022 5.35355L12.4951 4.64645L7.49508 9.64645L8.20219 10.3536ZM8.34863 10L8.34863 1L7.34863 1L7.34863 10L8.34863 10Z" fill="#345CE2" />
  <path d="M0.848633 12L0.848633 13C0.848633 14.1046 1.74406 15 2.84863 15L12.8486 15C13.9532 15 14.8486 14.1046 14.8486 13V12" stroke="#345CE2" />
</svg>
  