<svg width="15" height="20" viewBox="0 0 15 20" fill="none" xmlns="http://www.w3.org/2000/svg">
  <path d="M3.84201 8.12431C4.39058 8.12431 4.802 8.00676 5.0567 7.77166C5.33098 7.53656 5.44853 7.16432 5.44853 6.67452C5.44853 6.16514 5.31139 5.79289 5.0567 5.55779C4.802 5.32269 4.39058 5.18555 3.82242 5.18555H2.50977V9.26064H3.33262V8.12431H3.84201ZM3.33262 5.96922H3.80282C4.07711 5.96922 4.27303 6.02799 4.41017 6.12595C4.54731 6.22391 4.60609 6.40024 4.60609 6.63534C4.60609 6.87044 4.54731 7.04677 4.44935 7.16432C4.35139 7.28187 4.15548 7.34064 3.88119 7.34064H3.33262V5.96922Z" fill="#696F8C" />
  <path d="M8.68267 8.69254C9.03532 8.32029 9.19205 7.8305 9.19205 7.18397C9.19205 6.55703 9.01573 6.04765 8.66307 5.69499C8.31042 5.34234 7.80104 5.16602 7.13492 5.16602H5.82227V9.24111H7.09573C7.80104 9.2607 8.33001 9.06478 8.68267 8.69254ZM8.05573 8.14397C7.85981 8.35948 7.56593 8.45744 7.19369 8.45744H6.66471V5.96928H7.13492C7.54634 5.96928 7.85981 6.08683 8.07532 6.30234C8.27124 6.51785 8.38879 6.83132 8.38879 7.22315C8.3692 7.61499 8.25165 7.92846 8.05573 8.14397Z" fill="#696F8C" />
  <path d="M12.1895 5.98881V5.18555H9.64258V9.26064H10.4654V7.65411H12.0916V6.87044H10.4654V5.98881H12.1895Z" fill="#696F8C" />
  <path d="M13.2669 0.894531H1.4335C0.747788 0.894531 0.199219 1.4431 0.199219 2.12881V16.5875C0.199219 17.2733 0.747788 17.8218 1.4335 17.8218H4.15676L3.78451 17.4496L3.41227 17.0773H1.45309C1.17881 17.0773 0.963298 16.8618 0.963298 16.5875V2.12881C0.963298 1.85453 1.17881 1.63902 1.45309 1.63902H13.3061C13.5804 1.63902 13.7959 1.85453 13.7959 2.12881V16.5875C13.7959 16.8618 13.5804 17.0773 13.3061 17.0773H11.6212L11.249 17.4496L10.8767 17.8218H13.3061C13.9918 17.8218 14.5404 17.2733 14.5404 16.5875V2.12881C14.5208 1.4431 13.9526 0.894531 13.2669 0.894531Z" fill="#696F8C" />
  <path d="M11.6791 15.5092L9.11258 15.4896V11.2578H5.58605V15.4309L3.01953 15.3917L7.40809 19.7802L11.6791 15.5092Z" fill="#696F8C" />
</svg>
  