<svg width="36" height="35" viewBox="0 0 36 35" fill="none" xmlns="http://www.w3.org/2000/svg">
  <rect x="0.933594" width="35" height="35" rx="4" fill="#E9EEFF" />
  <g clip-path="url(#clip0_4403_113492)">
    <path d="M18.4336 27.5C12.9106 27.5 8.43359 23.023 8.43359 17.5C8.43359 11.977 12.9106 7.5 18.4336 7.5C19.9862 7.49884 21.5178 7.85978 22.9065 8.55414C24.2953 9.24851 25.5029 10.2572 26.4336 11.5H23.7236C22.5688 10.4818 21.1448 9.81836 19.6223 9.5894C18.0998 9.36044 16.5437 9.57566 15.1405 10.2092C13.7373 10.8428 12.5467 11.8678 11.7117 13.1612C10.8766 14.4546 10.4325 15.9615 10.4326 17.5011C10.4327 19.0407 10.8771 20.5475 11.7124 21.8408C12.5477 23.1341 13.7384 24.1589 15.1417 24.7922C16.545 25.4255 18.1012 25.6405 19.6236 25.4113C21.146 25.1821 22.57 24.5184 23.7246 23.5H26.4346C25.5038 24.743 24.296 25.7517 22.9071 26.4461C21.5182 27.1405 19.9864 27.5013 18.4336 27.5ZM25.4336 21.5V18.5H17.4336V16.5H25.4336V13.5L30.4336 17.5L25.4336 21.5Z" fill="#0032DA" />
  </g>
  <defs>
    <clipPath id="clip0_4403_113492">
      <rect width="24" height="24" fill="white" transform="translate(6.43359 5.5)" />
    </clipPath>
  </defs>
</svg>
  