<svg width="25" height="24" viewBox="0 0 25 24" fill="none" xmlns="http://www.w3.org/2000/svg">
  <path d="M10.4765 19.7806L10.6346 20.255H10.6346L10.4765 19.7806ZM15.4765 18.114L15.6346 18.5883H15.6346L15.4765 18.114ZM20.5255 7.29289L20.879 7.64645L20.5255 7.29289ZM16.1112 11.7071L15.7577 11.3536L16.1112 11.7071ZM5.81836 4.5H19.8184V3.5H5.81836V4.5ZM5.31836 6.58579V5H4.31836V6.58579H5.31836ZM9.87901 11.3535L5.46481 6.93934L4.7577 7.64645L9.17191 12.0607L9.87901 11.3535ZM9.31835 12.4142V19.3063H10.3184V12.4142H9.31835ZM9.31835 19.3063C9.31835 19.9888 9.98705 20.4708 10.6346 20.255L10.3184 19.3063V19.3063H9.31835ZM10.6346 20.255L15.6346 18.5883L15.3184 17.6396L10.3184 19.3063L10.6346 20.255ZM15.6346 18.5883C16.0429 18.4522 16.3184 18.0701 16.3184 17.6396H15.3184L15.6346 18.5883ZM16.3184 17.6396V12.4142H15.3184V17.6396H16.3184ZM20.1719 6.93934L15.7577 11.3536L16.4648 12.0607L20.879 7.64645L20.1719 6.93934ZM20.3184 5V6.58579H21.3184V5H20.3184ZM20.879 7.64645C21.1603 7.36514 21.3184 6.98361 21.3184 6.58579H20.3184C20.3184 6.71839 20.2657 6.84557 20.1719 6.93934L20.879 7.64645ZM16.3184 12.4142C16.3184 12.2816 16.371 12.1544 16.4648 12.0607L15.7577 11.3536C15.4764 11.6349 15.3184 12.0164 15.3184 12.4142H16.3184ZM9.17191 12.0607C9.26567 12.1544 9.31835 12.2816 9.31835 12.4142H10.3184C10.3184 12.0164 10.1603 11.6349 9.87901 11.3535L9.17191 12.0607ZM4.31836 6.58579C4.31836 6.98361 4.47639 7.36514 4.7577 7.64645L5.46481 6.93934C5.37104 6.84557 5.31836 6.71839 5.31836 6.58579H4.31836ZM19.8184 4.5C20.0945 4.5 20.3184 4.72386 20.3184 5H21.3184C21.3184 4.17157 20.6468 3.5 19.8184 3.5V4.5ZM5.81836 3.5C4.98993 3.5 4.31836 4.17157 4.31836 5H5.31836C5.31836 4.72386 5.54222 4.5 5.81836 4.5V3.5Z" fill="#101840" />
</svg>
  