<svg width="182" height="181" viewBox="0 0 182 181" fill="none" xmlns="http://www.w3.org/2000/svg">
  <mask id="mask0_0_1" style="mask-type:alpha" maskUnits="userSpaceOnUse" x="77" y="110" width="105" height="71">
    <rect x="77.0332" y="110.897" width="104.334" height="69.8401" fill="#0032DA" />
  </mask>
  <g mask="url(#mask0_0_1)">
    <path d="M180.782 172.598V116.567H185.159C186.376 116.567 187.54 116.083 188.4 115.225L188.4 115.225C189.258 114.365 189.742 113.201 189.742 111.984V90.2709C189.742 89.0545 189.258 87.8899 188.4 87.0307L188.4 87.03C187.54 86.1721 186.375 85.6896 185.159 85.6896H164.361C166.663 79.9041 166.019 73.3416 162.597 68.1032C159.037 62.6514 152.955 59.3759 146.444 59.4036L146.443 59.4036C140.819 59.4346 135.498 61.8568 131.788 66.0259C131.373 54.5924 122.664 46.3838 110.895 46.3838C99.2988 46.3838 89.988 56.4382 89.987 68.9215C89.9398 75.2665 92.4656 81.3387 96.9546 85.771H73.3234C70.7938 85.771 68.7422 87.8227 68.7422 90.3523V111.985C68.7422 113.2 69.2248 114.365 70.0844 115.225L70.438 114.871L70.0844 115.225C70.9425 116.083 72.1088 116.567 73.3235 116.567H77.7419V172.598C77.7419 173.814 78.2245 174.979 79.0841 175.838C79.9425 176.697 81.1089 177.179 82.3232 177.179H82.4034L82.4039 177.179H176.201C177.415 177.179 178.582 176.696 179.44 175.838C180.3 174.978 180.782 173.813 180.782 172.598ZM160.401 76.331C160.93 79.5563 160.324 82.8638 158.69 85.6906H131.803V78.2911C132.095 74.5883 133.751 71.1274 136.452 68.576L136.452 68.576C139.154 66.0226 142.709 64.5653 146.427 64.486C149.776 64.4791 153.018 65.6621 155.576 67.8244L155.576 67.8244C158.146 69.9954 159.856 73.0118 160.401 76.331L160.869 76.2541L160.401 76.331ZM98.0509 79.2118L98.0508 79.2117C96.0027 76.1853 94.9593 72.5913 95.0673 68.9396L95.0741 68.7086L95.0683 68.7034C95.177 59.1822 102.298 51.5474 110.894 51.5474C115.605 51.5474 119.557 53.1442 122.328 55.8516C125.098 58.5581 126.721 62.4048 126.721 66.9657V85.7721H106.391C102.997 84.5062 100.081 82.2137 98.0509 79.2118ZM82.8237 116.567L126.721 116.568V172.099H82.8237V116.567ZM175.701 172.097H131.803V116.567H175.701V172.097ZM184.662 111.485H131.802V90.7717H184.696L184.662 111.485ZM73.8219 90.7721H126.717V111.486H73.8219V90.7721Z" fill="#0032DA" stroke="#0032DA" />
  </g>
  <mask id="mask1_0_1" style="mask-type:alpha" maskUnits="userSpaceOnUse" x="0" y="0" width="111" height="129">
    <rect x="0.601562" y="96.7119" width="110.804" height="62.8486" transform="rotate(-60 0.601562 96.7119)" fill="#0032DA" />
  </mask>
  <g mask="url(#mask1_0_1)">
    <path d="M145.95 65.7573L104.619 41.8948L106.449 38.7246C106.978 37.8091 107.119 36.722 106.847 35.7027L106.847 35.7018C106.573 34.683 105.907 33.8124 104.991 33.2838L88.9496 24.0222C88.0341 23.4936 86.9471 23.352 85.9278 23.6241L85.9269 23.6244C84.9076 23.8985 84.0383 24.5655 83.5099 25.4806L74.6925 40.7528C71.383 36.6192 66.2704 34.3187 60.9533 34.6112C55.382 34.9177 50.3454 38.0277 47.5761 42.8718L47.5758 42.8723C45.2196 47.0059 44.7196 51.919 46.1554 56.4116C37.5348 51.9427 27.8028 54.9064 22.7946 63.5808C17.8254 72.1876 21.3012 83.398 30.5539 88.741C35.1869 91.4619 40.6993 92.2025 45.8583 90.8341L35.8676 108.139C34.7683 110.043 35.421 112.478 37.325 113.578L53.3066 122.805C54.2218 123.333 55.3084 123.476 56.3289 123.203L56.1998 122.72L56.3289 123.203C57.3477 122.93 58.2189 122.262 58.7468 121.348L60.5946 118.147L101.926 142.01C102.841 142.538 103.927 142.681 104.948 142.408C105.967 142.135 106.837 141.466 107.365 140.552L107.405 140.483L107.405 140.482L147.407 71.1964C147.935 70.2824 148.079 69.1948 147.806 68.1757C147.532 67.1551 146.865 66.2857 145.95 65.7573ZM51.4517 45.1243C52.8663 42.6628 55.1094 40.7837 57.7813 39.8221L57.7815 39.822C60.465 38.8555 63.405 38.8784 66.073 39.8857L66.2496 39.4179L66.0731 39.8857C68.6525 40.8594 70.8151 42.693 72.1992 45.0732L60.7886 64.8369L55.3881 61.7189C52.7933 59.934 50.9544 57.2505 50.2261 54.1853L50.226 54.1852C49.4964 51.1178 49.9335 47.8888 51.4517 45.1243ZM41.6273 87.0359L41.6272 87.0359C38.5331 87.257 35.4482 86.4987 32.8096 84.8694L32.6129 84.748L32.6059 84.7503C25.6688 80.62 23.0976 72.1596 26.7361 65.8576C28.7371 62.3917 31.5875 60.1672 34.7492 59.2803C37.9099 58.3937 41.4235 58.832 44.7774 60.7683L58.6077 68.7533L49.9798 83.6974C47.6105 85.65 44.6913 86.818 41.6273 87.0359ZM62.8354 114.265L81.4871 81.962L122.385 105.574L103.734 137.878L62.8354 114.265ZM143.276 69.3884L124.625 101.692L83.7271 78.0799L102.378 45.7759L143.276 69.3884ZM64.6693 67.0783L87.1575 28.1276L102.318 36.9148L79.845 75.84L64.6693 67.0783ZM39.9389 109.913L62.4275 70.9619L77.6032 79.7235L55.1145 118.675L39.9389 109.913Z" fill="#0032DA" stroke="#0032DA" />
  </g>
</svg>
  