<svg width="32" height="33" viewBox="0 0 32 33" fill="none" xmlns="http://www.w3.org/2000/svg">
  <path d="M28.7345 30.9932V18.006H29.3981C29.7896 18.006 30.164 17.8501 30.4401 17.5746L30.4408 17.5739C30.7163 17.2978 30.8722 16.9234 30.8722 16.5319V11.3514C30.8722 10.96 30.7163 10.5855 30.4408 10.3094L30.4401 10.3088C30.1637 10.0329 29.7891 9.8777 29.3981 9.8777H24.9644C25.3369 8.51964 25.1167 7.05294 24.334 5.85441C23.4139 4.4456 21.8422 3.59915 20.1595 3.60631L20.1589 3.60631C18.9812 3.61281 17.855 4.02597 16.9609 4.75687C16.5137 2.23994 14.407 0.5 11.6799 0.5C8.67694 0.5 6.31177 3.09595 6.31085 6.25644C6.30132 7.58046 6.73144 8.85779 7.51588 9.89714H2.71591C1.90211 9.89714 1.24219 10.5571 1.24219 11.3709V16.5319C1.24219 16.923 1.39744 17.2978 1.67392 17.5743L1.67392 17.5743C1.94993 17.8503 2.32497 18.006 2.71592 18.006H3.38936V30.9932C3.38936 31.3843 3.54461 31.7591 3.82109 32.0356L4.17465 31.682L3.8211 32.0356C4.09742 32.3119 4.47259 32.467 4.8631 32.467H4.94146L4.94158 32.4669H27.2608C27.6513 32.4669 28.0264 32.3118 28.3027 32.0355L27.9492 31.682L28.3028 32.0355C28.5793 31.759 28.7345 31.3843 28.7345 30.9932ZM18.0388 6.45209C18.6139 5.90865 19.3703 5.59808 20.1616 5.58029C20.869 5.57971 21.5538 5.82999 22.0943 6.28682L22.0944 6.28691C22.6382 6.74635 23.0002 7.38474 23.1154 8.08724L23.1154 8.08727C23.2158 8.69868 23.1232 9.32412 22.8543 9.87795H17.0488V8.50867C17.1142 7.72482 17.4664 6.99278 18.0387 6.45217L18.0388 6.45209ZM8.93082 8.49966L8.93073 8.49952C8.4869 7.84366 8.26077 7.0648 8.28416 6.2734L8.291 6.042L8.28984 6.04095C8.39296 4.02816 9.91755 2.49336 11.6796 2.49336C12.7158 2.49336 13.5593 2.84316 14.1415 3.41189C14.7229 3.97985 15.0749 4.79644 15.0749 5.7912V9.8974H10.6757C9.96691 9.61858 9.35818 9.13163 8.93082 8.49966ZM15.0751 18.0062V30.4935H5.36321V18.0059L15.0751 18.0062ZM26.7608 30.4931H17.0489V18.0059H26.7608V30.4931ZM17.0485 11.8516H28.9063L28.8993 16.0321H17.0485V11.8516ZM3.21553 11.8517H15.0741V16.0322H3.21553V11.8517Z" fill="#0032DA" stroke="#0032DA" />
</svg>
