<svg width="37" height="39" viewBox="0 0 37 39" fill="#181818" stroke="#181818" xmlns="http://www.w3.org/2000/svg">
  <path d="M8.31814 11.5552H2.49123C1.58257 11.5552 0.845703 12.2921 0.845703 13.2007V19.2725C0.845703 19.7092 1.01905 20.1276 1.32777 20.4363L1.32778 20.4363C1.63596 20.7445 2.05475 20.9184 2.49125 20.9184H3.37173V36.2854C3.37173 36.7221 3.54508 37.1405 3.8538 37.4492L4.20736 37.0957L3.85381 37.4492C4.16239 37.7578 4.58147 37.9309 5.01741 37.9309H31.3669C31.8029 37.9309 32.2219 37.7577 32.5303 37.4492L32.1768 37.0956L32.5304 37.4492C32.8391 37.1405 33.0124 36.722 33.0124 36.2853V20.9184H33.8814C34.3184 20.9184 34.7366 20.7444 35.0449 20.4366L35.0456 20.436C35.3533 20.1277 35.5273 19.7095 35.5273 19.2724V13.1779C35.5273 12.7408 35.3533 12.3227 35.0456 12.0144L35.0449 12.0137C34.7363 11.7056 34.318 11.5323 33.8814 11.5323H28.5484C29.0236 9.92791 28.7782 8.18074 27.8498 6.75919C26.7837 5.12685 24.9627 4.14611 23.013 4.1544L23.0124 4.1544C21.5951 4.16222 20.2421 4.67815 19.1879 5.58681C18.728 2.58681 16.2576 0.5 13.0368 0.5C9.5588 0.5 6.80962 3.50831 6.8087 7.18424C6.79712 8.783 7.33737 10.3232 8.31814 11.5552ZM26.2377 11.5326H19.2648V9.82987C19.3428 8.88467 19.7671 8.0018 20.4571 7.35004L20.4572 7.34996C21.1499 6.6954 22.061 6.32143 23.0141 6.30023C23.8676 6.29921 24.6936 6.60103 25.3457 7.15228L25.3458 7.15236C26.0017 7.70643 26.4382 8.4763 26.5772 9.32346L26.5772 9.32349C26.7012 10.0792 26.5809 10.8526 26.2377 11.5326ZM8.95367 7.20116L8.95389 7.19377V7.18638C8.95389 4.65274 10.8335 2.66863 13.0365 2.66863C14.2759 2.66863 15.2912 3.08738 15.9944 3.77435C16.6969 4.46055 17.1191 5.44466 17.1191 6.63658V11.5555H11.8389C10.9817 11.222 10.2456 10.6353 9.72965 9.87235L9.72956 9.87221C9.19702 9.08527 8.92561 8.15066 8.95367 7.20116ZM17.1193 20.9187V35.7856H5.51741V20.9183L17.1193 20.9187ZM30.8669 35.7852H19.265V20.9183H30.8669V35.7852ZM19.2646 13.6781H33.3911L33.3826 18.7727H19.2646V13.6781ZM2.99079 13.6782H17.1182V18.7728H2.99079V13.6782Z" />
</svg>
