<svg width="59" height="59" viewBox="0 0 59 59" fill="none" xmlns="http://www.w3.org/2000/svg">
    <path
        d="M49.7166 23.6731C51.5712 24.7411 53.075 26.3256 54.0446 28.2335C55.0141 30.1414 55.4075 32.2902 55.1768 34.4179C54.9461 36.5455 54.1013 38.5601 52.7454 40.2159C51.3894 41.8716 49.581 43.097 47.5406 43.7427C46.8195 47.0153 45.0023 49.9434 42.39 52.0423C39.7777 54.1413 36.5269 55.2851 33.1758 55.2845H27.6622C27.1747 55.2845 26.7073 55.0909 26.3626 54.7462C26.0179 54.4016 25.8243 53.9341 25.8243 53.4466C25.8243 52.9592 26.0179 52.4917 26.3626 52.1471C26.7073 51.8024 27.1747 51.6088 27.6622 51.6088H33.1758C35.457 51.6094 37.6823 50.9028 39.5453 49.5862C41.4083 48.2697 42.8172 46.4079 43.5781 44.2573H42.3651C41.8777 44.2573 41.4102 44.0637 41.0656 43.719C40.7209 43.3743 40.5273 42.9068 40.5273 42.4194V24.0407C40.5273 23.5533 40.7209 23.0858 41.0656 22.7411C41.4102 22.3965 41.8777 22.2028 42.3651 22.2028H44.203C44.7985 22.2028 45.3829 22.2506 45.9563 22.3425C45.5426 18.2657 43.6303 14.4876 40.59 11.7403C37.5497 8.99292 33.5978 7.47189 29.5 7.47189C25.4023 7.47189 21.4504 8.99292 18.4101 11.7403C15.3698 14.4876 13.4575 18.2657 13.0437 22.3425C13.6236 22.2496 14.2099 22.2029 14.7971 22.2028H16.6349C17.1224 22.2028 17.5899 22.3965 17.9345 22.7411C18.2792 23.0858 18.4728 23.5533 18.4728 24.0407V42.4194C18.4728 42.9068 18.2792 43.3743 17.9345 43.719C17.5899 44.0637 17.1224 44.2573 16.6349 44.2573H14.7971C12.3673 44.26 10.0047 43.4601 8.07634 41.982C6.14795 40.5039 4.76173 38.4302 4.13307 36.0832C3.50441 33.7362 3.66851 31.2473 4.59987 29.0031C5.53122 26.759 7.17769 24.8853 9.28346 23.6731C9.28346 18.3114 11.4134 13.1692 15.2048 9.37784C18.9961 5.5865 24.1383 3.45654 29.5 3.45654C34.8618 3.45654 40.004 5.5865 43.7953 9.37784C47.5867 13.1692 49.7166 18.3114 49.7166 23.6731ZM14.7971 25.8786C12.8473 25.8786 10.9775 26.6531 9.59879 28.0318C8.22012 29.4104 7.44559 31.2803 7.44559 33.2301C7.44559 35.1798 8.22012 37.0497 9.59879 38.4283C10.9775 39.807 12.8473 40.5815 14.7971 40.5815V25.8786ZM51.5545 33.2301C51.5545 31.2803 50.78 29.4104 49.4013 28.0318C48.0226 26.6531 46.1528 25.8786 44.203 25.8786V40.5815C46.1528 40.5815 48.0226 39.807 49.4013 38.4283C50.78 37.0497 51.5545 35.1798 51.5545 33.2301Z"
        fill="white" />
</svg>
    