<svg width="36" height="36" viewBox="0 0 36 36" fill="none" xmlns="http://www.w3.org/2000/svg">
  <rect x="0.183594" y="0.53125" width="35" height="35" rx="4" fill="#E9EEFF"/>
  <g clip-path="url(#clip0_4403_112284)">
  <path d="M25.0577 21.1357C25.7065 19.594 25.8559 17.8877 25.4847 16.2567C25.1136 14.6257 24.2406 13.1521 22.9886 12.043C21.7365 10.9338 20.1683 10.245 18.5045 10.0733C16.8407 9.90156 15.1648 10.2556 13.7127 11.0857L12.7207 9.3487C14.2383 8.48132 15.9568 8.02707 17.7049 8.03128C19.4529 8.03549 21.1692 8.49801 22.6827 9.3727C27.1727 11.9647 28.8927 17.5147 26.7997 22.1427L28.1417 22.9167L23.9767 25.1307L23.8117 20.4167L25.0577 21.1357V21.1357ZM10.3077 14.9297C9.6588 16.4714 9.50944 18.1777 9.88057 19.8087C10.2517 21.4397 11.1247 22.9133 12.3767 24.0224C13.6288 25.1316 15.197 25.8204 16.8608 25.9921C18.5247 26.1638 20.2005 25.8098 21.6527 24.9797L22.6447 26.7167C21.127 27.5841 19.4085 28.0383 17.6605 28.0341C15.9124 28.0299 14.1961 27.5674 12.6827 26.6927C8.19266 24.1007 6.47266 18.5507 8.56566 13.9227L7.22266 13.1497L11.3877 10.9357L11.5527 15.6497L10.3067 14.9307L10.3077 14.9297ZM14.1827 20.0327H19.6827C19.8153 20.0327 19.9424 19.98 20.0362 19.8863C20.13 19.7925 20.1827 19.6653 20.1827 19.5327C20.1827 19.4001 20.13 19.2729 20.0362 19.1791C19.9424 19.0854 19.8153 19.0327 19.6827 19.0327H15.6827C15.0196 19.0327 14.3837 18.7693 13.9149 18.3005C13.446 17.8316 13.1827 17.1957 13.1827 16.5327C13.1827 15.8697 13.446 15.2338 13.9149 14.7649C14.3837 14.2961 15.0196 14.0327 15.6827 14.0327H16.6827V13.0327H18.6827V14.0327H21.1827V16.0327H15.6827C15.55 16.0327 15.4229 16.0854 15.3291 16.1791C15.2353 16.2729 15.1827 16.4001 15.1827 16.5327C15.1827 16.6653 15.2353 16.7925 15.3291 16.8863C15.4229 16.98 15.55 17.0327 15.6827 17.0327H19.6827C20.3457 17.0327 20.9816 17.2961 21.4504 17.7649C21.9193 18.2338 22.1827 18.8697 22.1827 19.5327C22.1827 20.1957 21.9193 20.8316 21.4504 21.3005C20.9816 21.7693 20.3457 22.0327 19.6827 22.0327H18.6827V23.0327H16.6827V22.0327H14.1827V20.0327Z" fill="#0032DA"/>
  </g>
  <defs>
  <clipPath id="clip0_4403_112284">
  <rect width="24" height="24" fill="white" transform="translate(5.68359 6.03125)"/>
  </clipPath>
  </defs>
  </svg>
