<svg width="17" height="17" viewBox="0 0 17 17" fill="none" xmlns="http://www.w3.org/2000/svg">
  <path d="M8.23307 16.1901C3.8607 16.1901 0.316406 12.6459 0.316406 8.27348C0.316406 3.9011 3.8607 0.356812 8.23307 0.356812C12.6054 0.356812 16.1497 3.9011 16.1497 8.27348C16.1497 12.6459 12.6054 16.1901 8.23307 16.1901ZM8.23307 14.6068C9.91278 14.6068 11.5237 13.9396 12.7114 12.7518C13.8991 11.5641 14.5664 9.95318 14.5664 8.27348C14.5664 6.59377 13.8991 4.98287 12.7114 3.79514C11.5237 2.60741 9.91278 1.94015 8.23307 1.94015C6.55337 1.94015 4.94246 2.60741 3.75473 3.79514C2.567 4.98287 1.89974 6.59377 1.89974 8.27348C1.89974 9.95318 2.567 11.5641 3.75473 12.7518C4.94246 13.9396 6.55337 14.6068 8.23307 14.6068V14.6068ZM7.44141 4.31515H9.02474V5.89848H7.44141V4.31515ZM7.44141 7.48181H9.02474V12.2318H7.44141V7.48181Z" fill="#0032DA" />
</svg>
  