<svg width="16" height="17" viewBox="0 0 16 17" fill="none" xmlns="http://www.w3.org/2000/svg">
  <path
    d="M11.333 1.83301H4.66634C2.82539 1.83301 1.33301 3.32539 1.33301 5.16634V11.833C1.33301 13.674 2.82539 15.1663 4.66634 15.1663H11.333C13.174 15.1663 14.6663 13.674 14.6663 11.833V5.16634C14.6663 3.32539 13.174 1.83301 11.333 1.83301Z"
    stroke="#8F95B2" stroke-width="1.40328" stroke-linecap="round" stroke-linejoin="round" />
  <path
    d="M10.6664 8.0802C10.7487 8.63503 10.6539 9.20168 10.3956 9.69954C10.1373 10.1974 9.72853 10.6011 9.22751 10.8533C8.7265 11.1055 8.15873 11.1933 7.60495 11.1042C7.05118 11.015 6.5396 10.7536 6.14299 10.357C5.74638 9.96036 5.48492 9.44878 5.39581 8.89501C5.3067 8.34124 5.39447 7.77346 5.64665 7.27245C5.89882 6.77144 6.30255 6.36269 6.80042 6.10436C7.29829 5.84603 7.86493 5.75126 8.41976 5.83353C8.98571 5.91746 9.50966 6.18118 9.91423 6.58574C10.3188 6.9903 10.5825 7.51425 10.6664 8.0802Z"
    stroke="#8F95B2" stroke-width="1.40328" stroke-linecap="round" stroke-linejoin="round" />
  <path d="M11.6666 4.83301H11.6738" stroke="#8F95B2" stroke-width="1.40328" stroke-linecap="round"
    stroke-linejoin="round" />
</svg>