<svg width="32" height="33" viewBox="0 0 32 33" fill="none" xmlns="http://www.w3.org/2000/svg">
  <path opacity="0.6"
    d="M10.0096 20.6415L10.4273 20.925L10.7068 20.5046L23.7103 0.94278C23.7107 0.942245 23.711 0.941711 23.7114 0.941178C23.7485 0.886868 23.7973 0.841354 23.8543 0.807978C23.9117 0.774333 23.9759 0.753901 24.0422 0.748215C24.1086 0.74253 24.1754 0.751732 24.2376 0.775125C24.2981 0.797836 24.353 0.833441 24.3985 0.879621C25.2036 1.76206 25.6874 2.89035 25.7717 4.08201C25.8562 5.27618 25.5346 6.46382 24.8589 7.45205L24.8589 7.45204L24.8561 7.45617L12.7399 25.5621L12.6597 25.682L12.6557 25.8263C12.6226 27.0171 12.239 28.1717 11.553 29.1456C10.867 30.1195 9.90904 30.8695 8.79893 31.3016C7.68883 31.7338 6.47592 31.829 5.312 31.5752C4.14808 31.3215 3.0849 30.7301 2.25539 29.8751C1.42588 29.0201 0.866943 27.9395 0.648546 26.7684C0.430149 25.5973 0.561982 24.3879 1.02754 23.2914C1.4931 22.1948 2.27168 21.26 3.2659 20.6038C4.26012 19.9475 5.42583 19.5991 6.61709 19.6021L6.61901 19.6021C7.82789 19.6005 9.0093 19.9626 10.0096 20.6415ZM5.34141 28.7348C5.74907 28.8966 6.18481 28.9757 6.62329 28.9677C7.4993 28.9664 8.3391 28.6178 8.95861 27.9983C9.57928 27.3776 9.92807 26.5358 9.92807 25.658C9.92807 24.7801 9.57928 23.9383 8.95861 23.3176C8.3391 22.6981 7.4993 22.3496 6.62329 22.3483C6.18481 22.3402 5.74907 22.4193 5.34141 22.5811C4.9322 22.7435 4.5595 22.9859 4.24512 23.2941C3.93073 23.6023 3.68099 23.9701 3.5105 24.376C3.34002 24.7818 3.25213 25.2177 3.25213 25.658C3.25213 26.0983 3.34002 26.5341 3.5105 26.9399C3.68099 27.3458 3.93073 27.7136 4.24512 28.0218C4.5595 28.33 4.9322 28.5724 5.34141 28.7348Z"
    fill="url(#paint0_linear_193_2878)" stroke="#2F58E1" />
  <path opacity="0.7"
    d="M25.3526 31.7136L25.3492 31.7136C23.7744 31.7123 22.2622 31.0964 21.1346 29.997C20.0069 28.8976 19.3529 27.4016 19.3116 25.8272L19.3078 25.6825L19.2273 25.5622L17.712 23.298L20.4206 19.2498L21.2606 20.5055L21.5404 20.9239L21.9569 20.6413C22.9575 19.9624 24.139 19.6003 25.3481 19.6019L25.3526 19.6019C26.1517 19.5959 26.944 19.7481 27.684 20.0497C28.4241 20.3514 29.0971 20.7965 29.6643 21.3594C30.2315 21.9224 30.6817 22.592 30.9888 23.3297C31.2961 24.0674 31.4543 24.8587 31.4543 25.6578C31.4543 26.4569 31.2961 27.2481 30.9888 27.9858C30.6817 28.7236 30.2315 29.3932 29.6643 29.9561C29.0971 30.5191 28.4241 30.9642 27.684 31.2658C26.944 31.5675 26.1517 31.7197 25.3526 31.7136ZM25.3489 22.3481H25.3488C24.4709 22.3481 23.6291 22.6968 23.0083 23.3175C22.3875 23.9381 22.0386 24.78 22.0385 25.6579V25.658C22.0386 26.3125 22.2328 26.9523 22.5964 27.4965C22.9601 28.0407 23.4771 28.4648 24.0817 28.7152C24.6864 28.9657 25.3517 29.0312 25.9936 28.9035C26.6356 28.7759 27.2252 28.4607 27.6881 27.9979C28.1509 27.5352 28.4662 26.9455 28.5939 26.3036C28.7217 25.6617 28.6563 24.9963 28.4059 24.3916C28.1555 23.7868 27.7314 23.2699 27.1873 22.9062C26.6432 22.5425 26.0035 22.3482 25.3489 22.3481Z"
    fill="#003DE4" stroke="#0032DA" />
  <path opacity="0.8"
    d="M7.11191 7.45641L7.11194 7.45639L7.1091 7.45225C6.43324 6.46402 6.11136 5.27629 6.19585 4.08207C6.28017 2.89028 6.76428 1.76188 7.56959 0.879448C7.61512 0.833247 7.67009 0.797518 7.73075 0.774712C7.79311 0.751265 7.85986 0.742049 7.92623 0.747717C7.99266 0.753392 8.057 0.773836 8.11442 0.807483C8.17105 0.840671 8.21972 0.885981 8.257 0.940289L14.2578 10.0311L11.547 14.0831L7.11191 7.45641Z"
    fill="url(#paint1_linear_193_2878)" stroke="#0032DA" />
  <defs>
    <linearGradient id="paint0_linear_193_2878" x1="13.1654" y1="0.246582" x2="13.1654" y2="32.2142"
      gradientUnits="userSpaceOnUse">
      <stop stop-color="#2F58E1" />
      <stop offset="1" stop-color="#003DE4" stop-opacity="0.749" />
    </linearGradient>
    <linearGradient id="paint1_linear_193_2878" x1="10.2704" y1="0.246094" x2="10.2704" y2="14.9822"
      gradientUnits="userSpaceOnUse">
      <stop stop-color="#003DE4" />
      <stop offset="1" stop-color="#003DE4" stop-opacity="0.988" />
    </linearGradient>
  </defs>
</svg>