<svg width="232" height="40" viewBox="0 0 232 40" fill="none" xmlns="http://www.w3.org/2000/svg">
  <mask id="mask0_78_42943" style="mask-type:luminance" maskUnits="userSpaceOnUse" x="0" y="9"
    width="191" height="31">
    <path d="M190.088 9H0V39.6593H190.088V9Z" fill="white" />
  </mask>
  <g mask="url(#mask0_78_42943)">
    <path opacity="0.7"
      d="M38.2176 37.868C39.7938 37.8704 41.3069 37.2491 42.4267 36.1398C43.5466 35.0305 44.182 33.5232 44.1945 31.947C44.1816 30.3711 43.5459 28.8643 42.4262 27.7553C41.3064 26.6463 39.7934 26.0253 38.2176 26.0276C37.0354 26.0262 35.8802 26.3803 34.9021 27.0441L33.7689 25.3491L30.7793 29.8167L32.3152 32.1123C32.3556 33.6515 32.995 35.114 34.0974 36.1889C35.1997 37.2639 36.6778 37.8663 38.2176 37.868ZM38.2176 29.4106C38.7195 29.4104 39.2101 29.5591 39.6276 29.8379C40.045 30.1165 40.3704 30.5129 40.5625 30.9765C40.7547 31.4402 40.805 31.9505 40.7071 32.4428C40.6093 32.9351 40.3676 33.3873 40.0127 33.7422C39.6577 34.0972 39.2055 34.3387 38.7132 34.4367C38.2209 34.5346 37.7107 34.4842 37.247 34.292C36.7833 34.0999 36.387 33.7745 36.1083 33.3571C35.8295 32.9397 35.6809 32.449 35.681 31.947C35.6814 31.2744 35.9488 30.6295 36.4243 30.1538C36.8999 29.6782 37.5449 29.4109 38.2176 29.4106Z"
      fill="#003DE4" />
    <path opacity="0.8"
      d="M21.834 9.2617C21.0352 10.1344 20.5551 11.2516 20.4716 12.4317C20.3881 13.6117 20.7061 14.7854 21.374 15.7619L25.7538 22.3069L28.7437 17.8384L23.1575 9.3753C23.0861 9.26994 22.9921 9.18185 22.8822 9.11746C22.7725 9.05308 22.6496 9.01402 22.5228 9.00313C22.396 8.99225 22.2683 9.00981 22.1492 9.05455C22.03 9.09928 21.9223 9.17005 21.834 9.2617Z"
      fill="url(#paint0_linear_78_42943)" />
    <path opacity="0.8"
      d="M36.297 9.26171C35.4985 10.1345 35.0186 11.2517 34.935 12.4317C34.8515 13.6117 35.1694 14.7853 35.8371 15.7619L53.0675 37.703H59.2748L37.6209 9.37531C37.5495 9.26994 37.4554 9.18185 37.3456 9.11746C37.2357 9.05308 37.1129 9.01402 36.9861 9.00313C36.8591 8.99225 36.7315 9.00981 36.6123 9.05455C36.4931 9.09928 36.3853 9.17006 36.297 9.26171Z"
      fill="#003DE4" />
    <path opacity="0.8"
      d="M23.2253 9.26172C24.0237 10.1346 24.5037 11.2518 24.587 12.4319C24.6702 13.612 24.352 14.7855 23.684 15.7619L6.17153 37.7034H0L21.901 9.37532C21.9725 9.26994 22.0667 9.18185 22.1765 9.11746C22.2864 9.05307 22.4092 9.01402 22.536 9.00313C22.663 8.99225 22.7906 9.00981 22.9099 9.05455C23.0292 9.09928 23.1369 9.17006 23.2253 9.26172Z"
      fill="#003DE4" />
    <path opacity="0.8"
      d="M37.6886 9.26183C37.6003 9.17017 37.4926 9.09937 37.3735 9.05461C37.2543 9.00985 37.1266 8.99226 36.9998 9.00312C36.873 9.01397 36.7502 9.053 36.6404 9.11736C36.5305 9.18171 36.4365 9.26977 36.365 9.37512L24.6201 27.0438C23.6414 26.3797 22.4855 26.0254 21.3028 26.0274C20.1383 26.0247 18.9989 26.3657 18.0271 27.0073C17.0554 27.649 16.2944 28.563 15.8396 29.635C15.3847 30.7069 15.256 31.8892 15.4696 33.034C15.6833 34.1787 16.2298 35.235 17.0407 36.0707C17.8517 36.9063 18.8911 37.4844 20.0289 37.7323C21.1666 37.9803 22.3523 37.8872 23.4375 37.4647C24.5226 37.0423 25.459 36.3091 26.1297 35.3571C26.8003 34.405 27.1752 33.2764 27.2076 32.1123L38.1486 15.762C38.8164 14.7855 39.1343 13.6119 39.0508 12.4318C38.9673 11.2517 38.4872 10.1346 37.6886 9.26183ZM21.3028 34.4852C20.963 34.4958 20.6246 34.4381 20.3075 34.3154C19.9904 34.1927 19.7013 34.0076 19.4572 33.771C19.2131 33.5344 19.019 33.2511 18.8865 32.9381C18.7539 32.6251 18.6856 32.2886 18.6856 31.9487C18.6856 31.6087 18.7539 31.2723 18.8865 30.9592C19.019 30.6462 19.2131 30.3629 19.4572 30.1263C19.7013 29.8897 19.9904 29.7047 20.3075 29.5819C20.6246 29.4593 20.963 29.4015 21.3028 29.4122C21.9658 29.4269 22.5967 29.7006 23.0603 30.1747C23.524 30.6488 23.7837 31.2856 23.7837 31.9487C23.7837 32.6118 23.524 33.2486 23.0603 33.7227C22.5967 34.1968 21.9658 34.4705 21.3028 34.4852Z"
      fill="url(#paint1_linear_78_42943)" />
    <path
      d="M68.8647 22.2858H71.5312V13.6567L75.112 22.2858H77.1309L80.6926 13.6567V22.2858H83.3592V9.01904H80.3497L76.1214 18.8835L71.8931 9.01904H68.8647V22.2858Z"
      fill="black" />
    <path
      d="M91.4998 17.6671V22.2858H94.1664V17.6671L98.6613 9.01904H95.6901L92.8522 15.0822L89.9952 9.01904H86.9858L91.4998 17.6671Z"
      fill="black" />
    <path d="M101.59 11.1668H105.133V22.2858H107.799V11.1668H111.341V9.01904H101.59V11.1668Z"
      fill="black" />
    <path
      d="M124.411 22.2857H127.229L122.449 9H119.344L114.564 22.2857H117.363L118.24 19.7579H123.535L124.411 22.2857ZM122.81 17.6291H118.964L120.887 12.0791L122.81 17.6291Z"
      fill="black" />
    <path
      d="M139.073 22.2858H142.14L137.891 15.6904L142.063 9.01904H139.053L136.464 13.4666L133.588 9.01904H130.521L134.768 15.5954L130.578 22.2858H133.588L136.197 17.8192L139.073 22.2858Z"
      fill="black" />
    <path
      d="M155.292 22.2857H158.11L153.33 9H150.226L145.445 22.2857H148.245L149.121 19.7579H154.416L155.292 22.2857ZM153.692 17.6291H149.844L151.768 12.0791L153.692 17.6291Z"
      fill="black" />
    <path
      d="M164.659 15.0442V11.1858H166.773C168.278 11.1858 168.945 11.9081 168.945 13.1245C168.945 14.3029 168.278 15.0442 166.773 15.0442H164.659ZM171.687 13.1245C171.687 10.8247 170.088 9.01904 166.888 9.01904H161.993V22.2858H164.659V17.1919H166.888C170.316 17.1919 171.687 15.1392 171.687 13.1245Z"
      fill="black" />
    <path
      d="M178.342 15.0442V11.1858H180.457C181.961 11.1858 182.627 11.9081 182.627 13.1245C182.627 14.3029 181.961 15.0442 180.457 15.0442H178.342ZM185.37 13.1245C185.37 10.8247 183.77 9.01904 180.57 9.01904H175.676V22.2858H178.342V17.1919H180.57C183.999 17.1919 185.37 15.1392 185.37 13.1245Z"
      fill="black" />
    <path
      d="M71.6715 34.6149C71.6715 35.4448 71.2565 36.0457 70.3838 36.0457C69.511 36.0457 69.1104 35.4448 69.0961 34.6149H67.4507C67.4507 36.4177 68.6668 37.4908 70.3838 37.4908C72.1007 37.4908 73.3168 36.4177 73.3168 34.6149V27.4468H71.6715V34.6149Z"
      fill="black" />
    <path
      d="M87.402 29.5068H85.7709V33.8993C85.7709 35.3444 84.984 36.0884 83.7821 36.0884C82.5946 36.0884 81.8077 35.3444 81.8077 33.8993V29.5068H80.1909V34.1425C80.1909 36.3459 81.5931 37.5048 83.4388 37.5048C84.3688 37.5048 85.2558 37.1185 85.7709 36.4461V37.3904H87.402V29.5068Z"
      fill="black" />
    <path
      d="M99.7267 35.1873C99.6408 32.3401 95.1911 33.2272 95.1911 31.639C95.1911 31.1096 95.649 30.752 96.5218 30.752C97.4088 30.752 97.9382 31.2241 97.9955 31.9109H99.6265C99.5407 30.337 98.3675 29.3784 96.579 29.3784C94.719 29.3784 93.5458 30.3943 93.5458 31.6533C93.5458 34.5435 98.1242 33.6564 98.1242 35.2016C98.1242 35.7453 97.6235 36.146 96.6791 36.146C95.7778 36.146 95.1625 35.6166 95.1053 34.9727H93.417C93.4885 36.4035 94.8191 37.5195 96.7078 37.5195C98.5678 37.5195 99.7267 36.518 99.7267 35.1873Z"
      fill="black" />
    <path
      d="M106.039 35.2015C106.039 36.804 106.912 37.3906 108.314 37.3906H109.602V36.0313H108.6C107.914 36.0313 107.685 35.7881 107.685 35.2015V30.8376H109.602V29.507H107.685V27.5469H106.039V29.507H105.109V30.8376H106.039V35.2015Z"
      fill="black" />
    <path
      d="M123.406 37.3906H125.037V33.0411H128.328V31.7105H125.037V28.7774H129.258V27.4468H123.406V37.3906Z"
      fill="black" />
    <path
      d="M135.062 37.3905H136.693V29.5069H135.062V37.3905ZM135.892 28.4625C136.464 28.4625 136.922 28.0046 136.922 27.418C136.922 26.8314 136.464 26.3735 135.892 26.3735C135.305 26.3735 134.847 26.8314 134.847 27.418C134.847 28.0046 135.305 28.4625 135.892 28.4625Z"
      fill="black" />
    <path d="M143.127 37.3904H144.758V26.8027H143.127V37.3904Z" fill="black" />
    <path
      d="M154.511 30.752C155.727 30.752 156.686 31.5246 156.714 32.7407H152.351C152.522 31.496 153.409 30.752 154.511 30.752ZM158.202 35.0443H156.443C156.142 35.6595 155.584 36.146 154.583 36.146C153.381 36.146 152.451 35.359 152.336 34.057H158.36C158.403 33.7852 158.417 33.5276 158.417 33.2558C158.417 30.938 156.829 29.3784 154.583 29.3784C152.25 29.3784 150.648 30.9666 150.648 33.4418C150.648 35.917 152.322 37.5195 154.583 37.5195C156.514 37.5195 157.759 36.4178 158.202 35.0443Z"
      fill="black" />
    <path
      d="M180.646 35.2015C180.646 36.804 181.519 37.3906 182.921 37.3906H184.208V36.0313H183.207C182.52 36.0313 182.291 35.7881 182.291 35.2015V30.8376H184.208V29.507H182.291V27.5469H180.646V29.507H179.716V30.8376H180.646V35.2015Z"
      fill="black" />
    <path d="M173.736 38.0803H175.131V27.3955H173.736V38.0803Z" fill="black" />
  </g>
  <g opacity="0.6" filter="url(#filter0_d_78_42943)">
    <path
      d="M201.032 8.976C203.288 8.976 204.184 10.64 204.184 12.336C204.184 14.048 203.288 15.696 200.984 15.696H197.752V20H196.696V8.976H201.032ZM200.936 14.704C202.52 14.704 203.128 13.536 203.128 12.336C203.128 11.152 202.536 9.968 201.016 9.968H197.752V14.704H200.936ZM213.951 12.336C213.951 14.016 213.087 15.632 210.815 15.68L213.871 20H212.591L209.567 15.68H207.727V20H206.671V8.976H210.767C213.071 8.976 213.951 10.64 213.951 12.336ZM207.727 9.968V14.704H210.511C212.239 14.704 212.895 13.648 212.895 12.336C212.895 11.024 212.191 9.968 210.783 9.968H207.727ZM221.523 20.16C218.387 20.16 215.955 17.632 215.955 14.512C215.955 11.376 218.387 8.848 221.523 8.848C224.659 8.848 227.091 11.376 227.091 14.512C227.091 17.632 224.659 20.16 221.523 20.16ZM221.523 19.168C224.067 19.168 226.035 17.072 226.035 14.512C226.035 11.952 224.067 9.84 221.523 9.84C218.979 9.84 217.011 11.952 217.011 14.512C217.011 17.072 218.979 19.168 221.523 19.168Z"
      fill="#009500" />
  </g>
  <defs>
    <filter id="filter0_d_78_42943" x="192.696" y="8.84814" width="38.395" height="19.312"
      filterUnits="userSpaceOnUse" color-interpolation-filters="sRGB">
      <feFlood flood-opacity="0" result="BackgroundImageFix" />
      <feColorMatrix in="SourceAlpha" type="matrix"
        values="0 0 0 0 0 0 0 0 0 0 0 0 0 0 0 0 0 0 127 0" result="hardAlpha" />
      <feOffset dy="4" />
      <feGaussianBlur stdDeviation="2" />
      <feComposite in2="hardAlpha" operator="out" />
      <feColorMatrix type="matrix" values="0 0 0 0 0 0 0 0 0 0 0 0 0 0 0 0 0 0 0.25 0" />
      <feBlend mode="normal" in2="BackgroundImageFix" result="effect1_dropShadow_78_42943" />
      <feBlend mode="normal" in="SourceGraphic" in2="effect1_dropShadow_78_42943" result="shape" />
    </filter>
    <linearGradient id="paint0_linear_78_42943" x1="24.1827" y1="8.83539" x2="24.1827" y2="22.3069"
      gradientUnits="userSpaceOnUse">
      <stop stop-color="#003DE4" />
      <stop offset="1" stop-color="#003DE4" stop-opacity="0.988" />
    </linearGradient>
    <linearGradient id="paint1_linear_78_42943" x1="27.3964" y1="8.98953" x2="27.3964" y2="37.8681"
      gradientUnits="userSpaceOnUse">
      <stop stop-color="#003DE4" />
      <stop offset="1" stop-color="#003DE4" stop-opacity="0.749" />
    </linearGradient>
  </defs>
</svg>
  