<svg width="207" height="30" viewBox="0 0 207 30" fill="none" xmlns="http://www.w3.org/2000/svg">
  <mask id="mask0_211_1725" style="mask-type:luminance" maskUnits="userSpaceOnUse" x="0" y="0"
    width="207" height="30">
    <path d="M206.632 0H0V30H206.632V0Z" fill="white" />
  </mask>
  <g mask="url(#mask0_211_1725)">
    <path opacity="0.7"
      d="M41.5438 28.2473C43.2572 28.2496 44.902 27.6417 46.1192 26.5562C47.3366 25.4708 48.0274 23.9959 48.0409 22.4536C48.0269 20.9116 47.3359 19.4372 46.1187 18.352C44.9014 17.2669 43.2568 16.6592 41.5438 16.6615C40.2588 16.6601 39.003 17.0066 37.9397 17.6561L36.7079 15.9976L33.4581 20.3691L35.1277 22.6153C35.1716 24.1214 35.8667 25.5525 37.065 26.6043C38.2632 27.6561 39.8701 28.2456 41.5438 28.2473ZM41.5438 19.9717C42.0894 19.9715 42.6227 20.117 43.0765 20.3898C43.5302 20.6625 43.884 21.0503 44.0928 21.504C44.3018 21.9577 44.3564 22.457 44.25 22.9387C44.1437 23.4204 43.881 23.8629 43.4951 24.2102C43.1093 24.5575 42.6177 24.7939 42.0826 24.8897C41.5475 24.9855 40.9928 24.9362 40.4887 24.7482C39.9847 24.5602 39.5539 24.2418 39.2509 23.8334C38.9479 23.4249 38.7864 22.9448 38.7865 22.4536C38.7869 21.7955 39.0775 21.1644 39.5944 20.699C40.1115 20.2336 40.8126 19.972 41.5438 19.9717Z"
      fill="#003DE4" />
    <path opacity="0.8"
      d="M23.7343 0.256319C22.866 1.11026 22.3441 2.2034 22.2534 3.35811C22.1626 4.51281 22.5083 5.66122 23.2343 6.61671L27.9953 13.021L31.2454 8.64853L25.1731 0.367472C25.0954 0.264375 24.9932 0.178182 24.8738 0.115181C24.7545 0.0521799 24.621 0.0139598 24.4831 0.00330918C24.3452 -0.00734154 24.2065 0.00984567 24.0769 0.0536169C23.9474 0.0973882 23.8303 0.16664 23.7343 0.256319Z"
      fill="url(#paint0_linear_211_1725)" />
    <path opacity="0.8"
      d="M39.456 0.256328C38.588 1.11037 38.0663 2.20349 37.9754 3.35814C37.8846 4.51279 38.2302 5.66115 38.956 6.61672L57.6861 28.086H64.4337L40.8951 0.367481C40.8175 0.264378 40.7152 0.178182 40.5959 0.115181C40.4764 0.0521786 40.3429 0.0139591 40.205 0.00330886C40.0671 -0.00734131 39.9283 0.00984643 39.7988 0.0536187C39.6691 0.0973909 39.552 0.166644 39.456 0.256328Z"
      fill="#003DE4" />
    <path opacity="0.8"
      d="M25.2467 0.256092C26.1147 1.11018 26.6363 2.20339 26.7269 3.3581C26.8174 4.5128 26.4715 5.66113 25.7454 6.61649L6.70867 28.0861H0L23.8072 0.367245C23.8849 0.264136 23.9872 0.177938 24.1067 0.114936C24.2261 0.0519331 24.3596 0.013714 24.4975 0.0030644C24.6355 -0.00758521 24.7742 0.00960305 24.9039 0.0533761C25.0335 0.0971492 25.1506 0.166404 25.2467 0.256092Z"
      fill="#003DE4" />
    <path opacity="0.8"
      d="M40.9686 0.256201C40.8726 0.166506 40.7555 0.0972337 40.626 0.0534379C40.4965 0.00964201 40.3577 -0.0075731 40.2199 0.00304836C40.082 0.0136698 39.9485 0.0518599 39.8291 0.114833C39.7097 0.177806 39.6075 0.263973 39.5297 0.367049L26.7627 17.6558C25.6988 17.0059 24.4423 16.6593 23.1566 16.6612C21.8908 16.6586 20.6522 16.9922 19.5958 17.62C18.5396 18.2479 17.7124 19.1423 17.2179 20.1912C16.7234 21.2401 16.5836 22.397 16.8158 23.5171C17.048 24.6372 17.6421 25.6708 18.5236 26.4885C19.4052 27.3062 20.535 27.8718 21.7718 28.1144C23.0086 28.3571 24.2975 28.266 25.4771 27.8526C26.6567 27.4392 27.6746 26.7218 28.4036 25.7903C29.1326 24.8587 29.5402 23.7543 29.5754 22.6153L41.4686 6.61659C42.1945 5.66106 42.5401 4.51268 42.4494 3.358C42.3586 2.20332 41.8367 1.1102 40.9686 0.256201ZM23.1566 24.9371C22.7873 24.9475 22.4194 24.891 22.0748 24.771C21.73 24.6509 21.4158 24.4698 21.1504 24.2383C20.8851 24.0068 20.6741 23.7296 20.53 23.4233C20.3859 23.117 20.3116 22.7878 20.3116 22.4552C20.3116 22.1225 20.3859 21.7933 20.53 21.487C20.6741 21.1807 20.8851 20.9035 21.1504 20.672C21.4158 20.4405 21.73 20.2594 22.0748 20.1393C22.4194 20.0193 22.7873 19.9628 23.1566 19.9732C23.8774 19.9876 24.5631 20.2554 25.0672 20.7193C25.5712 21.1832 25.8535 21.8063 25.8535 22.4552C25.8535 23.104 25.5712 23.7271 25.0672 24.191C24.5631 24.6549 23.8774 24.9227 23.1566 24.9371Z"
      fill="url(#paint1_linear_211_1725)" />
    <path
      d="M74.8586 13H77.7572V4.55647L81.6496 13H83.8443L87.7159 4.55647V13H90.6146V0.0185547H87.3432L82.7469 9.67092L78.1505 0.0185547H74.8586V13Z"
      fill="white" />
    <path
      d="M99.4637 8.48065V13H102.362V8.48065L107.249 0.0185547H104.019L100.934 5.95132L97.8281 0.0185547H94.5569L99.4637 8.48065Z"
      fill="white" />
    <path d="M110.432 2.12013H114.283V13H117.182V2.12013H121.032V0.0185547H110.432V2.12013Z"
      fill="white" />
    <path
      d="M135.239 13H138.302L133.106 0H129.731L124.535 13H127.578L128.531 10.5265H134.286L135.239 13ZM133.499 8.44349H129.317L131.408 3.01288L133.499 8.44349Z"
      fill="white" />
    <path
      d="M151.177 13H154.511L149.893 6.54646L154.428 0.0185547H151.156L148.341 4.37049L145.215 0.0185547H141.881L146.498 6.45347L141.943 13H145.215L148.051 8.62943L151.177 13Z"
      fill="white" />
    <path
      d="M168.808 13H171.871L166.676 0H163.301L158.104 13H161.148L162.1 10.5265H167.855L168.808 13ZM167.069 8.44349H162.886L164.977 3.01288L167.069 8.44349Z"
      fill="white" />
    <path
      d="M178.99 5.91412V2.13873H181.289C182.924 2.13873 183.649 2.84545 183.649 4.03573C183.649 5.1888 182.924 5.91412 181.289 5.91412H178.99ZM186.63 4.03573C186.63 1.78537 184.891 0.0185547 181.413 0.0185547H176.092V13H178.99V8.0157H181.413C185.139 8.0157 186.63 6.00711 186.63 4.03573Z"
      fill="white" />
    <path
      d="M193.864 5.91412V2.13873H196.163C197.798 2.13873 198.523 2.84545 198.523 4.03573C198.523 5.1888 197.798 5.91412 196.163 5.91412H193.864ZM201.504 4.03573C201.504 1.78537 199.765 0.0185547 196.286 0.0185547H190.966V13H193.864V8.0157H196.286C200.013 8.0157 201.504 6.00711 201.504 4.03573Z"
      fill="white" />
    <path
      d="M77.9093 25.064C77.9093 25.876 77.4583 26.4641 76.5095 26.4641C75.5608 26.4641 75.1253 25.876 75.1098 25.064H73.3212C73.3212 26.828 74.6432 27.878 76.5095 27.878C78.3759 27.878 79.6979 26.828 79.6979 25.064V18.05H77.9093V25.064Z"
      fill="white" />
    <path
      d="M95.009 20.0659H93.2359V24.3639C93.2359 25.7779 92.3805 26.5059 91.0741 26.5059C89.7832 26.5059 88.9278 25.7779 88.9278 24.3639V20.0659H87.1703V24.6019C87.1703 26.7579 88.6945 27.8919 90.7008 27.8919C91.7118 27.8919 92.676 27.5139 93.2359 26.8559V27.7799H95.009V20.0659Z"
      fill="white" />
    <path
      d="M108.406 25.6239C108.313 22.8379 103.476 23.7059 103.476 22.1519C103.476 21.6339 103.974 21.2839 104.923 21.2839C105.887 21.2839 106.462 21.7459 106.525 22.4179H108.298C108.204 20.8779 106.929 19.9399 104.985 19.9399C102.963 19.9399 101.688 20.9339 101.688 22.1659C101.688 24.9939 106.665 24.1259 106.665 25.6379C106.665 26.1699 106.12 26.5619 105.094 26.5619C104.114 26.5619 103.445 26.0439 103.383 25.4139H101.548C101.625 26.8139 103.072 27.9059 105.125 27.9059C107.147 27.9059 108.406 26.9259 108.406 25.6239Z"
      fill="white" />
    <path
      d="M115.269 25.6379C115.269 27.2059 116.217 27.7799 117.742 27.7799H119.141V26.4499H118.053C117.306 26.4499 117.057 26.2119 117.057 25.6379V21.3679H119.141V20.0659H117.057V18.1479H115.269V20.0659H114.258V21.3679H115.269V25.6379Z"
      fill="white" />
    <path
      d="M134.147 27.7801H135.92V23.524H139.497V22.222H135.92V19.352H140.508V18.05H134.147V27.7801Z"
      fill="white" />
    <path
      d="M146.817 27.78H148.59V20.066H146.817V27.78ZM147.719 19.044C148.341 19.044 148.839 18.596 148.839 18.022C148.839 17.448 148.341 17 147.719 17C147.081 17 146.583 17.448 146.583 18.022C146.583 18.596 147.081 19.044 147.719 19.044Z"
      fill="white" />
    <path d="M155.584 27.7799H157.357V17.4199H155.584V27.7799Z" fill="white" />
    <path
      d="M167.959 21.2839C169.281 21.2839 170.323 22.0399 170.354 23.2299H165.61C165.797 22.0119 166.761 21.2839 167.959 21.2839ZM171.971 25.4839H170.058C169.732 26.0859 169.125 26.5619 168.036 26.5619C166.73 26.5619 165.719 25.7919 165.595 24.5179H172.142C172.189 24.2519 172.205 23.9999 172.205 23.7339C172.205 21.4659 170.478 19.9399 168.036 19.9399C165.501 19.9399 163.759 21.4939 163.759 23.9159C163.759 26.3379 165.579 27.9059 168.036 27.9059C170.136 27.9059 171.489 26.8279 171.971 25.4839Z"
      fill="white" />
    <path
      d="M196.368 25.6379C196.368 27.2059 197.317 27.7799 198.841 27.7799H200.241V26.4499H199.152C198.406 26.4499 198.157 26.2119 198.157 25.6379V21.3679H200.241V20.0659H198.157V18.1479H196.368V20.0659H195.357V21.3679H196.368V25.6379Z"
      fill="white" />
    <path d="M188.857 28.455H190.374V18H188.857V28.455Z" fill="white" />
  </g>
  <defs>
    <linearGradient id="paint0_linear_211_1725" x1="26.2875" y1="-0.160821" x2="26.2875" y2="13.021"
      gradientUnits="userSpaceOnUse">
      <stop stop-color="#003DE4" />
      <stop offset="1" stop-color="#003DE4" stop-opacity="0.988" />
    </linearGradient>
    <linearGradient id="paint1_linear_211_1725" x1="29.7806" y1="-0.0102494" x2="29.7806"
      y2="28.2473" gradientUnits="userSpaceOnUse">
      <stop stop-color="#003DE4" />
      <stop offset="1" stop-color="#003DE4" stop-opacity="0.749" />
    </linearGradient>
  </defs>
</svg>