<svg width="83" height="71" viewBox="0 0 83 71" fill="none" xmlns="http://www.w3.org/2000/svg">
  <path d="M77.3435 1.08888C77.3481 1.13907 77.3397 1.18961 77.3189 1.23552C77.2981 1.28142 77.2657 1.3211 77.225 1.35066C69.7572 7.44496 63.851 15.2396 59.9983 24.085C59.9404 24.2105 59.8851 24.3387 59.8326 24.4669H59.0732C59.1271 24.3387 59.1796 24.2105 59.2348 24.085C59.9574 22.3956 60.7563 20.7408 61.6315 19.1207C63.5256 15.6224 65.7542 12.3166 68.2858 9.24994C70.8172 6.17959 73.6445 3.36693 76.7268 0.85275C76.7515 0.832666 76.7786 0.815879 76.8076 0.802819C76.8612 0.779004 76.9196 0.7677 76.9783 0.769772C77.0369 0.771845 77.0944 0.787238 77.1463 0.814782C77.1981 0.842326 77.243 0.881308 77.2777 0.928788C77.3123 0.976269 77.3357 1.031 77.3462 1.08888H77.3435Z" fill="white" />
  <path d="M77.6586 24.0918H5.01508C4.38956 24.0913 3.77467 24.254 3.23099 24.564C3.10067 24.6383 2.9752 24.7208 2.85533 24.811C2.40153 25.1481 2.03289 25.5872 1.77895 26.0929C1.52501 26.5985 1.39285 27.1568 1.39307 27.723V65.5556C1.39414 66.5179 1.77608 67.4406 2.45511 68.1211C3.13413 68.8016 4.05479 69.1843 5.01508 69.1854H77.6586C78.6189 69.1843 79.5396 68.8016 80.2186 68.1211C80.8976 67.4406 81.2796 66.5179 81.2807 65.5556V27.7149C81.2778 26.7537 80.8951 25.8328 80.2162 25.1537C79.5374 24.4747 78.6178 24.0929 77.6586 24.0918ZM80.8996 65.5556C80.8982 66.4166 80.5563 67.2419 79.9488 67.8507C79.3413 68.4595 78.5178 68.8021 77.6586 68.8035H5.01508C4.15596 68.8021 3.33244 68.4595 2.72495 67.8507C2.11746 67.2419 1.77553 66.4166 1.7741 65.5556V27.7149C1.77691 27.0285 1.99541 26.3603 2.39857 25.8054C2.80172 25.2505 3.36904 24.8369 4.02002 24.6234L4.09813 24.5991C4.39576 24.5104 4.70456 24.465 5.01508 24.4642H77.6586C78.5178 24.4657 79.3413 24.8083 79.9488 25.4171C80.5563 26.0259 80.8982 26.8512 80.8996 27.7122V65.5556Z" fill="#3F3D56" stroke="#080F30" stroke-width="2" />
  <path d="M41.2581 46.6159C40.9689 46.6159 40.6845 46.5426 40.4313 46.4027L2.48634 25.4697C2.44566 25.4434 2.41649 25.4026 2.40469 25.3555C2.39289 25.3084 2.39935 25.2586 2.42277 25.2162C2.44619 25.1737 2.4848 25.1417 2.53084 25.1266C2.57688 25.1116 2.62693 25.1146 2.67084 25.1351L40.6212 46.068C40.8147 46.1749 41.0317 46.2319 41.2527 46.2338C41.4736 46.2357 41.6916 46.1824 41.8869 46.0788L80.462 25.6857C80.5059 25.6675 80.5551 25.6664 80.5998 25.6826C80.6445 25.6989 80.6816 25.7312 80.7038 25.7734C80.726 25.8155 80.7317 25.8644 80.7199 25.9106C80.708 25.9567 80.6794 25.9968 80.6397 26.023L42.0592 46.4162C41.8124 46.5471 41.5373 46.6157 41.2581 46.6159Z" fill="#3F3D56" stroke="#080F30" stroke-width="2" />
  <path d="M13.5099 59.6251H8.17106C7.76645 59.6251 7.37843 59.464 7.09233 59.1773C6.80624 58.8906 6.64551 58.5017 6.64551 58.0962C6.64551 57.6907 6.80624 57.3019 7.09233 57.0152C7.37843 56.7285 7.76645 56.5674 8.17106 56.5674H13.5099C13.9145 56.5674 14.3025 56.7285 14.5886 57.0152C14.8747 57.3019 15.0354 57.6907 15.0354 58.0962C15.0354 58.5017 14.8747 58.8906 14.5886 59.1773C14.3025 59.464 13.9145 59.6251 13.5099 59.6251Z" fill="#080F30" />
  <path d="M19.8063 64.7833H8.17545C7.77085 64.7833 7.38282 64.6222 7.09673 64.3355C6.81063 64.0488 6.6499 63.6599 6.6499 63.2544C6.6499 62.849 6.81063 62.4601 7.09673 62.1734C7.38282 61.8867 7.77085 61.7256 8.17545 61.7256H19.8063C20.2109 61.7256 20.5989 61.8867 20.885 62.1734C21.1711 62.4601 21.3318 62.849 21.3318 63.2544C21.3318 63.6599 21.1711 64.0488 20.885 64.3355C20.5989 64.6222 20.2109 64.7833 19.8063 64.7833Z" fill="#080F30" />
  <path d="M41.2434 52.7447C44.6129 52.7447 47.3443 50.0073 47.3443 46.6306C47.3443 43.254 44.6129 40.5166 41.2434 40.5166C37.874 40.5166 35.1426 43.254 35.1426 46.6306C35.1426 50.0073 37.874 52.7447 41.2434 52.7447Z" fill="#345CE2" />
</svg>
