<svg width="30" height="30" viewBox="0 0 30 30" fill="none" xmlns="http://www.w3.org/2000/svg">
  <g clip-path="url(#clip0_130_2642)">
    <path
      d="M25.7823 12.9828C25.7823 21.3792 14.987 28.5761 14.987 28.5761C14.987 28.5761 4.19165 21.3792 4.19165 12.9828C4.19165 10.1197 5.32901 7.3739 7.35353 5.34938C9.37805 3.32486 12.1239 2.1875 14.987 2.1875C17.8501 2.1875 20.5959 3.32486 22.6204 5.34938C24.645 7.3739 25.7823 10.1197 25.7823 12.9828Z"
      stroke="#345CE2" stroke-width="2.39896" stroke-linecap="round" stroke-linejoin="round" />
    <path
      d="M14.987 16.5817C16.9744 16.5817 18.5854 14.9706 18.5854 12.9832C18.5854 10.9958 16.9744 9.38477 14.987 9.38477C12.9996 9.38477 11.3885 10.9958 11.3885 12.9832C11.3885 14.9706 12.9996 16.5817 14.987 16.5817Z"
      stroke="#345CE2" stroke-width="2.39896" stroke-linecap="round" stroke-linejoin="round" />
  </g>
  <defs>
    <clipPath id="clip0_130_2642">
      <rect width="28.7876" height="28.7876" fill="white" transform="translate(0.593262 0.989258)" />
    </clipPath>
  </defs>
</svg>