<svg width="16" height="18" viewBox="0 0 16 18" fill="none" xmlns="http://www.w3.org/2000/svg">
  <path d="M14.7023 2.54306C15.3189 3.49304 15.3189 4.81549 15.3189 7.4604C15.3189 10.1053 15.3189 11.4278 14.7023 12.3777C14.4353 12.789 14.0923 13.1421 13.6928 13.4169C12.8866 13.9714 11.8043 14.0415 9.83065 14.0504V14.0517L8.81938 16.1337C8.48228 16.8277 7.52019 16.8277 7.1831 16.1337L6.17183 14.0517V14.0504C4.19816 14.0415 3.11586 13.9714 2.30968 13.4169C1.91018 13.1421 1.56716 12.789 1.30022 12.3777C0.683594 11.4278 0.683594 10.1053 0.683594 7.4604C0.683594 4.81549 0.683594 3.49304 1.30022 2.54306C1.56716 2.1318 1.91018 1.77869 2.30968 1.5039C3.23252 0.869141 4.51719 0.869141 7.08653 0.869141H8.91594C11.4853 0.869141 12.77 0.869141 13.6928 1.5039C14.0923 1.77869 14.4353 2.1318 14.7023 2.54306Z" fill="#D5DFFF" stroke="#3F65E4" stroke-width="1.2" stroke-linecap="round" stroke-linejoin="round" />
  <path d="M5.25586 5.57812L10.7441 5.57812" stroke="#3F65E4" stroke-width="1.2" stroke-linecap="round" stroke-linejoin="round" />
  <path d="M5.25586 9.34375H7.99998" stroke="#3F65E4" stroke-width="1.2" stroke-linecap="round" stroke-linejoin="round" />
</svg>
