<svg width="39" height="39" viewBox="0 0 39 39" fill="none" xmlns="http://www.w3.org/2000/svg">
  <rect x="1.53809" y="1.98438" width="35" height="35" rx="4" fill="#E9EEFF" />
  <path d="M16.2911 28.6903H13.7611C13.476 28.6903 13.1945 28.6273 12.9365 28.5059C12.6786 28.3844 12.4507 28.2075 12.2691 27.9877C12.0875 27.768 11.9566 27.5108 11.886 27.2346C11.8153 26.9584 11.8065 26.67 11.8603 26.39L12.9162 20.8924C13.0562 20.1667 13.3479 19.4789 13.7722 18.8738C14.1965 18.2687 14.7437 17.76 15.3782 17.381C16.0126 17.0021 16.72 16.7614 17.4539 16.6747C18.1878 16.588 18.9317 16.6573 19.637 16.8779C19.8001 16.9297 19.9771 16.9146 20.129 16.8358C20.2809 16.7571 20.3953 16.6213 20.4471 16.4582C20.4989 16.2951 20.4837 16.1181 20.405 15.9662C20.3263 15.8143 20.1904 15.6999 20.0273 15.6481C20.2496 15.2275 20.3016 14.7375 20.1725 14.2796C20.0434 13.8217 19.7432 13.431 19.3339 13.1884L20.5662 10.9396C20.6199 10.8414 20.6472 10.7309 20.6453 10.6189C20.6434 10.5069 20.6124 10.3974 20.5553 10.3011C20.4983 10.2047 20.4171 10.1248 20.3199 10.0693C20.2227 10.0138 20.1126 9.98452 20.0007 9.98438H15.8075C15.6955 9.98452 15.5855 10.0138 15.4882 10.0693C15.391 10.1248 15.3098 10.2047 15.2528 10.3011C15.1957 10.3974 15.1648 10.5069 15.1628 10.6189C15.1609 10.7309 15.1882 10.8414 15.2419 10.9396L16.4742 13.1884C16.2637 13.3132 16.0801 13.4784 15.9338 13.6745C15.7876 13.8707 15.6816 14.0938 15.622 14.3311C15.5625 14.5684 15.5505 14.8152 15.5868 15.0571C15.6231 15.2991 15.7069 15.5315 15.8335 15.7408C14.7718 16.1285 13.8287 16.7845 13.0958 17.6449C12.3628 18.5052 11.8651 19.5407 11.6512 20.6505L10.5959 26.1512C10.5063 26.6178 10.521 27.0984 10.6387 27.5586C10.7565 28.0189 10.9745 28.4474 11.2771 28.8137C11.5798 29.1799 11.9596 29.4747 12.3894 29.6771C12.8192 29.8795 13.2885 29.9844 13.7636 29.9844H16.2936C16.4646 29.9844 16.6286 29.9164 16.7496 29.7955C16.8705 29.6745 16.9385 29.5105 16.9385 29.3395C16.9385 29.1684 16.8705 29.0044 16.7496 28.8834C16.6286 28.7625 16.4646 28.6945 16.2936 28.6945L16.2911 28.6903ZM18.9115 11.2724L18.0059 12.9253H17.8022L16.896 11.2724H18.9115ZM17.4198 15.345C17.27 15.345 17.1264 15.2855 17.0205 15.1797C16.9146 15.0738 16.8551 14.9302 16.8551 14.7804C16.8551 14.6307 16.9146 14.4871 17.0205 14.3812C17.1264 14.2753 17.27 14.2158 17.4198 14.2158H18.3823C18.4565 14.2155 18.5299 14.2298 18.5985 14.258C18.6672 14.2861 18.7295 14.3274 18.7822 14.3797C18.8348 14.4319 18.8766 14.494 18.9052 14.5624C18.9339 14.6308 18.9488 14.7041 18.949 14.7783C18.9493 14.8524 18.935 14.9259 18.9069 14.9945C18.8787 15.0631 18.8374 15.1255 18.7852 15.1782C18.7329 15.2308 18.6709 15.2726 18.6025 15.3012C18.5341 15.3299 18.4607 15.3447 18.3865 15.345H17.4198ZM23.7811 21.7652C23.841 21.8251 23.8886 21.8962 23.921 21.9745C23.9534 22.0527 23.9701 22.1366 23.9701 22.2213C23.9701 22.306 23.9534 22.3899 23.921 22.4682C23.8886 22.5464 23.841 22.6175 23.7811 22.6774L20.5995 25.859C20.4785 25.98 20.3145 26.048 20.1434 26.048C19.9724 26.048 19.8083 25.98 19.6873 25.859C19.5664 25.7381 19.4984 25.574 19.4984 25.4029C19.4984 25.2318 19.5664 25.0678 19.6873 24.9468L22.8689 21.7652C22.9899 21.6443 23.154 21.5765 23.325 21.5765C23.4961 21.5765 23.6601 21.6443 23.7811 21.7652ZM23.0598 24.5455C22.8903 24.5457 22.7247 24.596 22.5838 24.6903C22.443 24.7845 22.3332 24.9184 22.2684 25.075C22.2036 25.2317 22.1868 25.404 22.2199 25.5702C22.2531 25.7364 22.3347 25.8891 22.4546 26.0089C22.5745 26.1287 22.7272 26.2102 22.8935 26.2433C23.0597 26.2763 23.232 26.2593 23.3886 26.1944C23.5451 26.1295 23.679 26.0196 23.7731 25.8787C23.8673 25.7378 23.9175 25.5721 23.9175 25.4026C23.9172 25.1753 23.8267 24.9574 23.6659 24.7967C23.5051 24.636 23.2871 24.5457 23.0598 24.5455ZM20.4086 23.0781C20.5781 23.078 20.7437 23.0276 20.8846 22.9334C21.0255 22.8391 21.1352 22.7052 21.2 22.5486C21.2648 22.392 21.2817 22.2196 21.2485 22.0534C21.2154 21.8872 21.1337 21.7346 21.0138 21.6148C20.8939 21.495 20.7412 21.4134 20.575 21.3804C20.4088 21.3473 20.2365 21.3644 20.0799 21.4292C19.9233 21.4941 19.7895 21.604 19.6953 21.7449C19.6012 21.8858 19.5509 22.0515 19.5509 22.221C19.5512 22.4483 19.6417 22.6662 19.8025 22.8269C19.9633 22.9876 20.1813 23.0779 20.4086 23.0781ZM21.7342 17.6429C20.5142 17.6429 19.3216 18.0047 18.3071 18.6825C17.2927 19.3603 16.5021 20.3237 16.0352 21.4509C15.5683 22.578 15.4461 23.8183 15.6841 25.0149C15.9221 26.2115 16.5096 27.3107 17.3723 28.1734C18.235 29.0361 19.3342 29.6236 20.5308 29.8616C21.7274 30.0996 22.9677 29.9775 24.0949 29.5106C25.222 29.0437 26.1854 28.253 26.8633 27.2386C27.5411 26.2242 27.9028 25.0316 27.9028 23.8115C27.9009 22.1761 27.2504 20.6082 26.094 19.4518C24.9376 18.2953 23.3696 17.6448 21.7342 17.6429ZM21.7342 28.6903C20.7693 28.6903 19.826 28.4041 19.0237 27.868C18.2214 27.332 17.5961 26.57 17.2268 25.6785C16.8576 24.787 16.7609 23.8061 16.9492 22.8597C17.1374 21.9133 17.6021 21.044 18.2844 20.3617C18.9667 19.6794 19.836 19.2147 20.7824 19.0265C21.7288 18.8382 22.7098 18.9348 23.6013 19.3041C24.4927 19.6734 25.2547 20.2987 25.7908 21.101C26.3268 21.9033 26.613 22.8466 26.613 23.8115C26.6115 25.105 26.0971 26.3451 25.1824 27.2597C24.2678 28.1744 23.0277 28.6888 21.7342 28.6903Z" fill="#0032DA" />
</svg>
  