<svg width="429" height="234" viewBox="0 0 429 234" fill="none" xmlns="http://www.w3.org/2000/svg">
  <g clip-path="url(#clip0_2219_55816)">
    <rect opacity="0.7" x="124.182" y="9" width="180" height="180" rx="90" fill="#FEEAE6" />
    <path d="M108.509 52.2876H64.3496V103.725H108.509V52.2876Z" fill="#CAD5F8" />
    <path d="M227.699 82.2925H183.539V133.73H227.699V82.2925Z" fill="#CAD5F8" />
    <path d="M347.316 52.2876H303.156V103.725H347.316V52.2876Z" fill="#CAD5F8" />
    <path d="M190.299 213.357C172.683 213.37 155.188 210.434 138.541 204.67C116.225 196.956 97.9424 186.315 84.2025 173.044C58.212 147.94 36.9037 144.157 23.6077 145.403C9.21483 146.752 0.8371 154.121 0.7542 154.195L0.181641 153.557C0.266213 153.481 8.81666 145.945 23.472 144.555C32.0662 143.74 41.0535 145.159 50.1851 148.776C61.5726 153.285 73.2182 161.243 84.7983 172.428C98.4477 185.612 116.624 196.187 138.822 203.86C179.572 217.946 225.499 214.535 264.827 194.503C277.848 187.87 290.718 183.342 303.078 181.046C318.664 178.15 333.445 178.822 347.014 183.043C376.832 192.317 397.2 191.826 409.035 189.781C421.804 187.574 427.598 183.158 427.655 183.114L428.182 183.79C427.942 183.977 422.16 188.383 409.18 190.626C397.252 192.687 376.739 193.186 346.76 183.861C316.405 174.421 285.661 184.852 265.216 195.266C245.778 205.22 224.552 211.207 202.776 212.877C198.602 213.197 194.444 213.356 190.299 213.357Z" fill="#3F3D56" />
    <path d="M93.4951 180.601L92.8815 180.002C95.7036 176.803 97.8427 173.062 99.1677 169.007C101.254 162.73 102.273 152.818 95.28 141.238C88.1252 129.391 87.8033 119.768 88.7928 113.781C89.8699 107.268 92.6176 103.617 92.734 103.464L93.4154 103.985C93.3879 104.021 90.6642 107.652 89.6306 113.972C88.6765 119.806 89.0093 129.196 96.014 140.795C103.186 152.671 102.123 162.859 99.9693 169.314C97.6353 176.308 93.6632 180.429 93.4951 180.601Z" fill="#3F3D56" />
    <path d="M125.66 104.153H63.9219V42.4287H125.66V104.153ZM64.7793 103.296H124.802V43.286H64.7793V103.296Z" fill="#3F3D56" />
    <path d="M213.112 211.034L212.499 210.436C215.32 207.237 217.46 203.495 218.785 199.441C220.871 193.164 221.89 183.251 214.897 171.672C207.742 159.824 207.42 150.201 208.41 144.215C209.487 137.701 212.234 134.05 212.351 133.898L213.032 134.418C213.005 134.454 210.281 138.086 209.248 144.406C208.293 150.24 208.626 159.63 215.631 171.229C222.803 183.104 221.74 193.292 219.586 199.748C217.252 206.742 213.28 210.862 213.112 211.034Z" fill="#3F3D56" />
    <path d="M245.277 134.587H183.539V72.8623H245.277V134.587ZM184.397 133.73H244.42V73.7196H184.397V133.73Z" fill="#3F3D56" />
    <path d="M332.302 180.172L331.688 179.573C334.51 176.374 336.649 172.633 337.974 168.578C340.061 162.302 341.079 152.389 334.086 140.81C326.932 128.962 326.61 119.339 327.6 113.353C328.676 106.839 331.424 103.188 331.541 103.036L332.222 103.556C332.195 103.592 329.471 107.224 328.437 113.543C327.483 119.378 327.816 128.767 334.821 140.366C341.992 152.242 340.93 162.43 338.776 168.885C336.442 175.88 332.47 180 332.302 180.172Z" fill="#3F3D56" />
    <path d="M364.465 103.725H302.727V42H364.465V103.725ZM303.584 102.867H363.607V42.8573H303.584V102.867Z" fill="#3F3D56" />
    <path d="M114.512 60.4316H76.7832V61.2889H114.512V60.4316Z" fill="#3F3D56" />
    <path d="M114.512 69.8618H76.7832V70.7191H114.512V69.8618Z" fill="#3F3D56" />
    <path d="M114.512 79.292H76.7832V80.1493H114.512V79.292Z" fill="#3F3D56" />
    <path d="M233.272 89.5791H195.543V90.4364H233.272V89.5791Z" fill="#3F3D56" />
    <path d="M233.272 99.0093H195.543V99.8666H233.272V99.0093Z" fill="#3F3D56" />
    <path d="M233.272 108.439H195.543V109.297H233.272V108.439Z" fill="#3F3D56" />
    <path d="M352.461 60.4316H314.732V61.2889H352.461V60.4316Z" fill="#3F3D56" />
    <path d="M352.461 69.8618H314.732V70.7191H352.461V69.8618Z" fill="#3F3D56" />
    <path d="M352.461 79.292H314.732V80.1493H352.461V79.292Z" fill="#3F3D56" />
    <path d="M214.293 219.279C219.092 219.279 222.983 215.389 222.983 210.591C222.983 205.793 219.092 201.904 214.293 201.904C209.494 201.904 205.604 205.793 205.604 210.591C205.604 215.389 209.494 219.279 214.293 219.279Z" fill="#345CE2" />
  </g>
  <defs>
    <clipPath id="clip0_2219_55816">
      <rect width="428" height="234" fill="white" transform="translate(0.181641)" />
    </clipPath>
  </defs>
</svg>
