<svg width="20" height="13" viewBox="0 0 20 13" fill="none" xmlns="http://www.w3.org/2000/svg">
  <path d="M19.1796 7.03706C18.8987 6.67595 18.6178 6.3347 18.2967 5.99362L18.9991 4.26799L18.036 3.88671L17.8754 4.28798L17.4941 5.23106C16.5511 4.36831 15.5076 3.68612 14.404 3.18448L15.006 1.49902L14.0429 1.15792L13.4409 2.82336C12.538 2.52243 11.6149 2.32172 10.6718 2.26153V0.65625H9.64848V2.26153C8.64521 2.3017 7.64193 2.48225 6.67883 2.80333L6.07683 1.13789L5.11372 1.47899L5.71572 3.16445C4.63225 3.64606 3.60881 4.28809 2.68586 5.11081L2.12403 3.74643L1.16092 4.12771L1.86329 5.87337C1.50218 6.25465 1.16092 6.65592 0.819845 7.07737L0.579102 7.39845L0.819845 7.71953C3.20767 10.7294 6.53851 12.4951 10.0299 12.4951C13.5213 12.4951 16.8522 10.7293 19.1798 7.65933L19.4205 7.33825L19.1796 7.03706ZM10.0297 11.4515C6.97975 11.4515 4.05023 9.96659 1.94335 7.33804C4.05026 4.72949 6.97979 3.22462 10.0297 3.22462C13.0797 3.22462 16.0093 4.7095 18.1161 7.33804C15.9892 9.96673 13.0596 11.4515 10.0297 11.4515Z" fill="#080F30" />
  <path d="M13.1196 7.33821C13.1196 9.04481 11.7362 10.4282 10.0296 10.4282C8.323 10.4282 6.93945 9.04481 6.93945 7.33821C6.93945 5.6316 8.323 4.24805 10.0296 4.24805C11.7362 4.24805 13.1196 5.6316 13.1196 7.33821Z" fill="#080F30" />
</svg>
