<svg width="39" height="39" viewBox="0 0 39 39" fill="none" xmlns="http://www.w3.org/2000/svg">
  <rect x="2" y="1.28906" width="35" height="35" rx="4" fill="#E9EEFF" />
  <path d="M27.2477 21.741C27.2477 21.866 27.2106 21.9881 27.1412 22.092C27.0718 22.1958 26.9732 22.2768 26.8578 22.3246C26.7423 22.3724 26.6153 22.3849 26.4928 22.3606C26.3703 22.3362 26.2577 22.276 26.1694 22.1877C26.0811 22.0993 26.0209 21.9868 25.9965 21.8643C25.9721 21.7417 25.9847 21.6147 26.0325 21.4993C26.0803 21.3839 26.1612 21.2852 26.2651 21.2158C26.369 21.1464 26.4911 21.1094 26.6161 21.1094C26.699 21.1093 26.7812 21.1256 26.8579 21.1573C26.9345 21.189 27.0042 21.2355 27.0628 21.2942C27.1215 21.3529 27.168 21.4226 27.1998 21.4992C27.2315 21.5759 27.2478 21.6581 27.2477 21.741Z" fill="#0032DA" />
  <path d="M18.6993 29.7891C19.3517 29.7883 19.9772 29.5288 20.4385 29.0675C20.8999 28.6061 21.1594 27.9806 21.1601 27.3282V23.5957C21.1604 23.2694 21.2902 22.9565 21.5209 22.7258C21.7517 22.4951 22.0645 22.3653 22.3908 22.365H23.6807C23.8332 23.1119 24.2575 23.7755 24.8715 24.2272C25.4855 24.679 26.2453 24.8866 27.0037 24.81C27.7621 24.7334 28.465 24.3779 28.9762 23.8125C29.4874 23.247 29.7704 22.5119 29.7704 21.7497C29.7704 20.9874 29.4874 20.2523 28.9762 19.6869C28.465 19.1214 27.7621 18.7659 27.0037 18.6893C26.2453 18.6127 25.4855 18.8204 24.8715 19.2721C24.2575 19.7238 23.8332 20.3874 23.6807 21.1343H22.3881C21.7356 21.135 21.1101 21.3945 20.6488 21.8559C20.1874 22.3172 19.9279 22.9427 19.9272 23.5952V27.3276C19.9204 27.6495 19.7878 27.9558 19.5578 28.181C19.3277 28.4062 19.0187 28.5323 18.6968 28.5323C18.3749 28.5323 18.0658 28.4062 17.8358 28.181C17.6058 27.9558 17.4732 27.6495 17.4663 27.3276V23.5952H18.0814C18.2445 23.5952 18.401 23.5304 18.5163 23.415C18.6317 23.2997 18.6965 23.1432 18.6965 22.9801V21.0608L22.4638 18.0473C22.8249 17.7598 23.1162 17.3944 23.3162 16.9784C23.5161 16.5624 23.6193 16.1066 23.6182 15.645V13.0952C23.6173 12.3864 23.372 11.6996 22.9237 11.1506C22.4754 10.6016 21.8516 10.2239 21.1574 10.0811V9.40415C21.1574 9.24149 21.0929 9.08546 20.9782 8.97019C20.8634 8.85492 20.7077 8.78979 20.545 8.78906H19.3149C18.8254 8.78906 18.3559 8.98353 18.0097 9.32969C17.6636 9.67584 17.4691 10.1453 17.4691 10.6348C17.4691 11.1244 17.6636 11.5939 18.0097 11.94C18.3559 12.2862 18.8254 12.4806 19.3149 12.4806H20.5456C20.7087 12.4806 20.8652 12.4158 20.9805 12.3005C21.0959 12.1851 21.1607 12.0287 21.1607 11.8656V11.356C21.5203 11.4835 21.8316 11.7192 22.052 12.0307C22.2723 12.3422 22.3909 12.7142 22.3914 13.0957V15.6456C22.392 15.9225 22.33 16.196 22.21 16.4456C22.09 16.6951 21.9151 16.9144 21.6984 17.0868L21.2524 17.4433H12.4551L12.0091 17.0868C11.7924 16.9144 11.6175 16.6951 11.4975 16.4456C11.3775 16.196 11.3155 15.9225 11.3161 15.6456V13.0957C11.3166 12.7142 11.4352 12.3422 11.6556 12.0307C11.8759 11.7192 12.1872 11.4835 12.5468 11.356V11.8656C12.5468 12.0287 12.6116 12.1851 12.727 12.3005C12.8423 12.4158 12.9988 12.4806 13.1619 12.4806H14.3926C14.8821 12.4806 15.3516 12.2862 15.6978 11.94C16.0439 11.5939 16.2384 11.1244 16.2384 10.6348C16.2384 10.1453 16.0439 9.67584 15.6978 9.32969C15.3516 8.98353 14.8821 8.78906 14.3926 8.78906H13.1619C12.9988 8.78906 12.8423 8.85386 12.727 8.96921C12.6116 9.08456 12.5468 9.24102 12.5468 9.40415V10.0811C11.8525 10.2239 11.2286 10.6017 10.7803 11.1508C10.332 11.7 10.0868 12.3868 10.0859 13.0957V15.6456C10.0849 16.1071 10.1881 16.5629 10.388 16.9789C10.5879 17.3949 10.8793 17.7603 11.2404 18.0479L15.0077 21.0614V22.9806C15.0077 23.1438 15.0725 23.3002 15.1878 23.4156C15.3032 23.5309 15.4596 23.5957 15.6228 23.5957H16.2378V27.3282C16.2386 27.9807 16.4982 28.6063 16.9596 29.0677C17.4211 29.529 18.0467 29.7885 18.6993 29.7891ZM26.6975 19.9041C27.0626 19.9041 27.4194 20.0124 27.723 20.2152C28.0265 20.418 28.2631 20.7063 28.4028 21.0436C28.5425 21.3808 28.5791 21.752 28.5078 22.11C28.4366 22.4681 28.2608 22.797 28.0027 23.0551C27.7445 23.3132 27.4156 23.489 27.0576 23.5603C26.6995 23.6315 26.3284 23.5949 25.9911 23.4552C25.6539 23.3155 25.3656 23.0789 25.1628 22.7754C24.96 22.4719 24.8517 22.115 24.8517 21.7499C24.8523 21.2606 25.0469 20.7914 25.393 20.4454C25.739 20.0994 26.2082 19.9047 26.6975 19.9041ZM19.93 11.2499H19.3149C19.1517 11.2499 18.9952 11.1851 18.8798 11.0697C18.7644 10.9543 18.6995 10.7978 18.6995 10.6346C18.6995 10.4714 18.7644 10.3148 18.8798 10.1994C18.9952 10.084 19.1517 10.0192 19.3149 10.0192H19.93V11.2499ZM13.7775 10.0192H14.3926C14.5558 10.0192 14.7123 10.084 14.8277 10.1994C14.9431 10.3148 15.008 10.4714 15.008 10.6346C15.008 10.7978 14.9431 10.9543 14.8277 11.0697C14.7123 11.1851 14.5558 11.2499 14.3926 11.2499H13.7775V10.0192ZM16.0074 20.2849L13.9931 18.6734H19.7139L17.6996 20.2849C17.6275 20.3425 17.5694 20.4156 17.5294 20.4987C17.4894 20.5819 17.4686 20.6729 17.4686 20.7651V22.365H16.2378V20.7651C16.2378 20.6729 16.217 20.5819 16.177 20.4987C16.137 20.4156 16.0789 20.3425 16.0068 20.2849H16.0074Z" fill="#0032DA" />
</svg>
