<svg width="39" height="39" viewBox="0 0 39 39" fill="none" xmlns="http://www.w3.org/2000/svg">
  <rect x="1.68945" y="1.82812" width="35" height="35" rx="4" fill="#E9EEFF" />
  <path d="M29.1714 20.893C29.1714 19.9698 28.6886 19.1129 27.864 18.3988C28.3297 17.8655 28.5938 17.1857 28.6102 16.4778C28.6102 13.9958 25.1224 11.9844 20.824 11.9844C17.4448 11.9844 14.5684 13.2254 13.4901 14.9634C11.4224 15.7679 10.0706 17.1378 10.0706 18.6868C10.0706 19.5055 10.4509 20.2738 11.1126 20.9356C10.4427 21.5952 10.0625 22.3616 10.0625 23.1803C10.0625 25.6624 13.5483 27.6738 17.8508 27.6738C21.1315 27.6738 23.9377 26.503 25.0921 24.8477C27.5179 24.0894 29.1714 22.6029 29.1714 20.8933V20.893ZM20.9826 12.5875C24.7943 12.5875 27.8859 14.072 27.8859 15.9003C27.8859 17.7288 24.7943 19.2053 20.9826 19.2053C17.1709 19.2053 14.0772 17.7228 14.0772 15.8944C14.0772 14.0659 17.1687 12.5875 20.9826 12.5875ZM11.1063 18.1029C11.1063 17.1857 11.8807 16.3569 13.1318 15.7575H13.132C13.067 15.9919 13.0337 16.2342 13.0333 16.4775C13.0333 18.9597 16.5193 20.9713 20.8238 20.9713C21.0612 20.9713 21.2965 20.9713 21.5279 20.9532H21.5277C20.3811 21.2675 19.1967 21.4226 18.0077 21.4139C14.1981 21.4139 11.1062 19.9314 11.1062 18.103L11.1063 18.1029ZM18.0078 25.9095C14.186 25.9095 11.1024 24.427 11.1024 22.5986C11.1144 22.1426 11.2892 21.706 11.5951 21.3676C12.3823 21.9522 13.2679 22.391 14.2101 22.6629C15.4009 24.2721 18.1586 25.3884 21.3709 25.3884H21.7389V25.3885C20.5278 25.7452 19.2703 25.9207 18.0076 25.9095L18.0078 25.9095ZM21.544 23.6225C20.3768 23.6289 19.2139 23.4795 18.0862 23.1778C21.3628 23.1216 24.1306 21.8965 25.1845 20.2009C26.0793 19.873 26.8968 19.3642 27.5862 18.7065C28.1353 19.1811 28.449 19.7283 28.449 20.3157C28.449 22.14 25.3575 23.6225 21.5436 23.6225H21.544Z" fill="#0032DA" />
  <path d="M19.6467 14.3939C19.3777 14.5649 19.2146 14.8615 19.2143 15.1803C19.2059 15.3366 19.2432 15.4921 19.3218 15.6275C19.4005 15.7629 19.5168 15.8724 19.6568 15.9427C19.9644 16.0756 20.2896 16.1636 20.6223 16.2041V17.1696C20.4651 17.1497 20.317 17.0847 20.1959 16.9826C20.102 16.8832 20.0428 16.7562 20.027 16.6206H19.1358C19.1333 16.7968 19.1788 16.9704 19.2673 17.1227C19.356 17.2751 19.4842 17.4004 19.6387 17.4854C19.9391 17.659 20.2758 17.7603 20.6223 17.7812V18.1996H21.3766V17.7851C21.7236 17.7686 22.0606 17.664 22.3562 17.4815C22.6447 17.3154 22.8243 17.0096 22.8289 16.6768C22.833 16.5318 22.7979 16.3881 22.727 16.2614C22.6562 16.1346 22.5524 16.0293 22.4265 15.9568C22.1868 15.8269 21.926 15.7404 21.6562 15.7013L21.3726 15.6489L21.3725 14.7599L21.4288 14.78H21.4289C21.6312 14.8415 21.7746 15.0216 21.7889 15.2327H22.682C22.6788 15.0555 22.6281 14.8825 22.5355 14.7315C22.4428 14.5804 22.3114 14.4569 22.155 14.3737C21.9141 14.2348 21.6482 14.1446 21.3725 14.1082V13.7422H20.6222V14.0902C20.2758 14.1025 19.939 14.2073 19.6467 14.3939L19.6467 14.3939ZM21.7325 16.4616C21.8495 16.5016 21.9295 16.6096 21.9337 16.7332C21.9337 16.9344 21.801 17.0691 21.5315 17.1355C21.48 17.1501 21.4276 17.1609 21.3746 17.1676V16.3469C21.4972 16.3736 21.6172 16.412 21.7325 16.4616L21.7325 16.4616ZM20.6223 15.5041C20.5085 15.4819 20.3968 15.4504 20.2883 15.4095C20.1622 15.3722 20.0744 15.2576 20.0711 15.126C20.0739 14.9847 20.1611 14.8587 20.2924 14.8062C20.3958 14.7546 20.5075 14.7212 20.6223 14.7076V15.5041Z" fill="#0032DA" />
</svg>
  