<svg width="36" height="36" viewBox="0 0 36 36" fill="none" xmlns="http://www.w3.org/2000/svg">
  <rect x="0.134766" y="0.984375" width="35" height="35" rx="4" fill="#E9EEFF" />
  <g clip-path="url(#clip0_4319_111428)">
    <path d="M17.9952 11.6461L19.2504 13.8167L22.2484 14.1173L22.245 11.8679L19.6246 10.271L17.9952 11.6461Z" fill="#E9EEFF" />
    <path d="M18.8044 14.0193L17.6193 11.7333L20.5295 9.19961L24.9156 11.7353L24.1983 15.5366L21.6358 15.6562C24.2318 17.9869 24.9913 21.7983 23.2558 24.8291C21.2525 28.3277 16.6829 29.4613 13.0494 27.3607C9.41589 25.2602 8.09445 20.7211 10.0978 17.2224C11.8332 14.1917 15.4941 12.9358 18.8044 14.0193ZM13.6541 26.3046C16.6819 28.055 20.4896 27.1103 22.1589 24.195C23.8283 21.2797 22.7271 17.4971 19.6994 15.7468C16.6718 13.9965 12.8639 14.9411 11.1946 17.8564C9.52523 20.7717 10.6264 24.5543 13.6541 26.3046ZM19.1713 12.0564L20.4262 14.4776L23.1401 14.3508L23.5205 12.3341L20.7153 10.7123L19.1713 12.0564Z" fill="#0032DA" />
  </g>
  <defs>
    <clipPath id="clip0_4319_111428">
      <rect width="22.3502" height="23.606" fill="white" transform="translate(6.44238 6.69922) rotate(-0.0860505)" />
    </clipPath>
  </defs>
</svg>
  