<svg width="39" height="39" viewBox="0 0 39 39" fill="none" xmlns="http://www.w3.org/2000/svg">
  <rect x="2" y="1.28906" width="35" height="35" rx="4" fill="#E9EEFF" />
  <path d="M21.0125 26.0012H19.3414C18.8138 26.0012 18.4619 25.6495 18.4619 25.1217C18.4619 24.5941 18.8136 24.2422 19.3414 24.2422H21.0124C21.54 24.2422 21.8919 24.5939 21.8919 25.1217C21.8919 25.6495 21.4522 26.0012 21.0125 26.0012Z" fill="#0032DA" />
  <path d="M15.8229 26.0012H14.152C13.6244 26.0012 13.2725 25.6495 13.2725 25.1217C13.2725 24.5941 13.6242 24.2422 14.152 24.2422L15.8229 24.2424C16.3505 24.2424 16.7024 24.5941 16.7024 25.1219C16.7023 25.6495 16.3505 26.0012 15.8229 26.0012V26.0012Z" fill="#0032DA" />
  <path d="M21.0125 21.7747H19.3414C18.8138 21.7747 18.4619 21.423 18.4619 20.8952C18.4619 20.3675 18.8136 20.0156 19.3414 20.0156H21.0124C21.54 20.0156 21.8919 20.3673 21.8919 20.8952C21.8919 21.423 21.4522 21.7747 21.0125 21.7747Z" fill="#0032DA" />
  <path d="M15.8229 21.7747H14.152C13.6244 21.7747 13.2725 21.423 13.2725 20.8952C13.2725 20.3675 13.6242 20.0156 14.152 20.0156L15.8229 20.0158C16.3505 20.0158 16.7024 20.3675 16.7024 20.8953C16.7023 21.423 16.3505 21.7747 15.8229 21.7747V21.7747Z" fill="#0032DA" />
  <path d="M21.0125 17.47H19.3414C18.8138 17.47 18.4619 17.1183 18.4619 16.5905C18.4619 16.0628 18.8136 15.7109 19.3414 15.7109H21.0124C21.54 15.7109 21.8919 16.0626 21.8919 16.5905C21.8919 17.1183 21.4522 17.47 21.0125 17.47Z" fill="#0032DA" />
  <path d="M15.8229 17.47H14.152C13.6244 17.47 13.2725 17.1183 13.2725 16.5905C13.2725 16.0628 13.6242 15.7109 14.152 15.7109L15.8229 15.7111C16.3505 15.7111 16.7024 16.0628 16.7024 16.5907C16.7023 17.1183 16.3505 17.47 15.8229 17.47V17.47Z" fill="#0032DA" />
  <path d="M24.178 14.5665H14.3278C13.8001 14.5665 13.4482 14.2148 13.4482 13.6869V9.11391C13.4482 8.58627 13.7999 8.23438 14.3278 8.23438H24.178C24.7056 8.23438 25.0575 8.58607 25.0575 9.11391V13.6871C25.0575 14.2147 24.6176 14.5665 24.178 14.5665ZM15.2074 12.8076H23.2983L23.2982 9.99325H15.2072L15.2074 12.8076Z" fill="#0032DA" />
  <path d="M24.178 29.3466H10.986C10.4583 29.3466 10.1064 28.9949 10.1064 28.4671V13.692C10.1064 13.1644 10.4581 12.8125 10.986 12.8125H24.178C24.7056 12.8125 25.0575 13.1642 25.0575 13.692V28.4671C25.0575 28.9949 24.6177 29.3466 24.178 29.3466ZM11.8656 27.5878H23.2988L23.2987 14.5715H11.8654L11.8656 27.5878Z" fill="#0032DA" />
  <path d="M25.7611 29.345H9.40297C8.87533 29.345 8.52344 28.9933 8.52344 28.4655C8.52344 27.9378 8.87514 27.5859 9.40297 27.5859H25.8492C26.3768 27.5859 26.7287 27.9376 26.7287 28.4655C26.7287 28.9933 26.289 29.345 25.7614 29.345H25.7611Z" fill="#0032DA" />
</svg>
  