<svg width="24" height="25" viewBox="0 0 24 25" fill="none" xmlns="http://www.w3.org/2000/svg">
  <path d="M4.12842 4.38281C4.12842 3.27824 5.02385 2.38281 6.12842 2.38281H11.75C11.8881 2.38281 12 2.49474 12 2.63281V8.25443C12 9.359 12.8955 10.2544 14 10.2544H19.6217C19.7597 10.2544 19.8717 10.3664 19.8717 10.5044V20.6241C19.8717 21.7287 18.9762 22.6241 17.8717 22.6241H6.12842C5.02385 22.6241 4.12842 21.7287 4.12842 20.6241V4.38281Z" fill="#CAD5F8" />
  <path d="M13.1245 8.12991V2.98637C13.1245 2.76364 13.3938 2.6521 13.5513 2.80959L19.4448 8.70314C19.6023 8.86063 19.4908 9.12991 19.2681 9.12991H14.1245C13.5722 9.12991 13.1245 8.6822 13.1245 8.12991Z" fill="#0032DA" />
  <path d="M8.06421 14.1875L14.8113 14.1875" stroke="#0032DA" stroke-linecap="round" />
  <path d="M8.06421 17.5625L13.6868 17.5625" stroke="#0032DA" stroke-linecap="round" />
</svg>
  