<svg width="39" height="39" viewBox="0 0 39 39" fill="none" xmlns="http://www.w3.org/2000/svg">
  <rect x="2" y="1.28906" width="35" height="35" rx="4" fill="#E9EEFF" />
  <path d="M9.95001 29.0213H11.5336C11.6664 29.021 11.7978 28.9927 11.919 28.9382C12.0401 28.8836 12.1484 28.8041 12.2368 28.7048H20.1801C20.6448 28.705 21.1007 28.5772 21.4977 28.3355L27.4335 24.7219C27.6816 24.5699 27.8652 24.3321 27.9493 24.0536C28.0335 23.7751 28.0123 23.4754 27.8898 23.2115C27.7673 22.9476 27.5521 22.7379 27.2851 22.6224C27.018 22.5069 26.7179 22.4935 26.4417 22.5849L22.0319 24.0541C23.7043 22.8201 25.8447 20.9718 26.7936 19.0166C28.4195 15.8808 28.3974 12.6992 26.732 11.0983C26.2799 10.6747 25.7357 10.3618 25.1423 10.1841C24.5488 10.0063 23.9222 9.96863 23.3117 10.0739C22.6782 10.1896 22.0767 10.4394 21.5475 10.8064C21.0184 11.1735 20.5737 11.6493 20.2434 12.2022C19.913 11.6493 19.4682 11.1734 18.9389 10.8063C18.4096 10.4393 17.808 10.1896 17.1744 10.0739C16.5642 9.96891 15.9379 10.0068 15.3448 10.1845C14.7517 10.3622 14.2078 10.675 13.7559 11.0983C12.091 12.6992 12.0661 15.8814 13.6903 19.0085C14.3703 20.2789 15.28 21.4124 16.373 22.3515C15.8918 22.2967 15.4356 22.1078 15.0566 21.8062C14.4875 21.3521 13.7813 21.1044 13.0532 21.1036H12.4261C12.3611 20.9188 12.2404 20.7587 12.0807 20.6452C11.921 20.5318 11.73 20.4706 11.5341 20.4701H9.95001C9.69815 20.4704 9.45669 20.5705 9.27859 20.7486C9.1005 20.9267 9.00031 21.1682 9 21.4201V28.0713C9.00031 28.3232 9.1005 28.5646 9.27859 28.7427C9.45669 28.9208 9.69815 29.021 9.95001 29.0213ZM14.2564 18.7251C12.7588 15.8414 12.7339 12.96 14.1949 11.5547C14.5755 11.1992 15.0334 10.9369 15.5326 10.7882C16.0317 10.6396 16.5585 10.6088 17.0716 10.6982C17.6997 10.8227 18.2892 11.0945 18.7917 11.4912C19.2942 11.888 19.6954 12.3983 19.9623 12.9803C19.9918 13.0283 20.0331 13.068 20.0823 13.0955C20.1315 13.123 20.187 13.1375 20.2434 13.1375C20.2997 13.1375 20.3552 13.123 20.4044 13.0955C20.4536 13.068 20.4949 13.0283 20.5244 12.9803C20.7912 12.3984 21.1923 11.8881 21.6948 11.4913C22.1972 11.0946 22.7866 10.8228 23.4145 10.6982C23.9275 10.6086 24.4543 10.6393 24.9534 10.7877C25.4526 10.9361 25.9105 11.1983 26.2913 11.5535C27.7523 12.9582 27.7273 15.8396 26.2257 18.7315C25.03 21.1988 21.7659 23.5332 20.2445 24.5262L20.1406 24.4571C20.1897 24.2693 20.2009 24.0736 20.1735 23.8815C20.1461 23.6894 20.0806 23.5046 19.9809 23.3381L19.9524 23.2916C19.7827 23.0108 19.5434 22.7785 19.2577 22.617C18.9719 22.4556 18.6494 22.3706 18.3213 22.3701H17.3504C16.086 21.3739 15.0339 20.1345 14.2564 18.7251ZM14.6629 22.301C15.232 22.755 15.9383 23.0027 16.6663 23.0036H18.323C18.5417 23.0042 18.7566 23.0612 18.9469 23.169C19.1372 23.2768 19.2965 23.4318 19.4095 23.6191L19.4374 23.6656C19.5219 23.8065 19.5626 23.9694 19.5542 24.1335C19.5458 24.2977 19.4888 24.4556 19.3903 24.5872H17.4642C16.8389 24.5865 16.2275 24.7716 15.7076 25.1191L15.4753 25.2735C15.4381 25.2952 15.4058 25.3243 15.3802 25.3589C15.3547 25.3936 15.3365 25.433 15.3267 25.4749C15.3169 25.5168 15.3158 25.5603 15.3234 25.6027C15.331 25.645 15.3471 25.6854 15.3709 25.7213C15.3946 25.7572 15.4254 25.7879 15.4614 25.8115C15.4974 25.8351 15.5378 25.8511 15.5802 25.8585C15.6226 25.866 15.666 25.8647 15.7079 25.8548C15.7498 25.8448 15.7892 25.8265 15.8237 25.8008L16.056 25.6463C16.4719 25.3684 16.961 25.2203 17.4613 25.2207H20.2765C20.4466 25.2207 20.6156 25.1932 20.777 25.1394L26.642 23.1854C26.771 23.141 26.9119 23.1459 27.0375 23.1991C27.1631 23.2524 27.2645 23.3503 27.3222 23.474C27.3799 23.5976 27.3898 23.7382 27.35 23.8687C27.3102 23.9992 27.2235 24.1103 27.1066 24.1807L21.1678 27.7943C20.8704 27.9754 20.5289 28.0712 20.1806 28.0713H12.4842V21.7371H13.0532C13.6376 21.7378 14.2044 21.9366 14.6612 22.301H14.6629ZM9.63354 21.4201C9.63369 21.3362 9.66708 21.2558 9.7264 21.1965C9.78572 21.1371 9.86612 21.1037 9.95001 21.1036H11.5336C11.6174 21.1037 11.6979 21.1371 11.7572 21.1965C11.8165 21.2558 11.8499 21.3362 11.85 21.4201V28.0713C11.8499 28.1552 11.8165 28.2356 11.7572 28.2949C11.6979 28.3542 11.6174 28.3876 11.5336 28.3878H9.95001C9.86612 28.3876 9.78572 28.3542 9.7264 28.2949C9.66708 28.2356 9.63369 28.1552 9.63354 28.0713V21.4201Z" fill="#0032DA" stroke="#0032DA" stroke-width="0.5" />
  <path d="M16.2155 13.4341C16.2994 13.4341 16.3799 13.4008 16.4393 13.3414C16.4986 13.2821 16.532 13.2016 16.532 13.1176V12.8011C16.532 12.7171 16.4986 12.6366 16.4392 12.5772C16.3798 12.5177 16.2992 12.4844 16.2152 12.4844C16.1312 12.4844 16.0506 12.5177 15.9912 12.5772C15.9318 12.6366 15.8984 12.7171 15.8984 12.8011V13.1176C15.8984 13.1592 15.9066 13.2004 15.9226 13.2389C15.9385 13.2773 15.9619 13.3122 15.9913 13.3416C16.0208 13.371 16.0557 13.3943 16.0942 13.4102C16.1327 13.426 16.1739 13.4342 16.2155 13.4341Z" fill="#0032DA" stroke="#0032DA" stroke-width="0.5" />
  <path d="M16.2149 14.0703C16.131 14.0703 16.0505 14.1037 15.9911 14.163C15.9318 14.2224 15.8984 14.3029 15.8984 14.3868V14.7033C15.8984 14.7873 15.9318 14.8679 15.9912 14.9273C16.0506 14.9867 16.1312 15.02 16.2152 15.02C16.2992 15.02 16.3798 14.9867 16.4392 14.9273C16.4986 14.8679 16.532 14.7873 16.532 14.7033V14.3868C16.532 14.3452 16.5238 14.304 16.5078 14.2655C16.4919 14.2271 16.4685 14.1922 16.4391 14.1628C16.4096 14.1334 16.3747 14.1101 16.3362 14.0942C16.2977 14.0784 16.2565 14.0702 16.2149 14.0703Z" fill="#0032DA" stroke="#0032DA" stroke-width="0.5" />
  <path d="M15.5815 13.4375H15.265C15.181 13.4375 15.1004 13.4709 15.041 13.5303C14.9816 13.5897 14.9482 13.6703 14.9482 13.7543C14.9482 13.8383 14.9816 13.9188 15.041 13.9783C15.1004 14.0377 15.181 14.071 15.265 14.071H15.5815C15.6655 14.071 15.7461 14.0377 15.8055 13.9783C15.8649 13.9188 15.8983 13.8383 15.8983 13.7543C15.8983 13.6703 15.8649 13.5897 15.8055 13.5303C15.7461 13.4709 15.6655 13.4375 15.5815 13.4375Z" fill="#0032DA" stroke="#0032DA" stroke-width="0.5" />
  <path d="M17.1655 13.4375H16.849C16.765 13.4375 16.6844 13.4709 16.625 13.5303C16.5656 13.5897 16.5322 13.6703 16.5322 13.7543C16.5322 13.8383 16.5656 13.9188 16.625 13.9783C16.6844 14.0377 16.765 14.071 16.849 14.071H17.1655C17.2495 14.071 17.3301 14.0377 17.3895 13.9783C17.4489 13.9188 17.4822 13.8383 17.4822 13.7543C17.4822 13.6703 17.4489 13.5897 17.3895 13.5303C17.3301 13.4709 17.2495 13.4375 17.1655 13.4375Z" fill="#0032DA" stroke="#0032DA" stroke-width="0.5" />
</svg>
