<svg width="38" height="39" viewBox="0 0 38 39" fill="none" xmlns="http://www.w3.org/2000/svg">
  <rect x="1.07227" y="1.46875" width="35" height="35" rx="4" fill="#E9EEFF" />
  <path d="M21.3366 15.7683C21.2456 15.6766 21.122 15.625 20.9928 15.625C20.8637 15.625 20.74 15.6766 20.6491 15.7683L15.8072 20.6102V20.61C15.7156 20.701 15.6641 20.8248 15.6641 20.9539C15.6641 21.0829 15.7156 21.2068 15.8072 21.2977C15.8982 21.3893 16.0218 21.4408 16.151 21.4408C16.2801 21.4408 16.4038 21.3893 16.4947 21.2977L21.3366 16.4558C21.4282 16.3649 21.4797 16.2412 21.4797 16.112C21.4797 15.9829 21.4282 15.8593 21.3366 15.7683V15.7683Z" fill="#0032DA" />
  <path d="M20.9916 20.2263C20.9916 20.6273 20.6666 20.9525 20.2653 20.9525C19.8643 20.9525 19.5391 20.6273 19.5391 20.2263C19.5391 19.8252 19.8643 19.5 20.2653 19.5C20.6666 19.5 20.9916 19.8252 20.9916 20.2263Z" fill="#0032DA" />
  <path d="M17.6029 16.8356C17.6029 17.2369 17.2777 17.5619 16.8767 17.5619C16.4754 17.5619 16.1504 17.2369 16.1504 16.8356C16.1504 16.4346 16.4754 16.1094 16.8767 16.1094C17.2777 16.1094 17.6029 16.4346 17.6029 16.8356Z" fill="#0032DA" />
  <path d="M29.7074 14.1797C29.4401 14.1797 29.2234 14.3964 29.2234 14.6638V25.3157C22.4451 25.4125 19.54 27.5186 18.5714 28.4628C17.6031 27.5186 14.6981 25.4125 7.91946 25.3157V14.6638C7.91946 14.3964 7.70272 14.1797 7.4354 14.1797C7.16792 14.1797 6.95117 14.3964 6.95117 14.6638V25.8C6.95117 25.9284 7.00224 26.0515 7.09302 26.1424C7.1838 26.2332 7.30701 26.2841 7.4354 26.2841C15.8019 26.2841 18.15 29.436 18.1745 29.465C18.1987 29.494 18.1745 29.465 18.2035 29.465V29.4652C18.2277 29.5031 18.259 29.5359 18.2956 29.562H18.378H18.3778C18.4383 29.5915 18.5042 29.6078 18.5715 29.6104C18.6388 29.6078 18.7048 29.5915 18.7652 29.562H18.8476H18.8474C18.8841 29.5359 18.9154 29.5031 18.9395 29.4652H18.9685C18.9976 29.4652 21.2684 26.2841 29.7076 26.2841C29.836 26.2841 29.9592 26.2332 30.05 26.1424C30.1408 26.0515 30.1919 25.9284 30.1919 25.8V14.6638C30.1919 14.5354 30.1408 14.4123 30.05 14.3214C29.9592 14.2306 29.836 14.1797 29.7076 14.1797L29.7074 14.1797Z" fill="#0032DA" />
  <path d="M9.37327 24.3453C16.2292 24.3453 18.1515 27.0131 18.1706 27.0324C18.2597 27.1676 18.4105 27.2493 18.5724 27.2503C18.7334 27.2505 18.8842 27.1707 18.9743 27.0373C18.9743 27.0131 20.9111 24.3453 27.7716 24.3453C27.9 24.3453 28.023 24.2942 28.114 24.2034C28.2048 24.1127 28.2557 23.9894 28.2557 23.8611V9.82017C28.2557 9.69177 28.2048 9.56857 28.114 9.47779C28.023 9.387 27.9 9.33594 27.7716 9.33594C21.9856 9.33594 19.4487 10.8611 18.5722 11.5776C17.6958 10.8611 15.1829 9.33594 9.37273 9.33594C9.10541 9.33594 8.88867 9.55268 8.88867 9.82017V23.8611C8.88867 23.9894 8.93958 24.1127 9.03036 24.2034C9.1213 24.2942 9.24434 24.3453 9.37274 24.3453L9.37327 24.3453ZM9.85749 10.304C16.3021 10.4056 18.1609 12.502 18.1999 12.5408V12.5409C18.2902 12.6552 18.4272 12.7227 18.5728 12.7249C18.7176 12.724 18.8544 12.6581 18.9457 12.5458C18.9457 12.5458 19.9527 11.4079 22.9739 10.7592C23.2241 10.7817 23.4156 10.9919 23.4146 11.2432V13.209C23.4146 13.4765 23.6313 13.6932 23.8986 13.6932C24.1661 13.6932 24.3829 13.4765 24.3829 13.209V11.2336C24.3803 10.9911 24.317 10.753 24.1989 10.5412C25.2223 10.3955 26.2541 10.3162 27.2879 10.3039V23.3766C21.875 23.4734 19.4443 25.1874 18.5728 26.0347C17.7013 25.1922 15.2708 23.4784 9.85767 23.3766L9.85749 10.304Z" fill="#0032DA" />
</svg>
  