<svg width="39" height="39" viewBox="0 0 39 39" fill="none" xmlns="http://www.w3.org/2000/svg">
  <rect x="1.18945" y="1.28906" width="35" height="35" rx="4" fill="#E9EEFF" />
  <path d="M23.9458 13.1278H22.5995L22.1416 10.8329C22.0546 10.3974 21.8193 10.0055 21.4758 9.72399C21.1323 9.44245 20.702 9.28887 20.2579 9.28906H16.5726C16.1291 9.28945 15.6991 9.44341 15.3562 9.72475C15.0134 10.0063 14.7786 10.3978 14.6918 10.8329L14.231 13.1279H12.8847C12.17 13.1279 11.4843 13.4119 10.979 13.9172C10.4735 14.4227 10.1895 15.1084 10.1895 15.8231V23.2728C10.1895 24.0727 10.5071 24.8399 11.0729 25.4056C11.6385 25.9712 12.4056 26.2891 13.2057 26.2891H23.625C24.425 26.2891 25.1922 25.9712 25.7578 25.4056C26.3235 24.8399 26.6412 24.0727 26.6412 23.2728V15.8231C26.6412 15.1084 26.3572 14.4227 25.8517 13.9172C25.3464 13.4119 24.6607 13.1279 23.9459 13.1279L23.9458 13.1278ZM16.3041 11.1537C16.3307 11.024 16.446 10.9316 16.5784 10.9343H20.2581C20.3904 10.9316 20.5057 11.024 20.5321 11.1537L20.9216 13.1278H15.9092L16.3041 11.1537ZM24.996 23.273C24.996 23.6366 24.8516 23.9852 24.5946 24.2425C24.3375 24.4995 23.9887 24.6439 23.6251 24.6439H13.2057C12.8422 24.6439 12.4933 24.4995 12.2362 24.2425C11.9792 23.9852 11.8348 23.6366 11.8348 23.273V19.4344H17.5928V21.628H19.2381V19.4344H24.9961L24.996 23.273ZM11.8348 17.7891V15.8232C11.835 15.5447 11.9453 15.2777 12.1418 15.0801C12.3384 14.8825 12.6062 14.7718 12.8848 14.7729H23.946C24.2245 14.7729 24.4917 14.8837 24.6885 15.0807C24.8855 15.2775 24.9961 15.5447 24.9961 15.8231V17.7891L11.8348 17.7891Z" fill="#0032DA" />
</svg>