<svg width="38" height="39" viewBox="0 0 38 39" fill="none" xmlns="http://www.w3.org/2000/svg">
  <rect x="1.07227" y="1.46875" width="35" height="35" rx="4" fill="#E9EEFF" />
  <path d="M28.455 17.8875C28.455 15.6474 27.7303 13.7367 26.6761 12.8143C26.9396 12.4849 27.1373 12.0237 27.1373 11.5625C27.1373 10.4424 26.2808 9.58594 25.1607 9.58594C24.0407 9.58594 23.1842 10.4424 23.1842 11.5625C23.1842 12.0237 23.3818 12.4849 23.6454 12.8143C23.2501 13.1437 22.8548 13.6708 22.5912 14.3297H14.5532C14.2897 13.6708 13.8944 13.1437 13.4991 12.8143C13.7626 12.4849 13.9603 12.0237 13.9603 11.5625C13.9603 10.4424 13.1038 9.58594 11.9837 9.58594C10.8637 9.58594 10.0072 10.4424 10.0072 11.5625C10.0072 12.0237 10.2048 12.4849 10.4684 12.8143C9.41419 13.7367 8.68945 15.6474 8.68945 17.9533C8.68945 18.3487 8.95299 18.6122 9.3483 18.6122H14.6191C15.0144 18.6122 15.278 18.3487 15.278 17.9533V17.8216C15.278 17.031 15.1462 16.3062 15.0144 15.6474H17.9134V20.3911C17.1227 20.6546 16.5957 21.3794 16.5957 22.2359C16.5957 22.6971 16.7933 23.1583 17.0569 23.4877C16.0027 24.476 15.278 26.3866 15.278 28.6926C15.278 29.0879 15.5415 29.3515 15.9368 29.3515H21.2076C21.6029 29.3515 21.8665 29.0879 21.8665 28.6926V28.5609C21.8665 26.3208 21.1417 24.4101 20.0876 23.5536C20.3511 23.2242 20.5488 22.763 20.5488 22.3018C20.5488 21.4453 20.0217 20.7205 19.2311 20.457V15.7133H22.13C21.9324 16.438 21.8665 17.2286 21.8665 18.0851C21.8665 18.4804 22.13 18.744 22.5253 18.744H27.7961C28.1914 18.744 28.455 18.4804 28.455 18.0851V17.8875ZM11.9837 10.9036C12.379 10.9036 12.6426 11.1672 12.6426 11.5625C12.6426 11.9578 12.379 12.2213 11.9837 12.2213C11.5884 12.2213 11.3249 11.8919 11.3249 11.5625C11.3249 11.1672 11.5884 10.9036 11.9837 10.9036ZM10.0072 17.2945C10.2048 15.1203 11.1272 13.539 11.9837 13.539C12.8402 13.539 13.7626 15.1203 13.9603 17.3604H10.0072V17.2945ZM18.5722 21.577C18.9675 21.577 19.2311 21.8406 19.2311 22.2359C19.2311 22.6312 18.9675 22.8947 18.5722 22.8947C18.1769 22.8947 17.9134 22.6312 17.9134 22.2359C17.9134 21.9065 18.1769 21.577 18.5722 21.577ZM20.5488 28.0338H16.5957C16.7274 25.7937 17.7157 24.2124 18.5722 24.2124C19.4287 24.2124 20.3511 25.7937 20.5488 28.0338ZM25.1607 10.9036C25.556 10.9036 25.8196 11.1672 25.8196 11.5625C25.8196 11.9578 25.556 12.2213 25.1607 12.2213C24.7654 12.2213 24.5019 11.9578 24.5019 11.5625C24.5019 11.1672 24.7654 10.9036 25.1607 10.9036ZM23.1842 17.3604C23.3818 15.1203 24.3042 13.539 25.1607 13.539C26.0172 13.539 26.9396 15.1203 27.1373 17.3604H23.1842Z" fill="#0032DA" />
</svg>
  