<svg width="38" height="39" viewBox="0 0 38 39" fill="none" xmlns="http://www.w3.org/2000/svg">
  <path d="M20.418 31.9868C20.418 32.2748 20.6422 32.499 20.9302 32.499H25.7C25.988 32.499 26.2122 32.2748 26.2122 31.9868V29.4258H20.4181L20.418 31.9868Z" fill="#CAD5F8" />
  <path d="M34.2189 14.4791C34.0269 14.191 33.7708 14.031 33.4506 13.9669C33.0024 13.9028 32.5862 14.0629 32.3301 14.4469L30.1853 17.4239C30.2494 17.488 30.2813 17.5519 30.3454 17.6159C30.8896 18.4482 30.8255 19.5368 30.1853 20.2729L30.0252 20.433C29.1608 21.4253 28.2326 22.3216 27.2081 23.1541L26.3759 23.8265C26.1197 24.0185 25.7357 23.9866 25.5436 23.7304C25.3516 23.4743 25.3835 23.0903 25.6396 22.8982L26.4719 22.2258C27.4323 21.4575 28.3285 20.5612 29.1608 19.633L29.3209 19.4729C29.6089 19.1207 29.6411 18.6406 29.385 18.2564C29.2249 18.0322 29.0009 17.8723 28.7448 17.8401C28.4887 17.7761 28.2006 17.8401 28.0086 18.0002L23.367 21.2657C22.8547 21.6179 22.4707 22.162 22.2786 22.7384L20.582 28.2443H26.6322L30.6656 25.7794C31.3699 25.3313 31.8821 24.6589 32.1061 23.8586L34.379 15.4075C34.4429 15.0873 34.4109 14.7674 34.2189 14.4791V14.4791Z" fill="#CAD5F8" />
  <path d="M16.1302 22.7352C15.9382 22.127 15.5541 21.6147 15.0419 21.2626L10.4643 18.0295C10.2401 17.8694 9.98426 17.8053 9.72813 17.8694C9.47201 17.9335 9.24805 18.0614 9.08796 18.2856C8.83184 18.6697 8.86377 19.15 9.15204 19.5021L9.31215 19.6622C10.1124 20.5904 11.0407 21.4548 12.0011 22.2551L12.8333 22.9274C13.0894 23.1195 13.1214 23.5035 12.9293 23.7597C12.7373 24.0158 12.3532 24.0477 12.0971 23.8557L11.2005 23.1833C10.176 22.3511 9.24782 21.4548 8.38345 20.4622L8.22335 20.3021C7.58317 19.5659 7.51909 18.4455 8.06324 17.6452C8.09517 17.5811 8.15926 17.5172 8.22335 17.4531L6.07857 14.4762C5.85438 14.156 5.50248 13.9961 5.15035 13.9961H4.95832C4.63811 14.0602 4.35004 14.2203 4.18998 14.5083C3.99795 14.7645 3.96602 15.0844 4.02988 15.4047L6.30281 23.8557C6.527 24.656 7.03902 25.3284 7.74328 25.7765L11.7767 28.2415H17.8269L16.1302 22.7352Z" fill="#CAD5F8" />
  <path d="M12.1914 31.9868C12.1914 32.2748 12.4156 32.499 12.7036 32.499H17.4734C17.7615 32.499 17.9857 32.2748 17.9857 31.9868V29.4258H12.1916L12.1914 31.9868Z" fill="#CAD5F8" />
  <path d="M23.7697 18.2114L23.4655 15.5627C23.3352 14.3903 22.5533 13.4351 21.5111 12.9574C20.8161 13.3481 19.9476 13.6089 19.079 13.6089C18.2104 13.6089 17.3419 13.3484 16.6469 12.9141C15.6044 13.3917 14.866 14.3469 14.6925 15.5194L14.3883 18.1681C14.345 18.5155 14.5619 18.8629 14.9094 18.9062C16.2124 19.1667 17.6457 19.3405 19.0791 19.3405C20.5124 19.3405 21.9457 19.2103 23.2487 18.9062C23.5959 18.8626 23.8132 18.5152 23.7698 18.2114H23.7697Z" fill="#0032DA" />
  <path d="M22.2897 8.71306C22.2897 10.4879 20.8509 11.9264 19.0765 11.9264C17.3021 11.9264 15.8633 10.4879 15.8633 8.71306C15.8633 6.9386 17.3021 5.5 19.0765 5.5C20.8509 5.5 22.2897 6.9386 22.2897 8.71306Z" fill="#0032DA" />
</svg>
  