<svg width="38" height="39" viewBox="0 0 38 39" fill="none" xmlns="http://www.w3.org/2000/svg">
  <rect x="1.07227" y="1.46875" width="35" height="35" rx="4" fill="#E9EEFF" />
  <path d="M15.5723 19.9688L21.5723 19.9688" stroke="#0032DA" stroke-width="2" stroke-linecap="round" />
  <path d="M15.5723 15.9688L19.5723 15.9688" stroke="#0032DA" stroke-width="2" stroke-linecap="round" />
  <path d="M15.5723 23.9688L19.5723 23.9688" stroke="#0032DA" stroke-width="2" stroke-linecap="round" />
  <path d="M25.5723 19.9688V21.9688C25.5723 24.7972 25.5723 26.2114 24.6936 27.0901C23.8149 27.9688 22.4007 27.9688 19.5723 27.9688H17.5723C14.7438 27.9688 13.3296 27.9688 12.4509 27.0901C11.5723 26.2114 11.5723 24.7972 11.5723 21.9687V15.9687C11.5723 13.1403 11.5723 11.7261 12.4509 10.8474C13.3296 9.96875 14.7438 9.96875 17.5723 9.96875V9.96875" stroke="#0032DA" stroke-width="2" />
  <path d="M24.5723 9.96875L24.5723 15.9688" stroke="#0032DA" stroke-width="2" stroke-linecap="round" />
  <path d="M27.5723 12.9688L21.5723 12.9687" stroke="#0032DA" stroke-width="2" stroke-linecap="round" />
</svg>
  