<svg width="36" height="35" viewBox="0 0 36 35" fill="none" xmlns="http://www.w3.org/2000/svg">
  <rect x="0.152344" width="35" height="35" rx="4" fill="#E9EEFF" />
  <path fill-rule="evenodd" clip-rule="evenodd" d="M18.6344 24.804C20.1173 24.0348 25.2363 21.0163 25.2363 16C25.2363 12.134 22.1023 9 18.2363 9C14.3703 9 11.2363 12.134 11.2363 16C11.2363 21.0163 16.3554 24.0348 17.8383 24.804C18.0912 24.9351 18.3815 24.9351 18.6344 24.804ZM18.2363 19C19.8932 19 21.2363 17.6569 21.2363 16C21.2363 14.3431 19.8932 13 18.2363 13C16.5795 13 15.2363 14.3431 15.2363 16C15.2363 17.6569 16.5795 19 18.2363 19Z" fill="#0032DA" />
  <path d="M26.0306 24.5C26.8205 24.9561 27.2363 25.4734 27.2363 26C27.2363 26.5266 26.8205 27.0439 26.0306 27.5C25.2406 27.9561 24.1045 28.3348 22.7363 28.5981C21.3682 28.8614 19.8162 29 18.2363 29C16.6565 29 15.1045 28.8614 13.7363 28.5981C12.3682 28.3348 11.232 27.9561 10.4421 27.5C9.65218 27.0439 9.23633 26.5266 9.23633 26C9.23633 25.4734 9.65218 24.9561 10.4421 24.5" stroke="#CAD5F8" stroke-width="1.2" stroke-linecap="round" />
</svg>
  