<svg width="39" height="39" viewBox="0 0 39 39" fill="none" xmlns="http://www.w3.org/2000/svg">
  <rect x="1.57227" y="1.46875" width="35" height="35" rx="4" fill="#E9EEFF"/>
  <path d="M12.821 22H11.446C10.3547 22 9.43805 22.8075 9.28524 23.877L9.13254 24.9463C9.08884 25.2301 9.30716 25.4702 9.59095 25.4702H14.6763C14.96 25.4702 15.1782 25.2301 15.1347 24.9463L14.9818 23.8988C14.829 22.8075 13.9123 22 12.8211 22H12.821Z" fill="#0032DA"/>
  <path d="M14.1303 19.486C14.1303 20.5829 13.2413 21.4721 12.1444 21.4721C11.0474 21.4721 10.1582 20.5829 10.1582 19.486C10.1582 18.3891 11.0474 17.5 12.1444 17.5C13.2413 17.5 14.1303 18.3891 14.1303 19.486Z" fill="#0032DA"/>
  <path d="M20.198 22H18.8229C17.7317 22 16.815 22.8075 16.6622 23.877L16.5095 24.9463C16.4658 25.2301 16.6841 25.4702 16.9679 25.4702H22.0532C22.337 25.4702 22.5552 25.2301 22.5116 24.9463L22.3588 23.8988C22.2059 22.8075 21.2893 22 20.198 22H20.198Z" fill="#0032DA"/>
  <path d="M21.486 19.486C21.486 20.5829 20.5967 21.4721 19.4998 21.4721C18.4029 21.4721 17.5137 20.5829 17.5137 19.486C17.5137 18.3891 18.4029 17.5 19.4998 17.5C20.5967 17.5 21.486 18.3891 21.486 19.486Z" fill="#0032DA"/>
  <path d="M29.714 23.8926C29.5612 22.8231 28.6446 22.0156 27.5533 22.0156H26.1783C25.087 22.0156 24.1703 22.8231 24.0175 23.8926L23.865 24.9402C23.8213 25.224 24.0396 25.464 24.3234 25.464H29.4087C29.6925 25.464 29.9106 25.2239 29.8671 24.9402L29.714 23.8926Z" fill="#0032DA"/>
  <path d="M28.8403 19.486C28.8403 20.5829 27.9511 21.4721 26.8542 21.4721C25.7572 21.4721 24.8682 20.5829 24.8682 19.486C24.8682 18.3891 25.7572 17.5 26.8542 17.5C27.9511 17.5 28.8403 18.3891 28.8403 19.486Z" fill="#0032DA"/>
  <path d="M19.3252 13.5085H19.7399C19.8928 13.5085 20.0237 13.574 20.1327 13.6831C20.2419 13.7923 20.2856 13.945 20.2636 14.0759C20.2419 14.3378 20.0018 14.5343 19.718 14.5343H19.1724C19.0195 14.5343 18.8886 14.4252 18.845 14.2725C18.8233 14.1852 18.7359 14.0978 18.6267 14.0978L17.9721 14.0977C17.9066 14.0977 17.8412 14.1195 17.7975 14.1632C17.7538 14.2069 17.732 14.2723 17.732 14.3378C17.7975 14.9926 18.2994 15.4945 18.9324 15.5819V16.1058C18.9324 16.2367 19.0416 16.3241 19.1508 16.3241H19.7619C19.8928 16.3241 19.9802 16.2149 19.9802 16.1058L19.98 15.5601C20.6785 15.4073 21.2022 14.8399 21.2677 14.1633C21.3114 13.7049 21.1585 13.2684 20.853 12.9411C20.5474 12.6138 20.1327 12.4173 19.6745 12.4173H19.1943C19.0415 12.4173 18.9105 12.3518 18.8015 12.2426C18.6924 12.1335 18.6487 11.9808 18.6706 11.8499C18.6924 11.588 18.9325 11.3915 19.2162 11.3915H19.7619C19.9147 11.3915 20.0456 11.5006 20.0892 11.6533C20.111 11.7625 20.1983 11.8279 20.3075 11.8279H21.0276C21.0931 11.8279 21.1586 11.8062 21.2022 11.7625C21.2459 11.7188 21.2677 11.6533 21.2677 11.5878C21.2023 10.933 20.7003 10.4311 20.0673 10.3437V9.81988C20.0673 9.68895 19.9581 9.60156 19.849 9.60156H19.2379C19.1069 9.60156 19.0195 9.71072 19.0195 9.81988V10.3655C18.212 10.5184 17.6664 11.2604 17.7319 12.0896C17.7538 12.8755 18.4958 13.5085 19.3252 13.5085L19.3252 13.5085Z" fill="#0032DA"/>
  <path d="M16.9026 12.9677C16.9026 12.7276 16.7062 12.5312 16.4662 12.5312H13.1706C12.3631 12.5312 11.6865 13.1861 11.6865 14.0153V15.9795C11.6865 16.2196 11.8829 16.416 12.123 16.416C12.3631 16.416 12.5595 16.2196 12.5595 15.9795V14.0153C12.5595 13.688 12.8213 13.426 13.1706 13.426H16.4662C16.7062 13.4042 16.9026 13.2078 16.9026 12.9677Z" fill="#0032DA"/>
  <path d="M26.4181 14.0153V15.9795C26.4181 16.2196 26.6145 16.416 26.8545 16.416C27.0946 16.416 27.291 16.2196 27.291 15.9795V14.0153C27.291 13.2078 26.6362 12.5312 25.807 12.5312H22.5331C22.2931 12.5312 22.0967 12.7276 22.0967 12.9677C22.0967 13.2078 22.2931 13.4042 22.5331 13.4042H25.8287C26.1562 13.4042 26.4181 13.688 26.4181 14.0153Z" fill="#0032DA"/>
  </svg>
  