<svg width="39" height="39" viewBox="0 0 39 39" fill="none" xmlns="http://www.w3.org/2000/svg">
  <rect x="2" y="1.28906" width="35" height="35" rx="4" fill="#E9EEFF" />
  <path d="M16.7531 27.995H14.223C13.9379 27.995 13.6564 27.932 13.3984 27.8106C13.1405 27.6891 12.9126 27.5122 12.731 27.2924C12.5494 27.0727 12.4185 26.8155 12.3479 26.5393C12.2772 26.2631 12.2685 25.9747 12.3222 25.6947L13.3781 20.1971C13.5181 19.4714 13.8098 18.7836 14.2341 18.1785C14.6584 17.5734 15.2056 17.0647 15.8401 16.6857C16.4745 16.3068 17.1819 16.0661 17.9158 15.9794C18.6497 15.8927 19.3936 15.9619 20.0989 16.1826C20.262 16.2344 20.439 16.2193 20.5909 16.1405C20.7428 16.0618 20.8572 15.926 20.909 15.7629C20.9608 15.5998 20.9456 15.4228 20.8669 15.2709C20.7882 15.119 20.6523 15.0045 20.4893 14.9528C20.7115 14.5322 20.7635 14.0422 20.6344 13.5843C20.5053 13.1264 20.2051 12.7357 19.7959 12.4931L21.0281 10.2443C21.0818 10.1461 21.1091 10.0355 21.1072 9.92359C21.1053 9.81163 21.0743 9.7021 21.0172 9.60574C20.9602 9.50939 20.8791 9.42953 20.7818 9.374C20.6846 9.31848 20.5746 9.28921 20.4626 9.28906H16.2694C16.1574 9.28921 16.0474 9.31848 15.9501 9.374C15.8529 9.42953 15.7717 9.50939 15.7147 9.60574C15.6577 9.7021 15.6267 9.81163 15.6248 9.92359C15.6229 10.0355 15.6501 10.1461 15.7038 10.2443L16.9361 12.4931C16.7257 12.6179 16.542 12.7831 16.3957 12.9792C16.2495 13.1754 16.1435 13.3985 16.084 13.6358C16.0244 13.8731 16.0124 14.1199 16.0487 14.3618C16.085 14.6038 16.1688 14.8361 16.2954 15.0455C15.2338 15.4332 14.2906 16.0892 13.5577 16.9496C12.8248 17.8099 12.3271 18.8454 12.1131 19.9552L11.0578 25.4559C10.9683 25.9224 10.9829 26.403 11.1007 26.8633C11.2184 27.3236 11.4364 27.7521 11.7391 28.1183C12.0417 28.4846 12.4215 28.7794 12.8513 28.9818C13.2811 29.1842 13.7504 29.2891 14.2255 29.2891H16.7555C16.9265 29.2891 17.0906 29.2211 17.2115 29.1002C17.3324 28.9792 17.4004 28.8152 17.4004 28.6441C17.4004 28.4731 17.3324 28.309 17.2115 28.1881C17.0906 28.0671 16.9265 27.9992 16.7555 27.9992L16.7531 27.995ZM19.3734 10.5771L18.4678 12.23H18.2641L17.358 10.5771H19.3734ZM17.8817 14.6497C17.7319 14.6497 17.5883 14.5902 17.4824 14.4843C17.3765 14.3785 17.317 14.2348 17.317 14.0851C17.317 13.9354 17.3765 13.7918 17.4824 13.6859C17.5883 13.58 17.7319 13.5205 17.8817 13.5205H18.8442C18.9184 13.5202 18.9919 13.5345 19.0605 13.5627C19.1291 13.5908 19.1914 13.6321 19.2441 13.6843C19.2967 13.7366 19.3385 13.7987 19.3672 13.8671C19.3958 13.9355 19.4107 14.0088 19.411 14.083C19.4112 14.1571 19.3969 14.2306 19.3688 14.2992C19.3407 14.3678 19.2993 14.4302 19.2471 14.4828C19.1948 14.5355 19.1328 14.5773 19.0644 14.6059C18.996 14.6346 18.9226 14.6494 18.8484 14.6497H17.8817ZM24.243 21.0699C24.303 21.1298 24.3505 21.2009 24.3829 21.2792C24.4154 21.3574 24.432 21.4413 24.432 21.526C24.432 21.6107 24.4154 21.6946 24.3829 21.7729C24.3505 21.8511 24.303 21.9222 24.243 21.9821L21.0614 25.1637C20.9405 25.2847 20.7764 25.3527 20.6054 25.3527C20.4343 25.3527 20.2702 25.2847 20.1492 25.1637C20.0283 25.0427 19.9603 24.8787 19.9603 24.7076C19.9603 24.5365 20.0283 24.3724 20.1492 24.2515L23.3308 21.0699C23.4518 20.949 23.6159 20.8812 23.7869 20.8812C23.958 20.8812 24.122 20.949 24.243 21.0699ZM23.5217 23.8502C23.3523 23.8503 23.1866 23.9007 23.0458 23.995C22.9049 24.0892 22.7951 24.2231 22.7303 24.3797C22.6656 24.5363 22.6487 24.7087 22.6818 24.8749C22.715 25.0411 22.7966 25.1937 22.9165 25.3135C23.0364 25.4333 23.1891 25.5149 23.3554 25.548C23.5216 25.581 23.6939 25.564 23.8505 25.4991C24.0071 25.4342 24.1409 25.3243 24.235 25.1834C24.3292 25.0425 24.3794 24.8768 24.3794 24.7073C24.3791 24.48 24.2886 24.2621 24.1278 24.1014C23.967 23.9407 23.7491 23.8504 23.5217 23.8502ZM20.8705 22.3828C21.04 22.3826 21.2057 22.3323 21.3465 22.238C21.4874 22.1438 21.5971 22.0099 21.6619 21.8533C21.7267 21.6966 21.7436 21.5243 21.7104 21.3581C21.6773 21.1919 21.5956 21.0392 21.4757 20.9194C21.3559 20.7996 21.2031 20.7181 21.0369 20.685C20.8707 20.652 20.6984 20.669 20.5418 20.7339C20.3852 20.7988 20.2514 20.9087 20.1572 21.0496C20.0631 21.1905 20.0128 21.3562 20.0128 21.5257C20.0132 21.753 20.1036 21.9709 20.2644 22.1316C20.4252 22.2923 20.6432 22.3826 20.8705 22.3828ZM22.1961 16.9476C20.9761 16.9476 19.7835 17.3093 18.769 17.9872C17.7546 18.665 16.964 19.6284 16.4971 20.7556C16.0302 21.8827 15.908 23.123 16.146 24.3196C16.384 25.5162 16.9715 26.6154 17.8342 27.4781C18.6969 28.3408 19.7961 28.9283 20.9927 29.1663C22.1893 29.4043 23.4296 29.2822 24.5568 28.8153C25.6839 28.3484 26.6474 27.5577 27.3252 26.5433C28.003 25.5289 28.3647 24.3362 28.3647 23.1162C28.3628 21.4808 27.7123 19.9129 26.5559 18.7564C25.3995 17.6 23.8316 16.9495 22.1961 16.9476ZM22.1961 27.995C21.2312 27.995 20.288 27.7088 19.4856 27.1727C18.6833 26.6367 18.058 25.8747 17.6887 24.9832C17.3195 24.0917 17.2228 23.1108 17.4111 22.1644C17.5993 21.218 18.064 20.3487 18.7463 19.6664C19.4286 18.9841 20.2979 18.5194 21.2443 18.3312C22.1907 18.1429 23.1717 18.2395 24.0632 18.6088C24.9547 18.9781 25.7166 19.6034 26.2527 20.4057C26.7888 21.208 27.0749 22.1513 27.0749 23.1162C27.0735 24.4097 26.559 25.6498 25.6444 26.5644C24.7297 27.4791 23.4896 27.9935 22.1961 27.995Z" fill="#0032DA" />
</svg>
