<svg width="39" height="38" viewBox="0 0 39 38" fill="none" xmlns="http://www.w3.org/2000/svg">
  <circle cx="19.0273" cy="14.25" r="4.75" fill="#0032DA" />
  <path fill-rule="evenodd" clip-rule="evenodd" d="M27.7159 25.2916C27.7717 25.3963 27.7423 25.5253 27.6479 25.5971C25.2543 27.418 22.2673 28.499 19.0278 28.499C15.7883 28.499 12.8012 27.418 10.4077 25.5971C10.3133 25.5253 10.2839 25.3963 10.3396 25.2916C11.8166 22.5172 15.151 20.582 19.0278 20.582C22.9046 20.582 26.239 22.5172 27.7159 25.2916Z" fill="#CAD5F8" />
  <path d="M30.1123 3.5H30.3123C32.1036 3.5 32.9993 3.5 33.5558 4.0565C34.1123 4.61299 34.1123 5.50866 34.1123 7.3V7.5" stroke="#0032DA" stroke-linecap="round" />
  <path d="M30.1123 35.2617H30.3123C32.1036 35.2617 32.9993 35.2617 33.5558 34.7052C34.1123 34.1487 34.1123 33.2531 34.1123 31.4617V31.2617" stroke="#0032DA" stroke-linecap="round" />
  <path d="M6.52734 3.5H6.32734C4.53601 3.5 3.64034 3.5 3.08384 4.0565C2.52734 4.61299 2.52734 5.50866 2.52734 7.3V7.5" stroke="#0032DA" stroke-linecap="round" />
  <path d="M6.52734 35.2617H6.32734C4.53601 35.2617 3.64034 35.2617 3.08384 34.7052C2.52734 34.1487 2.52734 33.2531 2.52734 31.4617V31.2617" stroke="#0032DA" stroke-linecap="round" />
</svg>
  