<svg width="36" height="36" viewBox="0 0 36 36" fill="none" xmlns="http://www.w3.org/2000/svg">
  <rect x="0.538086" y="0.792969" width="35" height="35" rx="4" fill="#E9EEFF" />
  <g clip-path="url(#clip0_4319_111440)">
    <path d="M23.5381 27.293C22.6098 27.293 21.7196 26.9242 21.0632 26.2678C20.4068 25.6115 20.0381 24.7212 20.0381 23.793C20.0381 22.8647 20.4068 21.9745 21.0632 21.3181C21.7196 20.6617 22.6098 20.293 23.5381 20.293C24.4663 20.293 25.3566 20.6617 26.013 21.3181C26.6693 21.9745 27.0381 22.8647 27.0381 23.793C27.0381 24.7212 26.6693 25.6115 26.013 26.2678C25.3566 26.9242 24.4663 27.293 23.5381 27.293ZM23.5381 25.293C23.9359 25.293 24.3174 25.1349 24.5987 24.8536C24.88 24.5723 25.0381 24.1908 25.0381 23.793C25.0381 23.3951 24.88 23.0136 24.5987 22.7323C24.3174 22.451 23.9359 22.293 23.5381 22.293C23.1403 22.293 22.7587 22.451 22.4774 22.7323C22.1961 23.0136 22.0381 23.3951 22.0381 23.793C22.0381 24.1908 22.1961 24.5723 22.4774 24.8536C22.7587 25.1349 23.1403 25.293 23.5381 25.293ZM12.5381 16.293C12.0785 16.293 11.6233 16.2024 11.1987 16.0265C10.7741 15.8507 10.3882 15.5928 10.0632 15.2678C9.73821 14.9428 9.4804 14.557 9.30451 14.1324C9.12862 13.7077 9.03809 13.2526 9.03809 12.793C9.03809 12.3333 9.12862 11.8782 9.30451 11.4536C9.4804 11.0289 9.73821 10.6431 10.0632 10.3181C10.3882 9.99309 10.7741 9.73528 11.1987 9.55939C11.6233 9.3835 12.0785 9.29297 12.5381 9.29297C13.4663 9.29297 14.3566 9.66172 15.013 10.3181C15.6693 10.9745 16.0381 11.8647 16.0381 12.793C16.0381 13.7212 15.6693 14.6115 15.013 15.2678C14.3566 15.9242 13.4663 16.293 12.5381 16.293ZM12.5381 14.293C12.9359 14.293 13.3174 14.1349 13.5987 13.8536C13.8801 13.5723 14.0381 13.1908 14.0381 12.793C14.0381 12.3951 13.8801 12.0136 13.5987 11.7323C13.3174 11.451 12.9359 11.293 12.5381 11.293C12.1403 11.293 11.7587 11.451 11.4774 11.7323C11.1961 12.0136 11.0381 12.3951 11.0381 12.793C11.0381 13.1908 11.1961 13.5723 11.4774 13.8536C11.7587 14.1349 12.1403 14.293 12.5381 14.293ZM25.1091 9.80797L26.5231 11.222L10.9681 26.778L9.55409 25.364L25.1081 9.80797H25.1091Z" fill="#0032DA" />
  </g>
  <defs>
    <clipPath id="clip0_4319_111440">
      <rect width="24" height="24" fill="white" transform="translate(6.03809 6.29297)" />
    </clipPath>
  </defs>
</svg>
  