<svg width="38" height="39" viewBox="0 0 38 39" fill="none" xmlns="http://www.w3.org/2000/svg">
  <rect x="1.07227" y="1.46875" width="35" height="35" rx="4" fill="#E9EEFF" />
  <path d="M23.3166 15.1577C23.3166 15.9523 22.6723 16.5966 21.8776 16.5966C21.083 16.5966 20.4387 15.9523 20.4387 15.1577C20.4387 14.363 21.083 13.7188 21.8776 13.7188C22.6723 13.7188 23.3166 14.363 23.3166 15.1577Z" fill="#0032DA" stroke="#E9EEFF" />
  <path d="M23.3166 20.9077C23.3166 21.7023 22.6723 22.3466 21.8776 22.3466C21.083 22.3466 20.4387 21.7023 20.4387 20.9077C20.4387 20.113 21.083 19.4688 21.8776 19.4688C22.6723 19.4688 23.3166 20.113 23.3166 20.9077Z" fill="#0032DA" stroke="#E9EEFF" />
  <path d="M27.6334 7.96094H16.1221C15.3278 7.96094 14.6832 8.60556 14.6832 9.39986V13.7166H10.3664C9.57211 13.7166 8.92749 14.3612 8.92749 15.1555V29.5447C8.92749 30.339 9.57211 30.9836 10.3664 30.9836H27.6334C28.4277 30.9836 29.0723 30.339 29.0723 29.5447V9.39986C29.0723 8.60556 28.4277 7.96094 27.6334 7.96094ZM14.6832 28.1058H11.8053V16.5944H14.6832V28.1058ZM26.1945 28.1058H23.3167V26.6669C23.3167 25.8726 22.6721 25.228 21.8778 25.228C21.0835 25.228 20.4388 25.8726 20.4388 26.6669V28.1058H17.561V10.8388H26.1945V28.1058Z" fill="#0032DA" stroke="#E9EEFF" />
</svg>
  