<svg width="39" height="39" viewBox="0 0 39 39" fill="none" xmlns="http://www.w3.org/2000/svg">
  <rect x="2" y="1.28906" width="35" height="35" rx="4" fill="#E9EEFF" />
  <path d="M11.8405 21.245C11.7176 21.2451 11.5974 21.2817 11.4952 21.35C11.3931 21.4184 11.3134 21.5155 11.2665 21.6291C11.2195 21.7427 11.2072 21.8677 11.2313 21.9883C11.2553 22.1088 11.3145 22.2196 11.4015 22.3065C11.4884 22.3934 11.5992 22.4525 11.7198 22.4765C11.8404 22.5004 11.9654 22.4881 12.0789 22.441C12.1925 22.394 12.2896 22.3143 12.3579 22.2121C12.4262 22.1098 12.4626 21.9897 12.4626 21.8667C12.4626 21.785 12.4465 21.7042 12.4153 21.6287C12.384 21.5533 12.3382 21.4847 12.2804 21.427C12.2226 21.3692 12.154 21.3235 12.0786 21.2922C12.0031 21.261 11.9222 21.245 11.8405 21.245ZM11.8405 21.245C11.7176 21.2451 11.5974 21.2817 11.4952 21.35C11.3931 21.4184 11.3134 21.5155 11.2665 21.6291C11.2195 21.7427 11.2072 21.8677 11.2313 21.9883C11.2553 22.1088 11.3145 22.2196 11.4015 22.3065C11.4884 22.3934 11.5992 22.4525 11.7198 22.4765C11.8404 22.5004 11.9654 22.4881 12.0789 22.441C12.1925 22.394 12.2896 22.3143 12.3579 22.2121C12.4262 22.1098 12.4626 21.9897 12.4626 21.8667C12.4626 21.785 12.4465 21.7042 12.4153 21.6287C12.384 21.5533 12.3382 21.4847 12.2804 21.427C12.2226 21.3692 12.154 21.3235 12.0786 21.2922C12.0031 21.261 11.9222 21.245 11.8405 21.245ZM28.3788 16.4787L24.0091 14.7287C23.2849 14.4376 22.5116 14.2883 21.7311 14.2891H19.0528C18.0884 14.2906 17.1379 14.519 16.2781 14.9557L12.3197 16.9691L9.47964 17.3833C8.79132 17.4835 8.16205 17.8281 7.70678 18.3539C7.25151 18.8798 7.00064 19.5519 7 20.2475L7 21.9238C7 22.0482 7.04943 22.1676 7.13742 22.2556C7.22541 22.3436 7.34474 22.393 7.46918 22.393H9.48088C9.59941 22.9306 9.89797 23.4117 10.3271 23.7566C10.7563 24.1014 11.2904 24.2894 11.8409 24.2894C12.3915 24.2894 12.9256 24.1014 13.3547 23.7566C13.7839 23.4117 14.0825 22.9306 14.201 22.393H22.607C22.7257 22.9304 23.0243 23.4112 23.4534 23.7559C23.8825 24.1006 24.4164 24.2885 24.9668 24.2885C25.5172 24.2885 26.0511 24.1006 26.4802 23.7559C26.9094 23.4112 27.208 22.9304 27.3267 22.393H29.4655C29.5899 22.393 29.7092 22.3436 29.7972 22.2556C29.8852 22.1676 29.9346 22.0482 29.9346 21.9238V18.7779C29.9362 18.2827 29.7886 17.7985 29.5111 17.3883C29.2336 16.9781 28.839 16.661 28.3788 16.4783V16.4787ZM23.6603 15.5978L27.0354 16.95H24.4879L23.3674 15.4916C23.4655 15.5238 23.5631 15.5592 23.6603 15.5978ZM19.4936 15.2258H21.732C21.8153 15.2258 21.9024 15.2258 21.9866 15.232L23.3058 16.95H19.4932L19.4936 15.2258ZM16.704 15.7891C17.2823 15.4958 17.9103 15.3133 18.5557 15.2508V16.95H14.4206L16.704 15.7891ZM9.54172 18.3221C9.44529 18.6464 9.25436 18.9345 8.99332 19.1498C8.73229 19.365 8.413 19.4976 8.07627 19.5304C8.19903 19.2219 8.39772 18.9494 8.6539 18.7382C8.91009 18.5269 9.21547 18.3838 9.54172 18.3221ZM11.8409 23.3467C11.5484 23.3467 11.2624 23.26 11.0191 23.0975C10.7759 22.9349 10.5863 22.7039 10.4743 22.4336C10.3624 22.1633 10.3331 21.8659 10.3902 21.579C10.4472 21.292 10.5881 21.0285 10.795 20.8216C11.0019 20.6147 11.2654 20.4739 11.5524 20.4168C11.8393 20.3597 12.1367 20.389 12.407 20.501C12.6773 20.6129 12.9083 20.8025 13.0708 21.0458C13.2334 21.289 13.3201 21.575 13.3201 21.8676C13.3199 22.2598 13.1639 22.6359 12.8864 22.9131C12.609 23.1903 12.2328 23.346 11.8405 23.3459L11.8409 23.3467ZM24.9662 23.3467C24.6736 23.3467 24.3877 23.26 24.1444 23.0975C23.9012 22.9349 23.7116 22.7039 23.5996 22.4336C23.4876 22.1633 23.4584 21.8659 23.5154 21.579C23.5725 21.292 23.7134 21.0285 23.9203 20.8216C24.1271 20.6147 24.3907 20.4739 24.6776 20.4168C24.9646 20.3597 25.262 20.389 25.5323 20.501C25.8026 20.6129 26.0336 20.8025 26.1961 21.0458C26.3587 21.289 26.4454 21.575 26.4454 21.8676C26.4451 22.2595 26.2892 22.6354 26.012 22.9126C25.7349 23.1897 25.359 23.3456 24.967 23.3459L24.9662 23.3467ZM28.9955 21.4555H27.3479C27.2508 20.8943 26.9586 20.3855 26.5229 20.0188C26.0873 19.6521 25.5361 19.451 24.9666 19.451C24.3972 19.451 23.846 19.6521 23.4103 20.0188C22.9746 20.3855 22.6825 20.8943 22.5853 21.4555H14.2227C14.1258 20.8941 13.8337 20.385 13.3979 20.018C12.9622 19.651 12.4108 19.4498 11.8411 19.4498C11.2715 19.4498 10.7201 19.651 10.2844 20.018C9.84861 20.385 9.55652 20.8941 9.45963 21.4555H7.93794V20.4763C8.57431 20.4697 9.18683 20.2332 9.66258 19.8105C10.1383 19.3878 10.4453 18.8074 10.5267 18.1762L12.4989 17.8887H27.2258V18.4991C27.2263 18.9118 27.3904 19.3074 27.6821 19.5993C27.9739 19.8911 28.3695 20.0553 28.7821 20.0559H28.9963L28.9955 21.4555ZM28.9955 19.1179H28.7813C28.6173 19.1176 28.4602 19.0523 28.3443 18.9363C28.2284 18.8203 28.1632 18.6631 28.1629 18.4991V17.8887H28.713C28.8971 18.1488 28.9958 18.4597 28.9955 18.7783V19.1179ZM24.9662 21.2459C24.8432 21.2458 24.723 21.2822 24.6207 21.3504C24.5184 21.4187 24.4387 21.5158 24.3916 21.6294C24.3444 21.7429 24.3321 21.868 24.356 21.9886C24.3799 22.1092 24.4391 22.22 24.526 22.307C24.613 22.394 24.7237 22.4532 24.8444 22.4773C24.965 22.5013 25.09 22.489 25.2036 22.4419C25.3172 22.3949 25.4143 22.3152 25.4827 22.213C25.551 22.1107 25.5875 21.9905 25.5875 21.8676C25.5877 21.7027 25.5225 21.5446 25.4061 21.4279C25.2898 21.3111 25.1318 21.2454 24.967 21.245L24.9662 21.2459ZM11.8409 21.2459C11.718 21.246 11.5978 21.2825 11.4957 21.3508C11.3935 21.4192 11.3139 21.5163 11.2669 21.6299C11.2199 21.7435 11.2076 21.8685 11.2317 21.9891C11.2557 22.1097 11.3149 22.2204 11.4019 22.3073C11.4889 22.3942 11.5996 22.4534 11.7202 22.4773C11.8408 22.5013 11.9658 22.4889 12.0794 22.4419C12.1929 22.3948 12.29 22.3151 12.3583 22.2129C12.4266 22.1107 12.463 21.9905 12.463 21.8676C12.4631 21.7858 12.4471 21.7048 12.4159 21.6292C12.3846 21.5536 12.3388 21.485 12.2809 21.4271C12.2231 21.3693 12.1544 21.3235 12.0789 21.2922C12.0033 21.261 11.9223 21.2449 11.8405 21.245L11.8409 21.2459Z" fill="#0032DA" />
</svg>
  