<svg width="35" height="35" viewBox="0 0 35 35" fill="none" xmlns="http://www.w3.org/2000/svg">
  <rect width="35" height="35" rx="4" fill="#E9EEFF" />
  <path fill-rule="evenodd" clip-rule="evenodd" d="M17.898 23.304C19.381 22.5348 24.5 19.5163 24.5 14.5C24.5 10.634 21.366 7.5 17.5 7.5C13.634 7.5 10.5 10.634 10.5 14.5C10.5 19.5163 15.619 22.5348 17.102 23.304C17.3548 23.4351 17.6452 23.4351 17.898 23.304ZM17.5 17.5C19.1569 17.5 20.5 16.1569 20.5 14.5C20.5 12.8431 19.1569 11.5 17.5 11.5C15.8431 11.5 14.5 12.8431 14.5 14.5C14.5 16.1569 15.8431 17.5 17.5 17.5Z" fill="#0032DA" />
  <path d="M25.2942 23C26.0841 23.4561 26.5 23.9734 26.5 24.5C26.5 25.0266 26.0841 25.5439 25.2942 26C24.5043 26.4561 23.3682 26.8348 22 27.0981C20.6318 27.3614 19.0798 27.5 17.5 27.5C15.9202 27.5 14.3682 27.3614 13 27.0981C11.6318 26.8348 10.4957 26.4561 9.70577 26C8.91586 25.5439 8.5 25.0266 8.5 24.5C8.5 23.9734 8.91586 23.4561 9.70577 23" stroke="#CAD5F8" stroke-width="1.2" stroke-linecap="round" />
</svg>
  