<svg width="38" height="39" viewBox="0 0 38 39" fill="none" xmlns="http://www.w3.org/2000/svg">
<rect x="1.07227" y="1.46875" width="35" height="35" rx="4" fill="#E9EEFF"/>
<path d="M28.925 28.5781H8.21992C7.95566 28.5781 7.71155 28.7191 7.5795 28.9479C7.44746 29.1766 7.44746 29.4586 7.5795 29.6873C7.71155 29.9161 7.95567 30.0571 8.21992 30.0571H28.925C29.1892 30.0571 29.4333 29.9161 29.5654 29.6873C29.6974 29.4586 29.6974 29.1766 29.5654 28.9479C29.4333 28.7191 29.1892 28.5781 28.925 28.5781Z" fill="#0032DA"/>
<path d="M28.925 16.7486H26.7066V14.5302C26.7066 14.3341 26.6287 14.1459 26.49 14.0073C26.3514 13.8686 26.1632 13.7907 25.9671 13.7907H23.7487V8.61447C23.7487 8.41838 23.6708 8.23021 23.5322 8.09156C23.3935 7.95291 23.2053 7.875 23.0093 7.875H14.1357C13.9396 7.875 13.7514 7.95291 13.6128 8.09156C13.4741 8.23021 13.3962 8.41838 13.3962 8.61447V13.7907H11.1778C10.9817 13.7907 10.7935 13.8686 10.6549 14.0073C10.5162 14.1459 10.4383 14.3341 10.4383 14.5302V16.7486H8.21993C8.02385 16.7486 7.83567 16.8265 7.69703 16.9651C7.55838 17.1038 7.48047 17.292 7.48047 17.4881V26.3616C7.48047 26.6259 7.62143 26.87 7.8502 27.0021C8.07898 27.1341 8.3609 27.1341 8.58967 27.0021C8.81844 26.87 8.9594 26.6259 8.9594 26.3616V18.2275H10.4383V26.3616C10.4383 26.6259 10.5793 26.87 10.8081 27.0021C11.0368 27.1341 11.3188 27.1341 11.5475 27.0021C11.7763 26.87 11.9173 26.6259 11.9173 26.3616V15.2697H13.3962V26.3616C13.3962 26.6259 13.5372 26.87 13.7659 27.0021C13.9947 27.1341 14.2766 27.1341 14.5054 27.0021C14.7342 26.87 14.8751 26.6259 14.8751 26.3616V9.35393H17.833V26.3616C17.833 26.6259 17.974 26.87 18.2027 27.0021C18.4315 27.1341 18.7134 27.1341 18.9422 27.0021C19.171 26.87 19.3119 26.6259 19.3119 26.3616V9.35393H22.2698V26.3616C22.2698 26.6259 22.4107 26.87 22.6395 27.0021C22.8683 27.1341 23.1502 27.1341 23.379 27.0021C23.6078 26.87 23.7487 26.6259 23.7487 26.3616V15.2697H25.2277V26.3616C25.2277 26.6259 25.3686 26.87 25.5974 27.0021C25.8262 27.1341 26.1081 27.1341 26.3369 27.0021C26.5656 26.87 26.7066 26.6259 26.7066 26.3616V18.2275H28.1855V26.3616C28.1855 26.6259 28.3265 26.87 28.5553 27.0021C28.784 27.1341 29.0659 27.1341 29.2947 27.0021C29.5235 26.87 29.6644 26.6259 29.6644 26.3616V17.4881C29.6644 17.292 29.5865 17.1038 29.4479 16.9651C29.3092 16.8265 29.1211 16.7486 28.925 16.7486Z" fill="#0032DA"/>
</svg>
