<svg width="35" height="36" viewBox="0 0 35 36" fill="none" xmlns="http://www.w3.org/2000/svg">
  <rect y="0.390625" width="35" height="35" rx="4" fill="#E9EEFF" />
  <path d="M23.0307 12.8388H21.6845L21.2266 10.5438C21.1396 10.1083 20.9043 9.71646 20.5608 9.43493C20.2173 9.15339 19.7869 8.99981 19.3428 9H15.6576C15.214 9.00038 14.7841 9.15435 14.4411 9.43569C14.0984 9.71723 13.8635 10.1087 13.7767 10.5439L13.316 12.8388H11.9697C11.2549 12.8388 10.5692 13.1228 10.0639 13.6281C9.55845 14.1336 9.27441 14.8193 9.27441 15.5341V22.9838C9.27441 23.7836 9.5921 24.5508 10.1579 25.1166C10.7234 25.6821 11.4906 26 12.2906 26H22.7099C23.51 26 24.2772 25.6821 24.8427 25.1166C25.4085 24.5508 25.7262 23.7836 25.7262 22.9838V15.5341C25.7262 14.8193 25.4421 14.1336 24.9366 13.6281C24.4313 13.1228 23.7457 12.8388 23.0309 12.8388L23.0307 12.8388ZM15.3891 10.8646C15.4157 10.7349 15.531 10.6425 15.6634 10.6452H19.343C19.4754 10.6425 19.5907 10.7349 19.6171 10.8646L20.0065 12.8388H14.9942L15.3891 10.8646ZM24.081 22.9839C24.081 23.3475 23.9366 23.6962 23.6795 23.9534C23.4225 24.2105 23.0736 24.3549 22.71 24.3549H12.2907C11.9271 24.3549 11.5782 24.2105 11.3212 23.9534C11.0641 23.6962 10.9197 23.3475 10.9197 22.9839V19.1453H16.6778V21.3389H18.323V19.1453H24.0811L24.081 22.9839ZM10.9198 17.5001V15.5341C10.9199 15.2556 11.0303 14.9886 11.2267 14.791C11.4233 14.5935 11.6911 14.4827 11.9698 14.4839H23.031C23.3095 14.4839 23.5767 14.5946 23.7735 14.7916C23.9705 14.9884 24.081 15.2556 24.081 15.5341V17.5L10.9198 17.5001Z" fill="#0032DA" />
</svg>
  