<svg width="36" height="36" viewBox="0 0 36 36" fill="none" xmlns="http://www.w3.org/2000/svg">
  <rect x="0.0722656" y="0.46875" width="35" height="35" rx="4" fill="#E9EEFF" />
  <path d="M22.3166 14.1577C22.3166 14.9523 21.6723 15.5966 20.8776 15.5966C20.083 15.5966 19.4387 14.9523 19.4387 14.1577C19.4387 13.363 20.083 12.7188 20.8776 12.7188C21.6723 12.7188 22.3166 13.363 22.3166 14.1577Z" fill="#0032DA" stroke="#E9EEFF" />
  <path d="M22.3166 19.9077C22.3166 20.7023 21.6723 21.3466 20.8776 21.3466C20.083 21.3466 19.4387 20.7023 19.4387 19.9077C19.4387 19.113 20.083 18.4688 20.8776 18.4688C21.6723 18.4688 22.3166 19.113 22.3166 19.9077Z" fill="#0032DA" stroke="#E9EEFF" />
  <path d="M26.6334 6.96094H15.1221C14.3278 6.96094 13.6832 7.60556 13.6832 8.39986V12.7166H9.36641C8.57211 12.7166 7.92749 13.3612 7.92749 14.1555V28.5447C7.92749 29.339 8.57211 29.9836 9.36641 29.9836H26.6334C27.4277 29.9836 28.0723 29.339 28.0723 28.5447V8.39986C28.0723 7.60556 27.4277 6.96094 26.6334 6.96094ZM13.6832 27.1058H10.8053V15.5944H13.6832V27.1058ZM25.1945 27.1058H22.3167V25.6669C22.3167 24.8726 21.6721 24.228 20.8778 24.228C20.0835 24.228 19.4388 24.8726 19.4388 25.6669V27.1058H16.561V9.83877H25.1945V27.1058Z" fill="#0032DA" stroke="#E9EEFF" />
</svg>
  