<svg width="59" height="60" viewBox="0 0 59 60" fill="none" xmlns="http://www.w3.org/2000/svg">
    <path
        d="M13.2818 20.0947C13.2818 18.3351 13.9808 16.6475 15.2251 15.4033C16.4693 14.159 18.1569 13.46 19.9165 13.46C21.6762 13.46 23.3638 14.159 24.608 15.4033C25.8523 16.6475 26.5513 18.3351 26.5513 20.0947C26.5513 21.8543 25.8523 23.5419 24.608 24.7862C23.3638 26.0304 21.6762 26.7294 19.9165 26.7294C18.1569 26.7294 16.4693 26.0304 15.2251 24.7862C13.9808 23.5419 13.2818 21.8543 13.2818 20.0947ZM19.9165 10.5112C17.3749 10.5112 14.9373 11.5209 13.14 13.3182C11.3428 15.1154 10.3331 17.553 10.3331 20.0947C10.3331 22.6364 11.3428 25.074 13.14 26.8712C14.9373 28.6685 17.3749 29.6782 19.9165 29.6782C22.4582 29.6782 24.8958 28.6685 26.6931 26.8712C28.4903 25.074 29.5 22.6364 29.5 20.0947C29.5 17.553 28.4903 15.1154 26.6931 13.3182C24.8958 11.5209 22.4582 10.5112 19.9165 10.5112ZM36.6862 44.8496C38.2726 45.4983 40.2689 45.8964 42.7695 45.8964C48.3161 45.8964 51.3828 43.9266 52.9987 41.6679C53.8418 40.4825 54.3704 39.1027 54.535 37.6575C54.5498 37.5233 54.5596 37.3885 54.5645 37.2536V37.0501C54.5645 36.4692 54.4501 35.8941 54.2278 35.3574C54.0055 34.8208 53.6797 34.3332 53.269 33.9225C52.8583 33.5117 52.3707 33.1859 51.834 32.9636C51.2974 32.7414 50.7222 32.6269 50.1414 32.6269H36.4886C37.1963 33.4821 37.7271 34.4817 38.0367 35.5757H50.1414C50.5324 35.5757 50.9074 35.731 51.1839 36.0075C51.4604 36.284 51.6157 36.6591 51.6157 37.0501V37.2093L51.601 37.3568C51.4881 38.2917 51.1434 39.1837 50.5984 39.9517C49.6342 41.3052 47.5406 42.9476 42.7695 42.9476C40.611 42.9476 39.0009 42.6115 37.7949 42.119C37.5531 42.9447 37.2022 43.8765 36.6862 44.8496ZM4.43555 38.5245C4.43555 36.9604 5.05689 35.4603 6.16289 34.3543C7.26889 33.2483 8.76895 32.6269 10.3331 32.6269H29.5C31.0641 32.6269 32.5642 33.2483 33.6702 34.3543C34.7762 35.4603 35.3976 36.9604 35.3976 38.5245V38.7722C35.3976 38.8017 35.3976 38.84 35.3917 38.8901C35.3558 39.474 35.2719 40.0539 35.141 40.624C34.8904 41.7091 34.392 43.1599 33.3865 44.6166C31.3194 47.6067 27.3268 50.3195 19.9165 50.3195C12.5063 50.3195 8.51369 47.6067 6.4466 44.6166C5.35799 43.031 4.67921 41.2003 4.47093 39.2882C4.45331 39.1166 4.44151 38.9445 4.43555 38.7722V38.7073V38.5245ZM7.38431 38.7014V38.7545L7.40495 38.9992C7.56473 40.4128 8.06897 41.7655 8.87343 42.9388C10.3095 45.0147 13.3202 47.3708 19.9165 47.3708C26.5129 47.3708 29.5236 45.0147 30.9597 42.9388C31.7643 41.7656 32.2686 40.4128 32.4281 38.9992C32.4378 38.918 32.4437 38.8363 32.4458 38.7545L32.4488 38.7043V38.5245C32.4488 37.7424 32.1381 36.9924 31.5851 36.4394C31.0321 35.8864 30.2821 35.5757 29.5 35.5757H10.3331C9.55101 35.5757 8.80098 35.8864 8.24798 36.4394C7.69498 36.9924 7.38431 37.7424 7.38431 38.5245V38.7014ZM38.3463 22.3063C38.3463 21.1332 38.8123 20.0081 39.6418 19.1786C40.4713 18.3491 41.5964 17.8831 42.7695 17.8831C43.9426 17.8831 45.0676 18.3491 45.8971 19.1786C46.7266 20.0081 47.1926 21.1332 47.1926 22.3063C47.1926 23.4794 46.7266 24.6044 45.8971 25.4339C45.0676 26.2634 43.9426 26.7294 42.7695 26.7294C41.5964 26.7294 40.4713 26.2634 39.6418 25.4339C38.8123 24.6044 38.3463 23.4794 38.3463 22.3063ZM42.7695 14.9344C40.8143 14.9344 38.9392 15.7111 37.5567 17.0936C36.1742 18.4761 35.3976 20.3511 35.3976 22.3063C35.3976 24.2614 36.1742 26.1365 37.5567 27.519C38.9392 28.9015 40.8143 29.6782 42.7695 29.6782C44.7246 29.6782 46.5997 28.9015 47.9822 27.519C49.3647 26.1365 50.1414 24.2614 50.1414 22.3063C50.1414 20.3511 49.3647 18.4761 47.9822 17.0936C46.5997 15.7111 44.7246 14.9344 42.7695 14.9344Z"
        fill="white" />
</svg>
    