<svg width="28" height="27" viewBox="0 0 28 27" fill="none" xmlns="http://www.w3.org/2000/svg">
  <path
    d="M25.9816 19.6815V23.28C25.983 23.614 25.9146 23.9447 25.7807 24.2508C25.6469 24.5569 25.4506 24.8316 25.2045 25.0574C24.9583 25.2833 24.6677 25.4552 24.3513 25.5622C24.0348 25.6693 23.6995 25.709 23.3668 25.6789C19.6758 25.2779 16.1303 24.0166 13.0153 21.9965C10.1171 20.1549 7.65997 17.6978 5.81836 14.7996C3.79121 11.6704 2.52968 8.10773 2.13596 4.40014C2.10598 4.06845 2.1454 3.73414 2.25171 3.41852C2.35801 3.10289 2.52887 2.81286 2.75341 2.56688C2.97795 2.3209 3.25124 2.12438 3.55589 1.98981C3.86054 1.85524 4.18988 1.78559 4.52292 1.78527H8.12137C8.70348 1.77954 9.26782 1.98568 9.7092 2.36526C10.1506 2.74484 10.4389 3.27197 10.5203 3.84838C10.6722 4.99996 10.9539 6.13067 11.36 7.21892C11.5214 7.64825 11.5563 8.11483 11.4606 8.5634C11.3649 9.01196 11.1427 9.4237 10.8202 9.74983L9.29686 11.2732C11.0044 14.2761 13.4908 16.7625 16.4937 18.4701L18.0171 16.9467C18.3432 16.6242 18.755 16.402 19.2035 16.3063C19.6521 16.2106 20.1187 16.2456 20.548 16.407C21.6363 16.813 22.767 17.0947 23.9185 17.2466C24.5012 17.3288 25.0333 17.6223 25.4137 18.0712C25.7941 18.5202 25.9962 19.0933 25.9816 19.6815Z"
    stroke="#345CE2" stroke-width="2.39896" stroke-linecap="round" stroke-linejoin="round" />
</svg>