<svg width="38" height="39" viewBox="0 0 38 39" fill="#345CE2" xmlns="http://www.w3.org/2000/svg">
  <path d="M26.6965 30.3523L23.1691 26.8332C22.6793 26.3445 22.0156 26.07 21.3237 26.07C20.6318 26.07 19.9681 26.3445 19.4783 26.8332L17.9299 28.3816C14.3822 26.5213 11.4853 23.6245 9.62503 20.0767L11.1734 18.5283C11.6621 18.0385 11.9366 17.3749 11.9366 16.683C11.9366 15.991 11.6621 15.3274 11.1734 14.8376L7.64593 11.3101C7.15614 10.8214 6.49248 10.5469 5.80055 10.5469C5.10862 10.5469 4.44495 10.8214 3.95517 11.3101L1.13995 14.1253C-0.333822 15.5991 -0.380273 18.199 1.01045 21.4449C2.59497 24.8395 4.78974 27.9141 7.48546 30.5156C10.0869 33.2113 13.1615 35.406 16.5561 36.9906C17.8778 37.6043 19.3087 37.9479 20.7649 38.0012C21.3332 38.0297 21.9014 37.9434 22.4356 37.7475C22.9698 37.5517 23.4591 37.2502 23.8743 36.8611L26.6895 34.0458C26.9318 33.8035 27.1241 33.5158 27.2552 33.1992C27.3864 32.8825 27.4539 32.5432 27.4539 32.2005C27.4539 31.8577 27.3864 31.5184 27.2552 31.2017C27.1241 30.8851 26.9318 30.5974 26.6895 30.3551L26.6965 30.3523ZM25.1214 32.4637L22.3062 35.2789C21.5419 36.0432 19.7232 35.9151 17.4401 34.9368C14.3043 33.4682 11.4642 31.4373 9.06058 28.9447C6.56365 26.5443 4.52791 23.7066 3.0543 20.5722C2.06897 18.289 1.94792 16.4704 2.71225 15.7061L5.52747 12.8909C5.56303 12.8552 5.60527 12.827 5.65176 12.8077C5.69826 12.7884 5.7481 12.7785 5.79844 12.7785C5.84877 12.7785 5.89861 12.7884 5.94511 12.8077C5.9916 12.827 6.03384 12.8552 6.0694 12.8909L9.60251 16.4169C9.63813 16.4525 9.66639 16.4947 9.68567 16.5412C9.70496 16.5877 9.71488 16.6375 9.71488 16.6879C9.71488 16.7382 9.70496 16.7881 9.68567 16.8346C9.66639 16.8811 9.63813 16.9233 9.60251 16.9589L6.92804 19.6333L7.26446 20.3371C9.43128 24.9001 13.1066 28.5754 17.6695 30.7422L18.3733 31.0786L21.0478 28.4041C21.0834 28.3685 21.1256 28.3403 21.1721 28.321C21.2186 28.3017 21.2684 28.2918 21.3188 28.2918C21.3691 28.2918 21.4189 28.3017 21.4654 28.321C21.5119 28.3403 21.5542 28.3685 21.5897 28.4041L25.1172 31.9316C25.1528 31.9672 25.1811 32.0094 25.2004 32.0559C25.2197 32.1024 25.2296 32.1522 25.2296 32.2026C25.2296 32.2529 25.2197 32.3027 25.2004 32.3492C25.1811 32.3957 25.1528 32.438 25.1172 32.4735L25.1214 32.4637Z"  />
  <path d="M34.5656 2.8773C32.2863 1.01642 29.4341 0 26.4916 0C23.5491 0 20.6969 1.01642 18.4175 2.8773C17.3573 3.74449 16.5003 4.83382 15.9071 6.0684C15.3139 7.30298 14.9989 8.65272 14.9844 10.0223C14.9989 11.392 15.3139 12.7417 15.9071 13.9763C16.5003 15.2109 17.3573 16.3002 18.4175 17.1674C18.815 17.5075 19.2355 17.8198 19.6759 18.102C18.864 19.3266 17.9127 20.4527 16.841 21.4578C19.1184 21.2703 21.3423 20.6682 23.4033 19.6814C24.4148 19.9237 25.4515 20.0456 26.4916 20.0445C29.4398 20.0784 32.3032 19.058 34.5656 17.1674C35.6259 16.3002 36.4828 15.2109 37.076 13.9763C37.6693 12.7417 37.9842 11.392 37.9988 10.0223C37.9842 8.65272 37.6693 7.30298 37.076 6.0684C36.4828 4.83382 35.6259 3.74449 34.5656 2.8773ZM26.4916 17.8163C21.3749 17.8163 17.2126 14.3198 17.2126 10.0209C17.2126 5.72209 21.3749 2.22558 26.4916 2.22558C31.6083 2.22558 35.7706 5.72209 35.7706 10.0209C35.7706 14.3198 31.6097 17.8177 26.493 17.8177L26.4916 17.8163Z"  />
  <path d="M26.4967 11.5111C27.3169 11.5111 27.9818 10.8462 27.9818 10.026C27.9818 9.20589 27.3169 8.54102 26.4967 8.54102C25.6766 8.54102 25.0117 9.20589 25.0117 10.026C25.0117 10.8462 25.6766 11.5111 26.4967 11.5111Z"  />
  <path d="M21.3073 11.5111C22.1275 11.5111 22.7923 10.8462 22.7923 10.026C22.7923 9.20589 22.1275 8.54102 21.3073 8.54102C20.4871 8.54102 19.8223 9.20589 19.8223 10.026C19.8223 10.8462 20.4871 11.5111 21.3073 11.5111Z" />
  <path d="M31.694 11.5111C32.5142 11.5111 33.179 10.8462 33.179 10.026C33.179 9.20589 32.5142 8.54102 31.694 8.54102C30.8739 8.54102 30.209 9.20589 30.209 10.026C30.209 10.8462 30.8739 11.5111 31.694 11.5111Z" />
</svg>
  