<svg width="1440" height="496" viewBox="0 0 1440 496" fill="none" xmlns="http://www.w3.org/2000/svg">
  <mask id="mask0_766_34728" style="mask-type:alpha" maskUnits="userSpaceOnUse" x="0" y="0" width="1440" height="496">
    <rect y="0.601074" width="1440" height="495.399" fill="#4365D2" />
  </mask>
  <g mask="url(#mask0_766_34728)">
    <g opacity="0.1">
      <path opacity="0.6" d="M1491.71 26.1874C1488.7 23.0625 1485.04 20.649 1480.98 19.1234C1476.92 17.5978 1472.57 16.9984 1468.25 17.3689C1463.93 17.7395 1459.75 19.0707 1456.01 21.2653C1452.26 23.4599 1449.06 26.4626 1446.63 30.0542L1046.64 632.189C1013.32 609.562 973.972 597.491 933.707 597.546C894.047 597.447 855.237 609.055 822.136 630.917C789.035 652.78 763.113 683.926 747.614 720.458C732.114 756.99 727.724 797.284 734.996 836.3C742.267 875.315 760.876 911.319 788.492 939.804C816.109 968.289 851.506 987.991 890.257 996.444C929.008 1004.9 969.389 1001.73 1006.35 987.329C1043.31 972.931 1075.2 947.945 1098.04 915.498C1120.88 883.051 1133.65 844.584 1134.75 804.911L1507.37 247.697C1530.11 214.419 1540.93 174.425 1538.09 134.213C1535.25 94.0003 1518.9 55.9308 1491.71 26.1874ZM933.707 885.774C922.215 886.003 910.793 883.936 900.109 879.693C889.425 875.45 879.694 869.117 871.486 861.065C863.278 853.013 856.757 843.404 852.306 832.799C847.854 822.194 845.56 810.807 845.56 799.305C845.56 787.802 847.854 776.415 852.306 765.811C856.757 755.206 863.278 745.596 871.486 737.544C879.694 729.492 889.425 723.159 900.109 718.916C910.793 714.674 922.215 712.606 933.707 712.835C956.625 712.835 978.602 721.945 994.807 738.161C1011.01 754.377 1020.12 776.371 1020.12 799.305C1020.12 822.238 1011.01 844.232 994.807 860.448C978.602 876.664 956.625 885.774 933.707 885.774Z" fill="white" />
      <path opacity="0.8" d="M936.794 247.313L936.791 247.309C914.15 214.142 903.367 174.28 906.198 134.199C909.028 94.1199 925.305 56.1776 952.378 26.5361C955.329 23.466 958.926 21.0944 962.908 19.5945C966.891 18.0938 971.158 17.5035 975.399 17.8664C979.639 18.2293 983.748 19.5363 987.42 21.6922C991.091 23.8476 994.234 26.7971 996.623 30.3256C996.623 30.3263 996.624 30.3271 996.624 30.3278L1186.35 318.283L1085.3 469.615L936.794 247.313Z" fill="white" stroke="white" />
    </g>
  </g>
</svg>
