<svg width="36" height="36" viewBox="0 0 36 36" fill="none" xmlns="http://www.w3.org/2000/svg">
  <rect x="0.572266" y="0.46875" width="35" height="35" rx="4" fill="#E9EEFF"/>
  <path d="M11.821 22H10.446C9.35472 22 8.43805 22.8075 8.28524 23.877L8.13254 24.9463C8.08884 25.2301 8.30716 25.4702 8.59095 25.4702H13.6763C13.96 25.4702 14.1782 25.2301 14.1347 24.9463L13.9818 23.8988C13.829 22.8075 12.9123 22 11.8211 22H11.821Z" fill="#0032DA"/>
  <path d="M13.1303 19.486C13.1303 20.5829 12.2413 21.4721 11.1444 21.4721C10.0474 21.4721 9.1582 20.5829 9.1582 19.486C9.1582 18.3891 10.0474 17.5 11.1444 17.5C12.2413 17.5 13.1303 18.3891 13.1303 19.486Z" fill="#0032DA"/>
  <path d="M19.198 22H17.8229C16.7317 22 15.815 22.8075 15.6622 23.877L15.5095 24.9463C15.4658 25.2301 15.6841 25.4702 15.9679 25.4702H21.0532C21.337 25.4702 21.5552 25.2301 21.5116 24.9463L21.3588 23.8988C21.2059 22.8075 20.2893 22 19.198 22H19.198Z" fill="#0032DA"/>
  <path d="M20.486 19.486C20.486 20.5829 19.5967 21.4721 18.4998 21.4721C17.4029 21.4721 16.5137 20.5829 16.5137 19.486C16.5137 18.3891 17.4029 17.5 18.4998 17.5C19.5967 17.5 20.486 18.3891 20.486 19.486Z" fill="#0032DA"/>
  <path d="M28.714 23.8926C28.5612 22.8231 27.6446 22.0156 26.5533 22.0156H25.1783C24.087 22.0156 23.1703 22.8231 23.0175 23.8926L22.865 24.9402C22.8213 25.224 23.0396 25.464 23.3234 25.464H28.4087C28.6925 25.464 28.9106 25.2239 28.8671 24.9402L28.714 23.8926Z" fill="#0032DA"/>
  <path d="M27.8403 19.486C27.8403 20.5829 26.9511 21.4721 25.8542 21.4721C24.7572 21.4721 23.8682 20.5829 23.8682 19.486C23.8682 18.3891 24.7572 17.5 25.8542 17.5C26.9511 17.5 27.8403 18.3891 27.8403 19.486Z" fill="#0032DA"/>
  <path d="M18.3252 13.5085H18.7399C18.8928 13.5085 19.0237 13.574 19.1327 13.6831C19.2419 13.7923 19.2856 13.945 19.2636 14.0759C19.2419 14.3378 19.0018 14.5343 18.718 14.5343H18.1724C18.0195 14.5343 17.8886 14.4252 17.845 14.2725C17.8233 14.1852 17.7359 14.0978 17.6267 14.0978L16.9721 14.0977C16.9066 14.0977 16.8412 14.1195 16.7975 14.1632C16.7538 14.2069 16.732 14.2723 16.732 14.3378C16.7975 14.9926 17.2994 15.4945 17.9324 15.5819V16.1058C17.9324 16.2367 18.0416 16.3241 18.1508 16.3241H18.7619C18.8928 16.3241 18.9802 16.2149 18.9802 16.1058L18.98 15.5601C19.6785 15.4073 20.2022 14.8399 20.2677 14.1633C20.3114 13.7049 20.1585 13.2684 19.853 12.9411C19.5474 12.6138 19.1327 12.4173 18.6745 12.4173H18.1943C18.0415 12.4173 17.9105 12.3518 17.8015 12.2426C17.6924 12.1335 17.6487 11.9808 17.6706 11.8499C17.6924 11.588 17.9325 11.3915 18.2162 11.3915H18.7619C18.9147 11.3915 19.0456 11.5006 19.0892 11.6533C19.111 11.7625 19.1983 11.8279 19.3075 11.8279H20.0276C20.0931 11.8279 20.1586 11.8062 20.2022 11.7625C20.2459 11.7188 20.2677 11.6533 20.2677 11.5878C20.2023 10.933 19.7003 10.4311 19.0673 10.3437V9.81988C19.0673 9.68895 18.9581 9.60156 18.849 9.60156H18.2379C18.1069 9.60156 18.0195 9.71072 18.0195 9.81988V10.3655C17.212 10.5184 16.6664 11.2604 16.7319 12.0896C16.7538 12.8755 17.4958 13.5085 18.3252 13.5085L18.3252 13.5085Z" fill="#0032DA"/>
  <path d="M15.9026 12.9677C15.9026 12.7276 15.7062 12.5312 15.4662 12.5312H12.1706C11.3631 12.5312 10.6865 13.1861 10.6865 14.0153V15.9795C10.6865 16.2196 10.8829 16.416 11.123 16.416C11.3631 16.416 11.5595 16.2196 11.5595 15.9795V14.0153C11.5595 13.688 11.8213 13.426 12.1706 13.426H15.4662C15.7062 13.4042 15.9026 13.2078 15.9026 12.9677V12.9677Z" fill="#0032DA"/>
  <path d="M25.4181 14.0153V15.9795C25.4181 16.2196 25.6145 16.416 25.8545 16.416C26.0946 16.416 26.291 16.2196 26.291 15.9795V14.0153C26.291 13.2078 25.6362 12.5312 24.807 12.5312H21.5331C21.2931 12.5312 21.0967 12.7276 21.0967 12.9677C21.0967 13.2078 21.2931 13.4042 21.5331 13.4042H24.8287C25.1562 13.4042 25.4181 13.688 25.4181 14.0153V14.0153Z" fill="#0032DA"/>
  </svg>
