<svg width="86" height="86" viewBox="0 0 86 86" fill="none" xmlns="http://www.w3.org/2000/svg">
  <path d="M10.1151 17.9561L1.91406 17.8579" stroke="#333333" stroke-linecap="round" />
  <path d="M15.2042 7.26038L10.0059 0.916504" stroke="#333333" stroke-width="1.00025" stroke-linecap="round" />
  <path d="M65.7331 85.1495H20.4035C19.8332 85.1484 19.2865 84.9213 18.8833 84.5181C18.48 84.1148 18.253 83.5682 18.252 82.9979V21.4602C18.2525 20.8896 18.4793 20.3424 18.8826 19.9387C19.2859 19.535 19.8328 19.3077 20.4035 19.3066H65.7331C66.3037 19.3077 66.8506 19.535 67.2539 19.9387C67.6573 20.3424 67.884 20.8896 67.8846 21.4602V82.9959C67.884 83.5666 67.6573 84.1137 67.2539 84.5174C66.8506 84.9211 66.3037 85.1484 65.7331 85.1495Z" fill="white" stroke="#333333" />
  <path d="M68.2155 82.7427H22.8859C22.3156 82.7416 21.7689 82.5146 21.3657 82.1113C20.9624 81.7081 20.7354 81.1615 20.7344 80.5912V19.0535C20.7349 18.4828 20.9617 17.9357 21.365 17.532C21.7683 17.1283 22.3152 16.901 22.8859 16.8999H68.2155C68.7861 16.901 69.333 17.1283 69.7364 17.532C70.1397 17.9357 70.3665 18.4828 70.367 19.0535V80.5892C70.3665 81.1598 70.1397 81.707 69.7364 82.1107C69.333 82.5144 68.7861 82.7416 68.2155 82.7427Z" fill="white" stroke="#333333" />
  <path d="M70.9948 80.0232H25.6652C25.0949 80.0222 24.5482 79.7951 24.145 79.3919C23.7417 78.9886 23.5147 78.442 23.5137 77.8717V16.334C23.5142 15.7633 23.741 15.2162 24.1443 14.8125C24.5476 14.4088 25.0945 14.1815 25.6652 14.1804H70.9948C71.5654 14.1815 72.1123 14.4088 72.5157 14.8125C72.919 15.2162 73.1458 15.7633 73.1463 16.334V77.8697C73.1458 78.4403 72.919 78.9875 72.5157 79.3912C72.1123 79.7949 71.5654 80.0222 70.9948 80.0232Z" fill="white" stroke="#333333" />
  <path d="M73.8307 78.0425H28.5011C27.9308 78.0415 27.3842 77.8144 26.9809 77.4111C26.5777 77.0079 26.3507 76.4613 26.3496 75.891V14.3533C26.3501 13.7826 26.5769 13.2355 26.9802 12.8318C27.3836 12.4281 27.9305 12.2008 28.5011 12.1997H73.8307C74.4014 12.2008 74.9483 12.4281 75.3516 12.8318C75.7549 13.2355 75.9817 13.7826 75.9822 14.3533V75.889C75.9817 76.4596 75.7549 77.0068 75.3516 77.4105C74.9483 77.8142 74.4014 78.0415 73.8307 78.0425Z" fill="white" stroke="#333333" />
  <path d="M76.5241 75.9256H31.1945C30.6242 75.9245 30.0775 75.6975 29.6743 75.2942C29.271 74.8909 29.044 74.3444 29.043 73.7741V12.2363C29.0435 11.6657 29.2703 11.1185 29.6736 10.7148C30.0769 10.3111 30.6238 10.0838 31.1945 10.0828H76.5241C77.0947 10.0838 77.6416 10.3111 78.045 10.7148C78.4483 11.1185 78.6751 11.6657 78.6756 12.2363V73.772C78.6751 74.3427 78.4483 74.8898 78.045 75.2935C77.6416 75.6972 77.0947 75.9245 76.5241 75.9256Z" fill="white" stroke="#333333" />
  <path d="M79.7311 73.6997H34.4015C33.8312 73.6987 33.2846 73.4716 32.8813 73.0684C32.478 72.6651 32.2511 72.1185 32.25 71.5482V10.0105C32.2505 9.43986 32.4773 8.89271 32.8806 8.48901C33.2839 8.08531 33.8309 7.858 34.4015 7.85693H79.7311C80.3018 7.858 80.8487 8.08531 81.252 8.48901C81.6553 8.89271 81.8821 9.43986 81.8826 10.0105V71.5462C81.8821 72.1169 81.6553 72.664 81.252 73.0677C80.8487 73.4714 80.3018 73.6987 79.7311 73.6997Z" fill="white" stroke="#333333" />
  <path d="M33.4305 29.536C33.3315 29.5433 33.2362 29.5767 33.1543 29.6328C33.5714 29.6071 33.9859 29.5498 34.3944 29.4614L33.4305 29.536Z" fill="#2F2E41" />
  <path d="M56.9561 21.1979H44.1295C43.8605 21.1979 43.6025 21.0911 43.4123 20.9009C43.2221 20.7107 43.1152 20.4527 43.1152 20.1837C43.1152 19.9147 43.2221 19.6567 43.4123 19.4665C43.6025 19.2763 43.8605 19.1694 44.1295 19.1694H56.9561C57.2251 19.1694 57.483 19.2763 57.6733 19.4665C57.8635 19.6567 57.9704 19.9147 57.9704 20.1837C57.9704 20.4527 57.8635 20.7107 57.6733 20.9009C57.483 21.0911 57.2251 21.1979 56.9561 21.1979Z" fill="#E6E6E6" />
  <path d="M61.1471 24.6157H44.1344C43.8652 24.6157 43.6069 24.5088 43.4165 24.3184C43.2261 24.128 43.1191 23.8698 43.1191 23.6005C43.1191 23.3312 43.2261 23.073 43.4165 22.8826C43.6069 22.6921 43.8652 22.5852 44.1344 22.5852H61.1471C61.4164 22.5852 61.6746 22.6921 61.865 22.8826C62.0554 23.073 62.1623 23.3312 62.1623 23.6005C62.1623 23.8698 62.0554 24.128 61.865 24.3184C61.6746 24.5088 61.4164 24.6157 61.1471 24.6157Z" fill="#E6E6E6" />
  <path d="M73.6482 37.1389H41.7018C41.4327 37.1389 41.1748 37.032 40.9845 36.8418C40.7943 36.6516 40.6875 36.3937 40.6875 36.1247C40.6875 35.8557 40.7943 35.5977 40.9845 35.4075C41.1748 35.2172 41.4327 35.1104 41.7018 35.1104H73.6482C73.9172 35.1104 74.1752 35.2172 74.3654 35.4075C74.5556 35.5977 74.6625 35.8557 74.6625 36.1247C74.6625 36.3937 74.5556 36.6516 74.3654 36.8418C74.1752 37.032 73.9172 37.1389 73.6482 37.1389Z" fill="#E6E6E6" />
  <path d="M73.6482 32.4387H41.7018C41.4327 32.4387 41.1748 32.3318 40.9845 32.1416C40.7943 31.9514 40.6875 31.6935 40.6875 31.4245C40.6875 31.1555 40.7943 30.8975 40.9845 30.7073C41.1748 30.517 41.4327 30.4102 41.7018 30.4102H73.6482C73.9172 30.4102 74.1752 30.517 74.3654 30.7073C74.5556 30.8975 74.6625 31.1555 74.6625 31.4245C74.6625 31.6935 74.5556 31.9514 74.3654 32.1416C74.1752 32.3318 73.9172 32.4387 73.6482 32.4387Z" fill="#E6E6E6" />
  <path d="M73.6482 27.446H41.7018C41.4327 27.446 41.1748 27.3392 40.9845 27.1489C40.7943 26.9587 40.6875 26.7008 40.6875 26.4318C40.6875 26.1628 40.7943 25.9048 40.9845 25.7146C41.1748 25.5244 41.4327 25.4175 41.7018 25.4175H73.6482C73.9172 25.4175 74.1752 25.5244 74.3654 25.7146C74.5556 25.9048 74.6625 26.1628 74.6625 26.4318C74.6625 26.7008 74.5556 26.9587 74.3654 27.1489C74.1752 27.3392 73.9172 27.446 73.6482 27.446Z" fill="#E6E6E6" />
  <path d="M73.6482 21.4329H41.7018C41.4327 21.4329 41.1748 21.326 40.9845 21.1358C40.7943 20.9455 40.6875 20.6876 40.6875 20.4186C40.6875 20.1496 40.7943 19.8916 40.9845 19.7014C41.1748 19.5112 41.4327 19.4043 41.7018 19.4043H73.6482C73.9172 19.4043 74.1752 19.5112 74.3654 19.7014C74.5556 19.8916 74.6625 20.1496 74.6625 20.4186C74.6625 20.6876 74.5556 20.9455 74.3654 21.1358C74.1752 21.326 73.9172 21.4329 73.6482 21.4329Z" fill="#E6E6E6" />
  <path d="M73.6482 15.4885H41.7018C41.4327 15.4885 41.1748 15.3816 40.9845 15.1914C40.7943 15.0012 40.6875 14.7433 40.6875 14.4743C40.6875 14.2053 40.7943 13.9473 40.9845 13.7571C41.1748 13.5668 41.4327 13.46 41.7018 13.46H73.6482C73.9172 13.46 74.1752 13.5668 74.3654 13.7571C74.5556 13.9473 74.6625 14.2053 74.6625 14.4743C74.6625 14.7433 74.5556 15.0012 74.3654 15.1914C74.1752 15.3816 73.9172 15.4885 73.6482 15.4885Z" fill="#E6E6E6" />
  <path d="M56.9441 49.0571H24.9977C24.7284 49.0571 24.4702 48.9502 24.2798 48.7598C24.0894 48.5694 23.9824 48.3111 23.9824 48.0418C23.9824 47.7726 24.0894 47.5144 24.2798 47.324C24.4702 47.1336 24.7284 47.0266 24.9977 47.0266H56.9441C57.2134 47.0266 57.4716 47.1336 57.662 47.324C57.8524 47.5144 57.9594 47.7726 57.9594 48.0418C57.9594 48.3111 57.8524 48.5694 57.662 48.7598C57.4716 48.9502 57.2134 49.0571 56.9441 49.0571Z" fill="#E6E6E6" />
  <path d="M61.1254 52.481H24.9928C24.7238 52.481 24.4658 52.3741 24.2756 52.1839C24.0853 51.9937 23.9785 51.7358 23.9785 51.4668C23.9785 51.1978 24.0853 50.9397 24.2756 50.7495C24.4658 50.5593 24.7238 50.4524 24.9928 50.4524H61.1254C61.3944 50.4524 61.6524 50.5593 61.8426 50.7495C62.0328 50.9397 62.1396 51.1978 62.1396 51.4668C62.1396 51.7358 62.0328 51.9937 61.8426 52.1839C61.6524 52.3741 61.3944 52.481 61.1254 52.481Z" fill="#E6E6E6" />
  <path opacity="0.8" d="M69.1829 18.0802C69.0486 17.7161 68.8053 17.4023 68.4862 17.1814C68.1671 16.9606 67.7877 16.8435 67.3996 16.846L28.5161 17.1246C28.0169 17.1281 27.5395 17.3296 27.1888 17.6849C26.8381 18.0402 26.6428 18.5202 26.6459 19.0194L26.8565 48.8597C26.8608 49.3592 27.0629 49.8366 27.4186 50.1873C27.7743 50.5381 28.2545 50.7335 28.754 50.7308L67.6375 50.4522C68.137 50.4479 68.6144 50.2458 68.9652 49.8901C69.3159 49.5344 69.5113 49.0542 69.5086 48.5547L69.298 18.7144C69.2966 18.498 69.2576 18.2834 69.1829 18.0802Z" fill="#778FF7" />
  <path d="M62.8067 25.3977L39.5151 25.594C39.2145 25.5966 38.9728 25.8424 38.9753 26.1431C38.9778 26.4437 39.2236 26.6854 39.5243 26.6829L62.8159 26.4866C63.1166 26.484 63.3583 26.2382 63.3557 25.9375C63.3532 25.6369 63.1074 25.3952 62.8067 25.3977Z" fill="#333333" />
  <path d="M57.1199 28.9179L39.5308 29.0662C39.2301 29.0687 38.9884 29.3146 38.9909 29.6152C38.9935 29.9159 39.2393 30.1576 39.5399 30.1551L57.1291 30.0068C57.4298 30.0043 57.6715 29.7585 57.669 29.4578C57.6664 29.1571 57.4206 28.9154 57.1199 28.9179Z" fill="#333333" />
  <path d="M51.5815 32.4156L39.5112 32.5174C39.2105 32.5199 38.9689 32.7657 38.9714 33.0664C38.9739 33.3671 39.2197 33.6088 39.5204 33.6062L51.5907 33.5045C51.8913 33.502 52.133 33.2562 52.1305 32.9555C52.128 32.6548 51.8822 32.4131 51.5815 32.4156Z" fill="#333333" />
  <path d="M64.0184 40.6231C65.9427 39.6655 66.7262 37.3293 65.7686 35.4051C64.8109 33.4809 62.4747 32.6973 60.5505 33.6549C58.6263 34.6126 57.8427 36.9488 58.8004 38.873C59.758 40.7972 62.0942 41.5808 64.0184 40.6231Z" fill="#333333" />
  <path d="M79.5037 85.1495H6.13351C4.80352 85.114 3.54144 84.5543 2.62244 83.5922C1.70343 82.6301 1.202 81.3438 1.22749 80.0136V37.8317C1.202 36.5014 1.70343 35.2151 2.62244 34.253C3.54144 33.2909 4.80352 32.7312 6.13351 32.6958H15.1288C16.3601 32.6985 17.5427 33.1768 18.4298 34.0307L28.1853 41.3221C28.8104 41.9259 29.6451 42.2642 30.5143 42.2658H79.9654C80.6216 42.2685 81.2702 42.4057 81.8713 42.6689C82.4723 42.9321 83.013 43.3159 83.4599 43.7963C84.3892 44.794 84.8951 46.1131 84.8714 47.4763L84.4157 80.0842C84.4225 81.4033 83.9119 82.6724 82.9936 83.6194C82.0753 84.5664 80.8224 85.1157 79.5037 85.1495Z" fill="white" stroke="#333333" />
  <path d="M45.3868 70.6614H11.1416C10.7118 70.6614 10.3633 71.0099 10.3633 71.4397C10.3633 71.8696 10.7118 72.2181 11.1416 72.2181H45.3868C45.8167 72.2181 46.1652 71.8696 46.1652 71.4397C46.1652 71.0099 45.8167 70.6614 45.3868 70.6614Z" fill="#333333" />
  <path d="M28.2652 77.6665H11.1416C10.7118 77.6665 10.3633 78.015 10.3633 78.4448C10.3633 78.8747 10.7118 79.2232 11.1416 79.2232H28.2652C28.6951 79.2232 29.0436 78.8747 29.0436 78.4448C29.0436 78.015 28.6951 77.6665 28.2652 77.6665Z" fill="#333333" />
</svg>
