<svg width="36" height="36" viewBox="0 0 36 36" fill="none" xmlns="http://www.w3.org/2000/svg">
  <rect x="0.0722656" y="0.46875" width="35" height="35" rx="4" fill="#E9EEFF" />
  <path d="M27.455 16.8875C27.455 14.6474 26.7303 12.7367 25.6761 11.8143C25.9396 11.4849 26.1373 11.0237 26.1373 10.5625C26.1373 9.44244 25.2808 8.58594 24.1607 8.58594C23.0407 8.58594 22.1842 9.44244 22.1842 10.5625C22.1842 11.0237 22.3818 11.4849 22.6454 11.8143C22.2501 12.1437 21.8548 12.6708 21.5912 13.3297H13.5532C13.2897 12.6708 12.8944 12.1437 12.4991 11.8143C12.7626 11.4849 12.9603 11.0237 12.9603 10.5625C12.9603 9.44244 12.1038 8.58594 10.9837 8.58594C9.86366 8.58594 9.00716 9.44244 9.00716 10.5625C9.00716 11.0237 9.20481 11.4849 9.46835 11.8143C8.41419 12.7367 7.68945 14.6474 7.68945 16.9533C7.68945 17.3487 7.95299 17.6122 8.3483 17.6122H13.6191C14.0144 17.6122 14.278 17.3487 14.278 16.9533V16.8216C14.278 16.031 14.1462 15.3062 14.0144 14.6474H16.9134V19.3911C16.1227 19.6546 15.5957 20.3794 15.5957 21.2359C15.5957 21.6971 15.7933 22.1583 16.0569 22.4877C15.0027 23.476 14.278 25.3866 14.278 27.6926C14.278 28.0879 14.5415 28.3515 14.9368 28.3515H20.2076C20.6029 28.3515 20.8665 28.0879 20.8665 27.6926V27.5609C20.8665 25.3208 20.1417 23.4101 19.0876 22.5536C19.3511 22.2242 19.5488 21.763 19.5488 21.3018C19.5488 20.4453 19.0217 19.7205 18.2311 19.457V14.7133H21.13C20.9324 15.438 20.8665 16.2286 20.8665 17.0851C20.8665 17.4804 21.13 17.744 21.5253 17.744H26.7961C27.1914 17.744 27.455 17.4804 27.455 17.0851V16.8875ZM10.9837 9.90364C11.379 9.90364 11.6426 10.1672 11.6426 10.5625C11.6426 10.9578 11.379 11.2213 10.9837 11.2213C10.5884 11.2213 10.3249 10.8919 10.3249 10.5625C10.3249 10.1672 10.5884 9.90364 10.9837 9.90364ZM9.00716 16.2945C9.20481 14.1203 10.1272 12.539 10.9837 12.539C11.8402 12.539 12.7626 14.1203 12.9603 16.3604H9.00716V16.2945ZM17.5722 20.577C17.9675 20.577 18.2311 20.8406 18.2311 21.2359C18.2311 21.6312 17.9675 21.8947 17.5722 21.8947C17.1769 21.8947 16.9134 21.6312 16.9134 21.2359C16.9134 20.9065 17.1769 20.577 17.5722 20.577ZM19.5488 27.0338H15.5957C15.7274 24.7937 16.7157 23.2124 17.5722 23.2124C18.4287 23.2124 19.3511 24.7937 19.5488 27.0338ZM24.1607 9.90364C24.556 9.90364 24.8196 10.1672 24.8196 10.5625C24.8196 10.9578 24.556 11.2213 24.1607 11.2213C23.7654 11.2213 23.5019 10.9578 23.5019 10.5625C23.5019 10.1672 23.7654 9.90364 24.1607 9.90364ZM22.1842 16.3604C22.3818 14.1203 23.3042 12.539 24.1607 12.539C25.0172 12.539 25.9396 14.1203 26.1373 16.3604H22.1842Z" fill="#0032DA" />
</svg>
