<svg width="35" height="36" viewBox="0 0 35 36" fill="none" xmlns="http://www.w3.org/2000/svg">
  <rect y="0.46875" width="35" height="35" rx="4" fill="#E9EEFF"/>
  <path d="M27.8527 27.1094H7.14766C6.8834 27.1094 6.63929 27.2503 6.50724 27.4791C6.37519 27.7079 6.37519 27.9898 6.50724 28.2186C6.63929 28.4473 6.88341 28.5883 7.14766 28.5883H27.8527C28.117 28.5883 28.3611 28.4474 28.4931 28.2186C28.6252 27.9898 28.6252 27.7079 28.4931 27.4791C28.3611 27.2503 28.117 27.1094 27.8527 27.1094Z" fill="#0032DA"/>
  <path d="M27.8527 15.2798H25.6343V13.0614C25.6343 12.8654 25.5564 12.6772 25.4178 12.5385C25.2791 12.3999 25.0909 12.322 24.8949 12.322H22.6765V7.14572C22.6765 6.94963 22.5985 6.76146 22.4599 6.62281C22.3212 6.48416 22.1331 6.40625 21.937 6.40625H13.0634C12.8673 6.40625 12.6791 6.48416 12.5405 6.62281C12.4018 6.76146 12.3239 6.94963 12.3239 7.14572V12.322H10.1055C9.90944 12.322 9.72127 12.3999 9.58263 12.5385C9.44398 12.6772 9.36607 12.8654 9.36607 13.0614V15.2798H7.14767C6.95158 15.2798 6.76341 15.3578 6.62476 15.4964C6.48611 15.635 6.4082 15.8232 6.4082 16.0193V24.8929C6.4082 25.1572 6.54916 25.4013 6.77794 25.5333C7.00671 25.6654 7.28863 25.6654 7.5174 25.5333C7.74617 25.4013 7.88714 25.1572 7.88714 24.8929V16.7588H9.36607V24.8929C9.36607 25.1572 9.50703 25.4013 9.7358 25.5333C9.96457 25.6654 10.2465 25.6654 10.4753 25.5333C10.704 25.4013 10.845 25.1572 10.845 24.8929V13.8009H12.3239V24.8929C12.3239 25.1572 12.4649 25.4013 12.6937 25.5333C12.9224 25.6654 13.2044 25.6654 13.4331 25.5333C13.6619 25.4013 13.8029 25.1572 13.8029 24.8929V7.88518H16.7607V24.8929C16.7607 25.1572 16.9017 25.4013 17.1305 25.5333C17.3592 25.6654 17.6412 25.6654 17.8699 25.5333C18.0987 25.4013 18.2397 25.1572 18.2397 24.8929V7.88518H21.1975V24.8929C21.1975 25.1572 21.3385 25.4013 21.5673 25.5333C21.796 25.6654 22.078 25.6654 22.3067 25.5333C22.5355 25.4013 22.6765 25.1572 22.6765 24.8929V13.8009H24.1554V24.8929C24.1554 25.1572 24.2963 25.4013 24.5251 25.5333C24.7539 25.6654 25.0358 25.6654 25.2646 25.5333C25.4934 25.4013 25.6343 25.1572 25.6343 24.8929V16.7588H27.1133V24.8929C27.1133 25.1572 27.2542 25.4013 27.483 25.5333C27.7118 25.6654 27.9937 25.6654 28.2225 25.5333C28.4512 25.4013 28.5922 25.1572 28.5922 24.8929V16.0193C28.5922 15.8232 28.5143 15.635 28.3756 15.4964C28.237 15.3578 28.0488 15.2798 27.8527 15.2798Z" fill="#0032DA"/>
  </svg>
