<svg width="181" height="131" viewBox="0 0 181 131" fill="none" xmlns="http://www.w3.org/2000/svg">
  <path d="M1.63651 121.88C9.25536 113.911 15.2416 106.485 19.5952 99.6017C23.9488 92.7189 26.1256 87.104 26.1256 82.7569C26.1256 80.2211 25.2186 77.8665 23.4046 75.6929C21.9534 73.5194 19.5952 71.1648 16.33 68.629C11.2508 64.6442 7.25995 60.4782 4.35753 56.1312C1.45512 51.7841 0.00390625 45.988 0.00390625 38.7429C0.00390625 27.513 3.45051 18.4567 10.3437 11.5738C17.237 4.32873 25.9442 0.706177 36.4655 0.706177C47.7124 0.706177 56.7824 4.32873 63.6757 11.5738C70.9317 18.4567 74.5597 27.513 74.5597 38.7429C74.5597 52.8709 68.5735 68.4478 56.601 85.4738C44.9914 102.138 29.3909 116.99 9.79955 130.031L1.63651 121.88ZM107.212 121.88C114.831 113.911 120.817 106.485 125.171 99.6017C129.524 92.7189 131.701 87.104 131.701 82.7569C131.701 80.2211 130.794 77.8665 128.98 75.6929C127.529 73.5194 125.171 71.1648 121.905 68.629C116.826 64.6442 112.835 60.4782 109.933 56.1312C107.031 51.7841 105.579 45.988 105.579 38.7429C105.579 27.513 109.026 18.4567 115.919 11.5738C122.812 4.32873 131.52 0.706177 142.041 0.706177C153.288 0.706177 162.358 4.32873 169.251 11.5738C176.507 18.4567 180.135 27.513 180.135 38.7429C180.135 52.8709 174.149 68.4478 162.176 85.4738C150.567 102.138 134.966 116.99 115.375 130.031L107.212 121.88Z" fill="#EDF0FD" />
</svg>
