<svg width="25" height="26" viewBox="0 0 25 26" fill="none" xmlns="http://www.w3.org/2000/svg">
  <path d="M13.1094 6.71285L14.3557 8.90141L17.3399 9.20872V6.94277L14.7335 5.33008L13.1094 6.71285Z" fill="#E9EEFF" />
  <path d="M13.0882 8.5305L12.0808 6.55684L14.5651 4.37477L18.3013 6.56799L17.6848 9.84654L15.5001 9.94635C17.7103 11.9605 18.3529 15.2496 16.8694 17.8621C15.157 20.8777 11.2597 21.8498 8.16465 20.0329C5.06957 18.216 3.94877 14.2984 5.66126 11.2826C7.14467 8.6702 10.2674 7.59152 13.0882 8.5305V8.5305ZM8.68151 19.1225C11.2606 20.6365 14.5082 19.8265 15.9351 17.3136C17.362 14.8007 16.4281 11.536 13.8491 10.0221C11.2701 8.50814 8.0224 9.31806 6.59547 11.831C5.16853 14.3439 6.10252 17.6086 8.68151 19.1225ZM13.4035 6.83761L14.4703 8.92799L16.7842 8.82216L17.1111 7.08277L14.7216 5.68006L13.4035 6.83761Z" fill="#3F65E4" />
</svg>
