<svg width="25" height="25" viewBox="0 0 25 25" fill="none" xmlns="http://www.w3.org/2000/svg">
  <rect x="9.48828" y="13.5742" width="6.06648" height="7" rx="2" fill="#E9EEFF" />
  <path d="M5.94971 10.5742V18.0742C5.94971 19.017 5.94971 19.4884 6.2426 19.7813C6.53549 20.0742 7.0069 20.0742 7.94971 20.0742H17.0938C18.0366 20.0742 18.508 20.0742 18.8009 19.7813C19.0938 19.4884 19.0938 19.017 19.0938 18.0742V10.5742" stroke="#3F65E4" stroke-width="1.5" />
  <path d="M21.1159 12.0742L13.0941 6.47387C12.7502 6.23379 12.2931 6.23379 11.9492 6.47387L3.92749 12.0742" stroke="#3F65E4" stroke-width="1.5" stroke-linecap="round" />
  <path d="M15.0493 19.5742V15.5742C15.0493 14.4696 14.1539 13.5742 13.0493 13.5742H11.9939C10.8893 13.5742 9.9939 14.4696 9.9939 15.5742V19.5742" stroke="#3F65E4" stroke-width="1.5" stroke-linejoin="round" />
  <path d="M18.0825 9.57422V6.07422" stroke="#3F65E4" stroke-width="1.5" stroke-linecap="round" />
</svg>
