<svg width="23" height="24" viewBox="0 0 23 24" fill="none" xmlns="http://www.w3.org/2000/svg">
  <path d="M17.8007 18.2588C18.9182 15.2115 15.2987 9.98159 13.013 7.99219H9.40044C6.73391 10.5319 4.56643 13.4263 4.43945 17.3628C5.05201 21.2214 15.388 20.6712 17.8007 18.2588Z" fill="#E9EEFF" />
  <path d="M8.02544 21.2682H14.5518C14.638 21.2682 16.6752 21.2516 17.8734 19.8088C18.5623 18.979 18.8308 17.8698 18.6713 16.5122C18.1909 12.4336 14.8291 9.03922 13.4977 8.00832L15.1331 5.78665C15.1616 5.74799 15.1851 5.70497 15.2024 5.65958C15.4315 5.05344 15.1538 4.36005 14.5821 4.11333L13.862 3.8059C13.8199 3.13642 13.2945 2.60547 12.6542 2.60547H9.92207C9.28256 2.60547 8.75761 3.13615 8.71553 3.8055L7.99372 4.11359C7.42237 4.35967 7.14468 5.05329 7.37458 5.65984C7.39184 5.70536 7.41505 5.74798 7.44347 5.78637L9.0796 8.00805C7.74844 9.03918 4.38553 12.435 3.90506 16.5116C3.74531 17.8696 4.01417 18.9787 4.70333 19.8085C5.90179 21.2513 7.93948 21.268 8.02528 21.268L8.02544 21.2682ZM8.36171 5.08251L9.08822 4.77244L9.64555 5.87063C9.73455 6.04611 9.90374 6.14507 10.0783 6.14507C10.1572 6.14507 10.2373 6.12515 10.3111 6.08253C10.5499 5.9457 10.6392 5.62852 10.5102 5.37492L9.75168 3.88011C9.73939 3.85623 9.7245 3.83499 9.7096 3.8144C9.74088 3.72019 9.82491 3.65039 9.92236 3.65039H12.6548C12.7582 3.65039 12.8479 3.72798 12.8744 3.83063L12.8461 3.91996L12.1075 5.37504C11.9788 5.6289 12.0678 5.94582 12.307 6.08265C12.3811 6.12527 12.4609 6.1452 12.5395 6.1452C12.7145 6.1452 12.8837 6.0461 12.9722 5.87075L13.5224 4.78668L14.2141 5.08224C14.2687 5.10573 14.3022 5.16497 14.3 5.22447L12.5557 7.59328C12.1784 7.54512 11.6945 7.53193 11.2886 7.53193C10.8831 7.53193 10.3995 7.54499 10.0216 7.59328L8.2769 5.22447C8.27454 5.1647 8.30768 5.10559 8.36168 5.0825L8.36171 5.08251ZM4.88024 16.642C5.39439 12.2799 9.55143 8.85449 9.90797 8.67074C10.0168 8.63142 10.5171 8.57613 11.2884 8.57613C12.0598 8.57613 12.5602 8.63142 12.6569 8.66506C13.0263 8.85467 17.1825 12.2779 17.6964 16.6417C17.8194 17.6879 17.6318 18.5202 17.1387 19.1153C16.2343 20.207 14.5682 20.2236 14.5516 20.2236L8.02525 20.2237C8.0085 20.2237 6.3427 20.2071 5.43818 19.1154C4.945 18.5201 4.75707 17.688 4.88011 16.6419L4.88024 16.642Z" fill="#3F65E4" />
  <path d="M9.50293 13.6184C9.50205 13.2165 9.63455 12.8268 9.87779 12.5161C10.121 12.2055 10.4599 11.9933 10.836 11.916V11.5491C10.836 11.2878 11.0379 11.0762 11.2869 11.0762C11.536 11.0762 11.7379 11.2878 11.7379 11.5491V11.9273C12.2763 12.0725 12.7189 12.4736 12.9339 13.0113C13.0211 13.2498 12.9118 13.5181 12.6869 13.6168C12.4622 13.7155 12.2032 13.609 12.1023 13.3762C12.0353 13.208 11.9223 13.0643 11.7776 12.9634C11.6327 12.8623 11.4626 12.8086 11.2887 12.8089C10.863 12.8089 10.4066 13.0623 10.4066 13.6185C10.4066 13.7642 10.4066 14.203 11.3898 14.4395H11.4042C12.8474 14.7932 13.0728 15.6803 13.0728 16.1778C13.0737 16.5797 12.9411 16.9694 12.6979 17.28C12.4546 17.5906 12.1159 17.8028 11.7397 17.8801V18.2585C11.7397 18.5196 11.5379 18.7314 11.2887 18.7314C11.0397 18.7314 10.8377 18.5196 10.8377 18.2585V17.8801C10.2993 17.7349 9.85679 17.3338 9.64187 16.7963C9.59129 16.6798 9.58802 16.5469 9.63244 16.4279C9.67698 16.3088 9.76569 16.2138 9.87818 16.1643C9.99067 16.1149 10.1175 16.1155 10.2296 16.1657C10.3417 16.216 10.4297 16.3118 10.4733 16.4312C10.5407 16.5996 10.654 16.7434 10.7991 16.8443C10.9442 16.9454 11.1146 16.9991 11.2887 16.9987C11.7144 16.9987 12.1708 16.7452 12.1708 16.1891C12.1708 16.0434 12.1708 15.6045 11.1876 15.3681H11.1732C9.71935 15.005 9.50293 14.1178 9.50293 13.6184Z" fill="#3F65E4" />
</svg>
