<svg width="25" height="25" viewBox="0 0 25 25" fill="none" xmlns="http://www.w3.org/2000/svg">
  <ellipse cx="18.0609" cy="18.0742" rx="2.5277" ry="2.5" fill="#E9EEFF" />
  <ellipse cx="8.9613" cy="18.0742" rx="2.5277" ry="2.5" fill="#E9EEFF" />
  <path d="M17.7329 14.7538C16.3356 14.7538 15.1046 15.5764 14.6388 16.761L14.0067 15.8068L19.2635 7.81081C19.4631 7.51466 19.3633 7.15274 19.0639 6.95531C18.7645 6.79082 18.3652 6.85659 18.1656 7.15274L13.2416 14.6552L8.35087 7.15274C8.15125 6.88954 7.75201 6.79082 7.45258 6.95531C7.11985 7.15274 7.05334 7.51478 7.21966 7.81092L12.4762 15.8069L11.844 16.7611C11.345 15.5765 10.1473 14.7539 8.74994 14.7539C6.92006 14.7539 5.42285 16.1688 5.42285 17.8798C5.42285 19.5909 6.92 21.0057 8.74994 21.0057C10.114 21.0057 11.2785 20.2489 11.7776 19.163L13.2082 16.9583L14.6389 19.163C15.1712 20.2489 16.3357 21.0057 17.6665 21.0057C19.4964 21.0057 20.9936 19.5907 20.9936 17.8798C20.9935 16.1688 19.563 14.7539 17.733 14.7539L17.7329 14.7538ZM8.75005 19.8213C7.61884 19.8213 6.72055 18.9658 6.72055 17.9127C6.72055 16.8598 7.61884 16.0042 8.75005 16.0042C9.88127 16.0042 10.7796 16.8597 10.7796 17.9127C10.7796 18.9658 9.88127 19.8213 8.75005 19.8213ZM17.7329 19.8213C16.6017 19.8213 15.7034 18.9658 15.7034 17.9127C15.7034 16.8598 16.6017 16.0042 17.7329 16.0042C18.8642 16.0042 19.7624 16.8597 19.7624 17.9127C19.7624 18.9658 18.8308 19.8213 17.7329 19.8213Z" fill="#3F65E4" />
  <path d="M12.9758 10.6087V10.1481C12.4102 10.0823 11.9112 9.81901 11.4453 9.45708L12.0442 8.76607C12.3769 9.02928 12.6763 9.22671 12.9758 9.2926V8.37121C12.51 8.27249 12.1773 8.108 11.9777 7.9434C11.778 7.74597 11.6449 7.48277 11.6449 7.15367C11.6449 6.79175 11.778 6.52844 12.0109 6.29817C12.2438 6.0678 12.5765 5.90331 12.9758 5.87037V5.57422H13.6744V5.87037C14.107 5.93614 14.5394 6.10074 14.972 6.36395L14.4396 7.0879C14.1735 6.89047 13.9072 6.79175 13.6744 6.72598V7.61442C14.1402 7.71314 14.5062 7.87763 14.7058 8.07506C14.9388 8.27249 15.0386 8.5357 15.0386 8.89773C15.0386 9.25965 14.9055 9.52297 14.6726 9.75323C14.4065 9.98361 14.0738 10.1152 13.6745 10.1481V10.5759H12.9758V10.6087ZM12.9758 6.72609C12.7761 6.79187 12.7096 6.89058 12.7096 7.05518C12.7096 7.21967 12.8095 7.35133 12.9758 7.4171V6.72609ZM14.0071 8.96362C14.0071 8.8649 13.9737 8.79913 13.9406 8.73324C13.9072 8.66747 13.8074 8.63453 13.6744 8.56875V9.32554C13.8741 9.25977 14.0071 9.12811 14.0071 8.96362Z" fill="#3F65E4" />
</svg>
