<svg width="25" height="25" viewBox="0 0 25 25" fill="none" xmlns="http://www.w3.org/2000/svg">
  <path d="M13.523 7.57422V3.57422H9.43433C7.54871 3.57422 6.6059 3.57422 6.02011 4.16001C5.43433 4.74579 5.43433 5.6886 5.43433 7.57422V17.5742C5.43433 19.4598 5.43433 20.4026 6.02011 20.9884C6.6059 21.5742 7.54871 21.5742 9.43433 21.5742H15.5895C17.4751 21.5742 18.4179 21.5742 19.0037 20.9884C19.5895 20.4026 19.5895 19.4598 19.5895 17.5742V9.57422H15.5451C14.5919 9.57422 14.1152 9.57422 13.8191 9.28133C13.523 8.98843 13.523 8.51703 13.523 7.57422Z" fill="#E9EEFF" />
  <path d="M13.6964 3.57422H9.47865C7.57214 3.57422 6.61888 3.57422 6.0266 4.16001C5.43433 4.74579 5.43433 5.6886 5.43433 7.57422V17.5742C5.43433 19.4598 5.43433 20.4026 6.0266 20.9884C6.61888 21.5742 7.57214 21.5742 9.47865 21.5742H15.5451C17.4516 21.5742 18.4049 21.5742 18.9972 20.9884C19.5895 20.4026 19.5895 19.4598 19.5895 17.5742V9.40265C19.5895 8.9939 19.5895 8.78952 19.5125 8.60575C19.4355 8.42198 19.2894 8.27746 18.9972 7.98843L15.1263 4.16001C14.8341 3.87097 14.688 3.72646 14.5022 3.65034C14.3164 3.57422 14.1097 3.57422 13.6964 3.57422Z" stroke="#3F65E4" stroke-width="1.2" />
  <path d="M13.5229 3.57422V7.57422C13.5229 8.51703 13.5229 8.98843 13.8191 9.28133C14.1152 9.57422 14.5919 9.57422 15.5451 9.57422H19.5894" stroke="#3F65E4" stroke-width="1.2" />
</svg>
