<svg width="25" height="26" viewBox="0 0 25 26" fill="none" xmlns="http://www.w3.org/2000/svg">
  <path fill-rule="evenodd" clip-rule="evenodd" d="M13.1545 20.9326C14.6551 20.1411 19.8287 17.0383 19.8287 11.8824C19.8287 7.90811 16.66 4.68628 12.7511 4.68628C8.84232 4.68628 5.67358 7.90811 5.67358 11.8824C5.67358 17.0383 10.8472 20.1411 12.3477 20.9326C12.6035 21.0675 12.8987 21.0675 13.1545 20.9326ZM12.7511 14.9665C14.4264 14.9665 15.7844 13.5857 15.7844 11.8824C15.7844 10.1792 14.4264 8.79837 12.7511 8.79837C11.0759 8.79837 9.71791 10.1792 9.71791 11.8824C9.71791 13.5857 11.0759 14.9665 12.7511 14.9665Z" fill="#E9EEFF" />
  <path d="M13.1545 20.9326L13.4345 21.4633L13.4345 21.4633L13.1545 20.9326ZM12.3477 20.9326L12.6277 20.4019L12.6277 20.4019L12.3477 20.9326ZM19.2287 11.8824C19.2287 14.2466 18.0443 16.1692 16.6247 17.6253C15.2052 19.0813 13.5976 20.0205 12.8746 20.4019L13.4345 21.4633C14.2121 21.0532 15.9415 20.0452 17.484 18.463C19.0263 16.8809 20.4287 14.6741 20.4287 11.8824H19.2287ZM12.7511 5.28628C16.3192 5.28628 19.2287 8.23004 19.2287 11.8824H20.4287C20.4287 7.58618 17.0007 4.08628 12.7511 4.08628V5.28628ZM6.27358 11.8824C6.27358 8.23004 9.18305 5.28628 12.7511 5.28628V4.08628C8.50158 4.08628 5.07358 7.58618 5.07358 11.8824H6.27358ZM12.6277 20.4019C11.9047 20.0205 10.297 19.0813 8.87757 17.6253C7.458 16.1692 6.27358 14.2466 6.27358 11.8824H5.07358C5.07358 14.6741 6.47595 16.8809 8.01832 18.463C9.56077 20.0452 11.2902 21.0532 12.0678 21.4633L12.6277 20.4019ZM12.8746 20.4019C12.794 20.4444 12.7083 20.4444 12.6277 20.4019L12.0678 21.4633C12.4988 21.6906 13.0035 21.6906 13.4345 21.4633L12.8746 20.4019ZM15.1844 11.8824C15.1844 13.2638 14.0856 14.3665 12.7511 14.3665V15.5665C14.7671 15.5665 16.3844 13.9077 16.3844 11.8824H15.1844ZM12.7511 9.39837C14.0856 9.39837 15.1844 10.5011 15.1844 11.8824H16.3844C16.3844 9.85722 14.7671 8.19837 12.7511 8.19837V9.39837ZM10.3179 11.8824C10.3179 10.5011 11.4167 9.39837 12.7511 9.39837V8.19837C10.7352 8.19837 9.11791 9.85722 9.11791 11.8824H10.3179ZM12.7511 14.3665C11.4167 14.3665 10.3179 13.2638 10.3179 11.8824H9.11791C9.11791 13.9077 10.7352 15.5665 12.7511 15.5665V14.3665Z" fill="#3F65E4" />
</svg>
