<svg width="982" height="856" viewBox="0 0 982 856" fill="none" xmlns="http://www.w3.org/2000/svg">
  <mask id="mask0_1204_49933" style="mask-type:alpha" maskUnits="userSpaceOnUse" x="0" y="0" width="1000" height="857">
    <rect x="0.193848" y="0.345703" width="999.611" height="856.461" fill="#C4C4C4" />
  </mask>
  <g mask="url(#mask0_1204_49933)">
    <path opacity="0.6" d="M979.024 -200.642C975.071 -204.749 970.257 -207.92 964.923 -209.925C959.589 -211.929 953.873 -212.717 948.196 -212.23C942.519 -211.743 937.021 -209.994 932.106 -207.11C927.19 -204.226 922.979 -200.281 919.782 -195.561L394.181 595.665C350.402 565.934 298.696 550.072 245.787 550.143C193.672 550.013 142.674 565.267 99.178 593.995C55.6822 622.723 21.6208 663.65 1.25324 711.654C-19.1143 759.658 -24.8818 812.607 -15.3272 863.875C-5.77262 915.143 18.68 962.452 54.9696 999.883C91.2593 1037.31 137.772 1063.2 188.692 1074.31C239.612 1085.42 292.675 1081.25 341.24 1062.33C389.805 1043.41 431.717 1010.58 461.728 967.944C491.739 925.307 508.519 874.761 509.966 822.629L999.605 90.4298C1029.48 46.7005 1043.71 -5.85226 1039.97 -58.693C1036.23 -111.534 1014.76 -161.559 979.024 -200.642ZM245.787 928.886C230.686 929.187 215.676 926.47 201.637 920.895C187.598 915.32 174.812 906.998 164.026 896.418C153.24 885.837 144.672 873.209 138.823 859.274C132.973 845.339 129.958 830.376 129.958 815.262C129.958 800.147 132.973 785.185 138.823 771.249C144.672 757.314 153.24 744.687 164.026 734.106C174.812 723.525 187.598 715.204 201.637 709.629C215.676 704.054 230.686 701.337 245.787 701.637C275.902 701.637 304.781 713.609 326.075 734.917C347.369 756.226 359.334 785.127 359.334 815.262C359.334 845.397 347.369 874.298 326.075 895.607C304.781 916.915 275.902 928.886 245.787 928.886Z" fill="white" />
    <path opacity="0.7" d="M1003.28 1079.89H1003.27C934.507 1079.83 868.481 1052.9 819.243 1004.84C770.005 956.783 741.447 891.381 739.644 822.558L739.64 822.413L739.56 822.293L671 719.729L804.152 520.493L854.463 595.799L854.743 596.218L855.16 595.935C898.859 566.251 950.463 550.414 1003.27 550.485L1003.28 550.485C1038.16 550.222 1072.76 556.875 1105.06 570.06C1137.37 583.245 1166.75 602.701 1191.52 627.306C1216.28 651.912 1235.93 681.182 1249.34 713.427C1262.76 745.673 1269.66 780.257 1269.66 815.186C1269.66 850.116 1262.76 884.7 1249.34 916.945C1235.93 949.191 1216.28 978.46 1191.52 1003.07C1166.75 1027.67 1137.37 1047.13 1105.06 1060.31C1072.76 1073.5 1038.16 1080.15 1003.28 1079.89ZM1066.61 720.278C1047.86 707.732 1025.82 701.033 1003.27 701.027C973.027 701.027 944.022 713.055 922.634 734.465C901.246 755.875 889.227 784.914 889.223 815.194C889.226 837.769 895.915 859.836 908.444 878.606C920.973 897.375 938.782 912.004 959.615 920.643C980.447 929.282 1003.37 931.542 1025.48 927.138C1047.6 922.734 1067.91 911.864 1083.86 895.902C1099.8 879.94 1110.66 859.602 1115.07 837.462C1119.47 815.321 1117.21 792.37 1108.59 771.512C1099.96 750.654 1085.35 732.825 1066.61 720.278Z" fill="white" stroke="white" />
    <path opacity="0.8" d="M249.712 90.0117L249.709 90.0075C219.939 46.3965 205.76 -6.01903 209.482 -58.7224C213.204 -111.424 234.606 -161.315 270.207 -200.292C274.101 -204.343 278.847 -207.473 284.102 -209.453C289.359 -211.433 294.989 -212.212 300.584 -211.733C306.18 -211.254 311.602 -209.529 316.447 -206.685C321.292 -203.84 325.439 -199.948 328.591 -195.292C328.591 -195.291 328.592 -195.29 328.592 -195.29L577.956 183.183L444.981 382.32L249.712 90.0117Z" fill="white" stroke="white" />
  </g>
</svg>
