<svg width="686" height="1588" viewBox="0 0 686 1588" fill="none" xmlns="http://www.w3.org/2000/svg">
  <path opacity="0.8" d="M330.92 371.982L330.918 371.977C294.378 318.45 276.975 254.116 281.543 189.429C286.111 124.744 312.381 63.5077 356.077 15.6686C360.866 10.6848 366.704 6.83489 373.167 4.40018C379.633 1.96471 386.557 1.00669 393.439 1.59566C400.322 2.18463 406.99 4.30583 412.949 7.8046C418.908 11.3027 424.008 16.0897 427.885 21.8162C427.885 21.8172 427.886 21.8182 427.887 21.8193L733.872 486.23L570.59 730.755L330.92 371.982Z" fill="#F0F4FF" stroke="white" />
  <path opacity="0.6" d="M1225.81 15.3157C1220.96 10.2778 1215.05 6.38679 1208.5 3.92721C1201.96 1.46762 1194.95 0.501262 1187.98 1.09867C1181.02 1.69607 1174.27 3.84225 1168.24 7.38039C1162.21 10.9185 1157.04 15.7594 1153.12 21.5498L508.263 992.304C454.551 955.826 391.113 936.365 326.199 936.453C262.259 936.293 199.69 955.007 146.325 990.254C92.96 1025.5 51.17 1075.71 26.1812 1134.61C1.19236 1193.51 -5.88378 1258.47 5.8387 1321.37C17.5612 1384.27 47.562 1442.31 92.0857 1488.24C136.609 1534.16 193.676 1565.92 256.149 1579.55C318.623 1593.18 383.725 1588.07 443.31 1564.86C502.895 1541.64 554.316 1501.36 591.136 1449.05C627.957 1396.74 648.545 1334.73 650.32 1270.77L1251.06 372.431C1287.71 318.78 1305.16 254.303 1300.58 189.473C1296 124.643 1269.65 63.2676 1225.81 15.3157ZM326.199 1401.13C307.672 1401.5 289.257 1398.17 272.032 1391.33C254.808 1384.49 239.12 1374.28 225.887 1361.3C212.654 1348.31 202.141 1332.82 194.965 1315.72C187.788 1298.63 184.089 1280.27 184.089 1261.73C184.089 1243.18 187.788 1224.82 194.965 1207.73C202.141 1190.63 212.654 1175.14 225.887 1162.16C239.12 1149.17 254.808 1138.97 272.032 1132.12C289.257 1125.28 307.672 1121.95 326.199 1122.32C363.147 1122.32 398.578 1137.01 424.704 1163.15C450.83 1189.3 465.51 1224.75 465.51 1261.73C465.51 1298.7 450.83 1334.16 424.704 1360.3C398.578 1386.44 363.147 1401.13 326.199 1401.13Z" fill="#F0F4FF" />
</svg>
