<svg width="732" height="757" viewBox="0 0 732 757" fill="none" xmlns="http://www.w3.org/2000/svg">
  <path opacity="0.6" d="M717.782 -163.572C714.942 -166.523 711.482 -168.802 707.649 -170.243C703.816 -171.683 699.709 -172.249 695.629 -171.899C691.55 -171.55 687.598 -170.292 684.066 -168.22C680.534 -166.148 677.508 -163.312 675.21 -159.921L297.506 408.666C266.046 387.301 228.889 375.902 190.868 375.953C153.417 375.86 116.769 386.821 85.5122 407.466C54.2555 428.11 29.7784 457.521 15.142 492.018C0.505625 526.514 -3.63899 564.564 3.22707 601.406C10.0931 638.248 27.6651 672.245 53.7434 699.143C79.8217 726.041 113.246 744.646 149.838 752.628C186.43 760.61 224.562 757.616 259.462 744.02C294.361 730.424 324.479 706.83 346.046 676.191C367.613 645.552 379.671 609.229 380.711 571.766L732.572 45.5965C754.042 14.172 764.264 -23.5932 761.579 -61.5653C758.894 -99.5375 743.46 -135.486 717.782 -163.572ZM190.868 648.124C180.016 648.34 169.23 646.388 159.141 642.381C149.052 638.375 139.864 632.395 132.113 624.791C124.362 617.188 118.205 608.114 114.001 598.1C109.798 588.086 107.631 577.333 107.631 566.472C107.631 555.61 109.798 544.858 114.001 534.844C118.205 524.83 124.362 515.755 132.113 508.152C139.864 500.548 149.052 494.568 159.141 490.562C169.23 486.556 180.016 484.603 190.868 484.819C212.508 484.819 233.261 493.422 248.564 508.735C263.866 524.047 272.464 544.816 272.464 566.472C272.464 588.127 263.866 608.896 248.564 624.208C233.261 639.521 212.508 648.124 190.868 648.124Z" fill="white" />
  <path opacity="0.7" d="M735.211 756.495H735.208C685.828 756.453 638.417 737.119 603.06 702.608C567.703 668.096 547.196 621.132 545.901 571.711L545.897 571.566L545.817 571.446L496.601 497.82L592.117 354.9L628.154 408.841L628.434 409.26L628.851 408.977C660.231 387.661 697.286 376.289 735.207 376.34L735.211 376.34C760.263 376.151 785.104 380.929 808.303 390.396C831.502 399.864 852.602 413.835 870.384 431.504C888.165 449.173 902.278 470.191 911.909 493.346C921.54 516.501 926.5 541.335 926.5 566.417C926.5 591.5 921.54 616.334 911.909 639.489C902.278 662.644 888.165 683.662 870.384 701.331C852.602 719 831.502 732.971 808.303 742.439C785.104 751.906 760.263 756.683 735.211 756.495ZM780.798 498.098C767.304 489.067 751.439 484.244 735.208 484.24C713.435 484.24 692.556 492.898 677.16 508.31C661.764 523.722 653.112 544.626 653.11 566.423C653.112 582.674 657.927 598.559 666.946 612.07C675.965 625.581 688.784 636.112 703.781 642.33C718.777 648.549 735.276 650.176 751.196 647.006C767.116 643.835 781.739 636.01 793.218 624.52C804.696 613.03 812.514 598.39 815.682 582.452C818.851 566.514 817.228 549.993 811.019 534.979C804.81 519.964 794.293 507.13 780.798 498.098Z" fill="white" stroke="white" />
  <path opacity="0.8" d="M193.805 45.2179L193.802 45.2137C172.427 13.9004 162.246 -23.7347 164.919 -61.5765C167.591 -99.4162 182.958 -135.239 208.519 -163.224C211.302 -166.12 214.695 -168.357 218.451 -169.772C222.209 -171.187 226.234 -171.744 230.234 -171.402C234.234 -171.06 238.11 -169.827 241.574 -167.793C245.037 -165.76 248.001 -162.978 250.255 -159.649C250.255 -159.648 250.256 -159.648 250.256 -159.647L429.4 112.249L334.012 255.1L193.805 45.2179Z" fill="white" stroke="white" />
</svg>
