<svg width="709" height="479" viewBox="0 0 709 479" fill="none" xmlns="http://www.w3.org/2000/svg">
  <g opacity="0.1">
    <path opacity="0.6" d="M760.71 9.18742C757.702 6.06251 754.039 3.64902 749.979 2.1234C745.92 0.597784 741.57 -0.00162446 737.25 0.36893C732.93 0.739485 728.746 2.0707 725.005 4.26532C721.265 6.45994 718.059 9.46262 715.627 13.0542L315.637 615.189C282.321 592.562 242.972 580.491 202.707 580.546C163.047 580.447 124.237 592.055 91.1357 613.917C58.0347 635.78 32.1135 666.926 16.6135 703.458C1.11358 739.99 -3.27557 780.284 3.99559 819.3C11.2668 858.315 29.8755 894.319 57.4924 922.804C85.1094 951.289 120.506 970.991 159.257 979.444C198.008 987.898 238.389 984.727 275.348 970.329C312.307 955.931 344.202 930.945 367.041 898.498C389.88 866.051 402.65 827.584 403.751 787.911L776.373 230.697C799.11 197.419 809.935 157.425 807.091 117.213C804.248 77.0003 787.903 38.9308 760.71 9.18742ZM202.707 868.774C191.215 869.003 179.793 866.936 169.109 862.693C158.425 858.45 148.694 852.117 140.486 844.065C132.278 836.013 125.757 826.404 121.306 815.799C116.854 805.194 114.56 793.807 114.56 782.305C114.56 770.802 116.854 759.415 121.306 748.811C125.757 738.206 132.278 728.596 140.486 720.544C148.694 712.492 158.425 706.159 169.109 701.916C179.793 697.674 191.215 695.606 202.707 695.835C225.625 695.835 247.602 704.945 263.807 721.161C280.012 737.377 289.118 759.371 289.118 782.305C289.118 805.238 280.012 827.232 263.807 843.448C247.602 859.664 225.625 868.774 202.707 868.774Z" fill="white" />
    <path opacity="0.8" d="M205.794 230.313L205.791 230.309C183.15 197.142 172.367 157.28 175.198 117.199C178.028 77.1199 194.305 39.1776 221.378 9.53608C224.329 6.46597 227.926 4.09437 231.908 2.59445C235.891 1.09377 240.158 0.503467 244.399 0.866373C248.639 1.22928 252.748 2.53633 256.42 4.69218C260.091 6.84756 263.234 9.7971 265.623 13.3256C265.623 13.3263 265.624 13.3271 265.624 13.3278L455.349 301.283L354.297 452.615L205.794 230.313Z" fill="white" stroke="white" />
  </g>
</svg>
  