<svg width="20" height="19" viewBox="0 0 20 19" fill="none" xmlns="http://www.w3.org/2000/svg">
  <path d="M18.7019 10.8124C19.1171 10.1425 19.2238 9.32661 18.9951 8.57239C18.7665 7.81818 18.2243 7.19886 17.5071 6.87245L4.95398 0.600513C4.27464 0.254874 3.48207 0.208075 2.76664 0.471459C2.05136 0.734675 1.47801 1.28386 1.18456 1.98755C0.891309 2.69103 0.904321 3.48487 1.22049 4.17845L3.38149 9.00477L3.38165 9.00462C3.42782 9.11182 3.45121 9.22755 3.45043 9.34452C3.44888 9.46907 3.42022 9.59193 3.366 9.7041L1.19833 14.5371L1.18052 14.5549C0.96936 15.061 0.914082 15.6189 1.02204 16.1566C1.13017 16.6945 1.3965 17.1876 1.78689 17.5731L1.80471 17.5909C2.21138 17.9941 2.73531 18.2584 3.30142 18.3458C3.86751 18.4332 4.44673 18.3392 4.95632 18.0772L17.5603 11.8387C18.031 11.6125 18.427 11.2565 18.7018 10.8125L18.7019 10.8124ZM16.7363 10.144L4.09907 16.4071C3.9426 16.4874 3.76459 16.5157 3.59108 16.4882C3.41725 16.4606 3.25691 16.3786 3.13297 16.2538C3.00981 16.1312 2.92631 15.9743 2.89346 15.8036C2.86062 15.6328 2.87983 15.4562 2.94861 15.2967L5.11628 10.4637C5.14292 10.4014 5.16508 10.3393 5.18723 10.2771L9.58705 10.2706L9.58705 8.38742L5.17613 8.38742C5.15614 8.3318 5.13832 8.27866 5.114 8.22304L2.94634 3.39006L2.94649 3.38991C2.87166 3.22863 2.84951 3.04815 2.88282 2.87355C2.91644 2.69895 3.00382 2.53938 3.13302 2.4173C3.25819 2.29213 3.42024 2.21033 3.5953 2.18399C3.77037 2.15765 3.94915 2.18802 4.10577 2.27059L16.7121 8.56941C16.917 8.65555 17.0801 8.81775 17.1676 9.02177C17.2551 9.22612 17.2601 9.45602 17.1812 9.66377C17.1025 9.87137 16.9462 10.0404 16.7454 10.1352L16.7363 10.144Z" fill="#0032DA" />
</svg>
