<svg width="34" height="34" viewBox="0 0 34 34" fill="none" xmlns="http://www.w3.org/2000/svg">
  <path d="M29.0293 1.48438H29.2293C31.0206 1.48438 31.9163 1.48438 32.4728 2.04087C33.0293 2.59737 33.0293 3.49304 33.0293 5.28437V5.48438" stroke="#0032DA" stroke-linecap="round" />
  <path d="M29.0312 33.25H29.2313C31.0226 33.25 31.9183 33.25 32.4748 32.6935C33.0312 32.137 33.0312 31.2413 33.0312 29.45V29.25" stroke="#0032DA" stroke-linecap="round" />
  <path d="M5.44531 1.48438H5.24531C3.45398 1.48438 2.55831 1.48438 2.00181 2.04087C1.44531 2.59737 1.44531 3.49304 1.44531 5.28437V5.48438" stroke="#0032DA" stroke-linecap="round" />
  <path d="M5.44531 33.2461H5.24531C3.45398 33.2461 2.55831 33.2461 2.00181 32.6896C1.44531 32.1331 1.44531 31.2374 1.44531 29.4461V29.2461" stroke="#0032DA" stroke-linecap="round" />
  <path d="M18.3887 10.9453L19.635 13.1338L22.6191 13.4411V11.1752L20.0128 9.5625L18.3887 10.9453Z" fill="#E9EEFF" />
  <path d="M18.3675 12.7629L17.3601 10.7893L19.8444 8.60719L23.5806 10.8004L22.9641 14.079L20.7794 14.1788C22.9896 16.1929 23.6322 19.482 22.1487 22.0945C20.4363 25.1101 16.539 26.0822 13.4439 24.2653C10.3489 22.4484 9.22807 18.5308 10.9406 15.515C12.424 12.9026 15.5467 11.8239 18.3675 12.7629ZM13.9608 23.3549C16.5399 24.869 19.7875 24.059 21.2144 21.546C22.6413 19.0331 21.7073 15.7684 19.1284 14.2545C16.5494 12.7406 13.3017 13.5505 11.8748 16.0634C10.4478 18.5763 11.3818 21.841 13.9608 23.3549ZM18.6828 11.07L19.7496 13.1604L22.0635 13.0546L22.3904 11.3152L20.0009 9.91249L18.6828 11.07Z" fill="#0032DA" />
</svg>
  