<svg width="59" height="60" viewBox="0 0 59 60" fill="none" xmlns="http://www.w3.org/2000/svg">
    <path fill-rule="evenodd" clip-rule="evenodd"
        d="M29.3719 3.25342H29.6273C31.8354 3.25342 33.675 3.25342 35.134 3.44991C36.6764 3.65622 38.0691 4.11306 39.1866 5.2306C40.3066 6.3506 40.7634 7.74323 40.9697 9.28322C41.1171 10.3639 41.154 11.6509 41.1638 13.1393C42.7554 13.1909 44.175 13.2867 45.4375 13.4537C48.316 13.8418 50.6469 14.6572 52.4865 16.4944C54.3237 18.3341 55.1392 20.6649 55.5272 23.5435C55.903 26.3435 55.903 29.9172 55.903 34.4316V34.7066C55.903 39.221 55.903 42.7971 55.5272 45.5947C55.1392 48.4733 54.3237 50.8041 52.4865 52.6438C50.6469 54.481 48.316 55.2964 45.4375 55.6845C42.6375 56.0603 39.0638 56.0603 34.5494 56.0603H24.4498C19.9354 56.0603 16.3593 56.0603 13.5618 55.6845C10.6832 55.2964 8.35231 54.481 6.51267 52.6438C4.67548 50.8041 3.86005 48.4733 3.47198 45.5947C3.09619 42.7947 3.09619 39.221 3.09619 34.7066V34.4316C3.09619 29.9172 3.09619 26.3411 3.47198 23.5435C3.86005 20.6649 4.67548 18.3341 6.51267 16.4944C8.35231 14.6572 10.6832 13.8418 13.5618 13.4537C14.9802 13.2781 16.4066 13.1732 17.8354 13.1393C17.8453 11.6509 17.8846 10.3639 18.0295 9.28322C18.2358 7.74323 18.6926 6.3506 19.8102 5.2306C20.9302 4.11306 22.3228 3.65868 23.8628 3.44991C25.3242 3.25342 27.1663 3.25342 29.3719 3.25342ZM21.5221 13.0829C22.4505 13.0779 23.4256 13.0779 24.4498 13.0779H34.5494C35.5736 13.0779 36.5487 13.0779 37.4771 13.0829C37.4673 11.6829 37.4329 10.6267 37.3199 9.77445C37.1652 8.64217 36.9024 8.15586 36.5831 7.83656C36.2638 7.51726 35.7775 7.25446 34.6428 7.09972C33.4589 6.94253 31.8673 6.93762 29.4996 6.93762C27.1319 6.93762 25.5403 6.94253 24.354 7.10218C23.2217 7.25446 22.7354 7.51726 22.4161 7.83902C22.0968 8.15831 21.834 8.64217 21.6793 9.77445C21.5663 10.6243 21.5319 11.6804 21.5221 13.0829ZM14.0505 17.106C11.5797 17.4376 10.1551 18.0614 9.11372 19.1004C8.07723 20.1393 7.45337 21.5639 7.12179 24.0348C6.78285 26.5572 6.77793 29.8853 6.77793 34.5691C6.77793 39.2529 6.78285 42.581 7.12179 45.1059C7.45337 47.5743 8.07723 48.9989 9.11617 50.0378C10.1551 51.0768 11.5797 51.7006 14.0505 52.0322C16.5754 52.3712 19.901 52.3761 24.5849 52.3761H34.4094C39.0933 52.3761 42.4213 52.3712 44.9462 52.0322C47.4146 51.7006 48.8392 51.0768 49.8781 50.0378C50.9171 48.9989 51.5409 47.5743 51.8725 45.1035C52.2115 42.581 52.2164 39.2529 52.2164 34.5691C52.2164 29.8853 52.2115 26.5597 51.8725 24.0323C51.5409 21.5639 50.9171 20.1393 49.8781 19.1004C48.8392 18.0614 47.4146 17.4376 44.9438 17.106C42.4213 16.7671 39.0933 16.7621 34.4094 16.7621H24.5849C19.901 16.7621 16.5779 16.7671 14.0505 17.106ZM29.4996 22.9025C29.9882 22.9025 30.4567 23.0966 30.8022 23.442C31.1476 23.7875 31.3417 24.256 31.3417 24.7446V24.7691C34.0164 25.4421 36.254 27.5519 36.254 30.4747C36.254 30.9633 36.0599 31.4318 35.7144 31.7773C35.369 32.1228 34.9004 32.3168 34.4119 32.3168C33.9233 32.3168 33.4548 32.1228 33.1093 31.7773C32.7639 31.4318 32.5698 30.9633 32.5698 30.4747C32.5698 29.5316 31.5235 28.2249 29.4996 28.2249C27.4758 28.2249 26.4294 29.5316 26.4294 30.4747C26.4294 31.4179 27.4758 32.727 29.4996 32.727C32.9014 32.727 36.254 35.0849 36.254 38.6635C36.254 41.5863 34.0164 43.6936 31.3417 44.3691V44.3936C31.3417 44.8822 31.1476 45.3507 30.8022 45.6962C30.4567 46.0417 29.9882 46.2357 29.4996 46.2357C29.0111 46.2357 28.5425 46.0417 28.1971 45.6962C27.8516 45.3507 27.6575 44.8822 27.6575 44.3936V44.3691C24.9828 43.6961 22.7452 41.5863 22.7452 38.6635C22.7452 38.1749 22.9393 37.7064 23.2848 37.3609C23.6302 37.0155 24.0988 36.8214 24.5873 36.8214C25.0759 36.8214 25.5444 37.0155 25.8899 37.3609C26.2354 37.7064 26.4294 38.1749 26.4294 38.6635C26.4294 39.6066 27.4758 40.9133 29.4996 40.9133C31.5235 40.9133 32.5698 39.6066 32.5698 38.6635C32.5698 37.7203 31.5235 36.4112 29.4996 36.4112C26.0979 36.4112 22.7452 34.0533 22.7452 30.4747C22.7452 27.5519 24.9828 25.4421 27.6575 24.7691V24.7446C27.6575 24.256 27.8516 23.7875 28.1971 23.442C28.5425 23.0966 29.0111 22.9025 29.4996 22.9025Z"
        fill="white" />
</svg>
    