<svg width="39" height="39" viewBox="0 0 39 39" fill="none" xmlns="http://www.w3.org/2000/svg">
  <path d="M30.2021 3.76562H30.4021C32.1935 3.76562 33.0892 3.76562 33.6457 4.32212C34.2021 4.87862 34.2021 5.77429 34.2021 7.56562V7.76562" stroke="#0032DA" stroke-linecap="round" />
  <path d="M30.2021 35.5273H30.4021C32.1935 35.5273 33.0892 35.5273 33.6457 34.9708C34.2021 34.4143 34.2021 33.5187 34.2021 31.7273V31.5273" stroke="#0032DA" stroke-linecap="round" />
  <path d="M6.61719 3.76562H6.41719C4.62585 3.76562 3.73018 3.76562 3.17368 4.32212C2.61719 4.87862 2.61719 5.77429 2.61719 7.56562V7.76562" stroke="#0032DA" stroke-linecap="round" />
  <path d="M6.61719 35.5273H6.41719C4.62585 35.5273 3.73018 35.5273 3.17368 34.9708C2.61719 34.4143 2.61719 33.5187 2.61719 31.7273V31.5273" stroke="#0032DA" stroke-linecap="round" />
  <path d="M19.5605 13.2265L20.8069 15.4151L23.791 15.7224V13.4564L21.1847 11.8438L19.5605 13.2265Z" fill="#E9EEFF" />
  <path d="M19.5393 15.0442L18.532 13.0705L21.0163 10.8884L24.7524 13.0817L24.136 16.3602L21.9513 16.46C24.1615 18.4742 24.8041 21.7632 23.3206 24.3757C21.6082 27.3914 17.7109 28.3635 14.6158 26.5466C11.5207 24.7297 10.3999 20.8121 12.1124 17.7963C13.5958 15.1839 16.7186 14.1052 19.5393 15.0442V15.0442ZM15.1327 25.6362C17.7118 27.1502 20.9593 26.3402 22.3863 23.8273C23.8132 21.3143 22.8792 18.0497 20.3002 16.5357C17.7213 15.0218 14.4736 15.8317 13.0466 18.3447C11.6197 20.8576 12.5537 24.1223 15.1327 25.6362ZM19.8547 13.3513L20.9215 15.4417L23.2354 15.3358L23.5623 13.5964L21.1728 12.1937L19.8547 13.3513Z" fill="#0032DA" />
</svg>
  