<svg width="17" height="17" viewBox="0 0 17 17" fill="none" xmlns="http://www.w3.org/2000/svg">
  <g clip-path="url(#clip0_130_2670)">
    <path
      d="M15.9335 2.49987C15.2951 2.95019 14.5883 3.29461 13.8402 3.51987C13.4387 3.05821 12.9051 2.731 12.3115 2.58249C11.718 2.43397 11.0932 2.47133 10.5216 2.6895C9.94996 2.90768 9.45914 3.29614 9.1155 3.80235C8.77186 4.30856 8.59198 4.90809 8.60018 5.51987V6.18653C7.4286 6.21691 6.26769 5.95708 5.22085 5.43017C4.17401 4.90325 3.27372 4.12562 2.60018 3.16653C2.60018 3.16653 -0.0664876 9.16653 5.93351 11.8332C4.56053 12.7652 2.92495 13.2325 1.26685 13.1665C7.26685 16.4999 14.6002 13.1665 14.6002 5.49987C14.5996 5.31417 14.5817 5.12893 14.5468 4.94653C15.2272 4.27553 15.7074 3.42834 15.9335 2.49987Z"
      stroke="#8F95B2" stroke-width="1.40328" stroke-linecap="round" stroke-linejoin="round" />
  </g>
  <defs>
    <clipPath id="clip0_130_2670">
      <rect width="16" height="16" fill="white" transform="translate(0.599854 0.5)" />
    </clipPath>
  </defs>
</svg>