<svg width="20" height="20" viewBox="0 0 20 20" fill="none" xmlns="http://www.w3.org/2000/svg">
  <path d="M10 7.5L9.64645 7.14645L10 6.79289L10.3536 7.14645L10 7.5ZM10.5 16.5C10.5 16.7761 10.2761 17 10 17C9.72386 17 9.5 16.7761 9.5 16.5L10.5 16.5ZM4.64645 12.1464L9.64645 7.14645L10.3536 7.85355L5.35355 12.8536L4.64645 12.1464ZM10.3536 7.14645L15.3536 12.1464L14.6464 12.8536L9.64645 7.85355L10.3536 7.14645ZM10.5 7.5L10.5 16.5L9.5 16.5L9.5 7.5L10.5 7.5Z" fill="#345CE2"/>
  <path d="M17 6.5L17 5.5C17 4.39543 16.1046 3.5 15 3.5L5 3.5C3.89543 3.5 3 4.39543 3 5.5L3 6.5" stroke="#345CE2"/>
</svg>
  