<svg width="51" height="41" viewBox="0 0 51 41" fill="#345CE2" xmlns="http://www.w3.org/2000/svg">
<path d="M49.5076 40.0403H1.56409C1.28757 40.0403 1.02238 39.9304 0.826855 39.7349C0.631329 39.5394 0.521484 39.2742 0.521484 38.9977C0.521484 38.7212 0.631329 38.456 0.826855 38.2604C1.02238 38.0649 1.28757 37.9551 1.56409 37.9551H49.5076C49.7841 37.9551 50.0493 38.0649 50.2449 38.2604C50.4404 38.456 50.5502 38.7212 50.5502 38.9977C50.5502 39.2742 50.4404 39.5394 50.2449 39.7349C50.0493 39.9304 49.7841 40.0403 49.5076 40.0403Z" />
<path d="M45.3395 40.0407C45.063 40.0407 44.7978 39.9309 44.6022 39.7354C44.4067 39.5399 44.2969 39.2747 44.2969 38.9981V22.3219C44.2969 22.0454 44.4067 21.7802 44.6022 21.5847C44.7978 21.3891 45.063 21.2793 45.3395 21.2793C45.616 21.2793 45.8812 21.3891 46.0767 21.5847C46.2722 21.7802 46.3821 22.0454 46.3821 22.3219V38.9981C46.3821 39.1351 46.3551 39.2706 46.3027 39.3971C46.2503 39.5236 46.1735 39.6386 46.0767 39.7354C45.9799 39.8322 45.865 39.909 45.7385 39.9614C45.612 40.0138 45.4764 40.0407 45.3395 40.0407Z" />
<path d="M5.73401 40.0433C5.45749 40.0433 5.1923 39.9334 4.99678 39.7379C4.80125 39.5424 4.69141 39.2772 4.69141 39.0007V15.028C4.69283 13.9228 5.13247 12.8634 5.91393 12.0819C6.69539 11.3004 7.75487 10.8608 8.86002 10.8594H20.3251C20.6016 10.8594 20.8668 10.9692 21.0623 11.1647C21.2578 11.3603 21.3677 11.6255 21.3677 11.902C21.3677 12.1785 21.2578 12.4437 21.0623 12.6392C20.8668 12.8347 20.6016 12.9446 20.3251 12.9446H8.86002C8.30776 12.9455 7.77838 13.1653 7.38787 13.5558C6.99736 13.9464 6.77755 14.4757 6.77661 15.028V38.9917C6.77779 39.1294 6.75169 39.2659 6.69983 39.3934C6.64796 39.521 6.57135 39.637 6.47442 39.7347C6.37748 39.8325 6.26215 39.9101 6.13507 39.963C6.00799 40.016 5.87168 40.0433 5.73401 40.0433Z" />
<path d="M23.4538 29.6165C22.6293 29.6165 21.8233 29.372 21.1378 28.914C20.4523 28.4559 19.918 27.8049 19.6025 27.0432C19.287 26.2815 19.2044 25.4433 19.3653 24.6347C19.5261 23.826 19.9231 23.0833 20.5061 22.5003C21.0891 21.9173 21.8319 21.5202 22.6405 21.3594C23.4491 21.1986 24.2873 21.2811 25.049 21.5966C25.8107 21.9121 26.4618 22.4464 26.9198 23.132C27.3779 23.8175 27.6224 24.6234 27.6224 25.4479C27.621 26.5531 27.1813 27.6125 26.3999 28.394C25.6184 29.1755 24.5589 29.6151 23.4538 29.6165ZM23.4538 23.3573C23.0418 23.3584 22.6394 23.4815 22.2973 23.711C21.9552 23.9405 21.6888 24.2663 21.5316 24.6471C21.3745 25.0279 21.3336 25.4467 21.4143 25.8507C21.4949 26.2547 21.6934 26.6257 21.9847 26.917C22.276 27.2083 22.647 27.4068 23.051 27.4874C23.455 27.568 23.8738 27.5272 24.2546 27.37C24.6354 27.2129 24.9612 26.9465 25.1907 26.6044C25.4202 26.2623 25.5433 25.8599 25.5443 25.4479C25.5439 25.1738 25.4894 24.9026 25.3841 24.6495C25.2788 24.3965 25.1247 24.1667 24.9305 23.9732C24.7364 23.7798 24.5061 23.6264 24.2527 23.522C23.9993 23.4175 23.7278 23.364 23.4538 23.3645V23.3573Z" />
<path d="M30.7457 40.0443C30.4692 40.0443 30.204 39.9344 30.0085 39.7389C29.8129 39.5434 29.7031 39.2782 29.7031 39.0017V36.9182C29.7017 36.0896 29.3719 35.2953 28.7859 34.7094C28.2 34.1235 27.4057 33.7937 26.5771 33.7922H20.3179C19.4893 33.7937 18.695 34.1235 18.109 34.7094C17.5231 35.2953 17.1933 36.0896 17.1919 36.9182V39.0034C17.2022 39.1463 17.1829 39.2897 17.1353 39.4248C17.0877 39.5599 17.0127 39.6837 16.9152 39.7885C16.8176 39.8933 16.6995 39.9769 16.5682 40.0341C16.4369 40.0913 16.2952 40.1208 16.152 40.1208C16.0088 40.1208 15.8671 40.0913 15.7358 40.0341C15.6045 39.9769 15.4863 39.8933 15.3888 39.7885C15.2912 39.6837 15.2163 39.5599 15.1687 39.4248C15.1211 39.2897 15.1018 39.1463 15.1121 39.0034V36.9182C15.1135 35.5366 15.663 34.2119 16.64 33.2349C17.6169 32.2579 18.9416 31.7085 20.3233 31.707H26.5825C27.9641 31.7085 29.2888 32.2579 30.2658 33.2349C31.2428 34.2119 31.7922 35.5366 31.7937 36.9182V39.0034C31.7934 39.1407 31.7661 39.2765 31.7133 39.4031C31.6604 39.5298 31.5831 39.6447 31.4858 39.7414C31.3884 39.8381 31.2729 39.9146 31.1459 39.9666C31.0189 40.0186 30.8829 40.045 30.7457 40.0443Z" />
<path d="M49.5008 17.1118C49.2569 17.1128 49.0205 17.0273 48.8338 16.8704L44.2986 13.0827V13.9768C44.2971 14.8055 43.9673 15.5998 43.3814 16.1857C42.7955 16.7716 42.0012 17.1014 41.1725 17.1029H28.6631C27.836 17.1014 27.0431 16.7729 26.4574 16.1889C25.8717 15.6049 25.5409 14.8129 25.5371 13.9858V3.56156C25.5385 2.73293 25.8683 1.93864 26.4543 1.3527C27.0402 0.766768 27.8345 0.436965 28.6631 0.435547L41.1708 0.435547C41.9994 0.436965 42.7937 0.766768 43.3796 1.3527C43.9655 1.93864 44.2954 2.73293 44.2968 3.56156V4.45573L48.8427 0.678761C48.9953 0.55288 49.1803 0.472662 49.3765 0.44735C49.5726 0.422039 49.772 0.452663 49.9515 0.535694C50.131 0.619197 50.283 0.75227 50.3895 0.919241C50.4959 1.08621 50.5524 1.28013 50.5524 1.47815V16.0692C50.5521 16.2674 50.4955 16.4614 50.3891 16.6286C50.2827 16.7958 50.1309 16.9293 49.9515 17.0134C49.8103 17.079 49.6565 17.1126 49.5008 17.1118ZM28.6631 2.52075C28.3868 2.52122 28.1218 2.63122 27.9264 2.82664C27.731 3.02206 27.621 3.28698 27.6205 3.56335V13.9858C27.621 14.2622 27.731 14.5271 27.9264 14.7225C28.1218 14.9179 28.3868 15.0279 28.6631 15.0284H41.1708C41.4471 15.0279 41.712 14.9179 41.9075 14.7225C42.1029 14.5271 42.2129 14.2622 42.2134 13.9858V10.858C42.2134 10.6599 42.2698 10.4659 42.3761 10.2987C42.4824 10.1315 42.6342 9.99808 42.8135 9.91401C42.9929 9.82995 43.1926 9.79873 43.389 9.82402C43.5855 9.84931 43.7708 9.93005 43.923 10.0568L48.4672 13.8481V3.70284L43.923 7.48696C43.771 7.61352 43.5861 7.69422 43.3899 7.71964C43.1938 7.74506 42.9944 7.71415 42.8152 7.63052C42.6359 7.54689 42.4841 7.41399 42.3776 7.24734C42.271 7.08069 42.2141 6.88717 42.2134 6.68936V3.56156C42.2129 3.28519 42.1029 3.02028 41.9075 2.82485C41.712 2.62943 41.4471 2.51943 41.1708 2.51896L28.6631 2.52075Z" />
</svg>
