<svg width="19" height="18" viewBox="0 0 19 18" fill="none" xmlns="http://www.w3.org/2000/svg">
  <path fill-rule="evenodd" clip-rule="evenodd" d="M9.82201 0C4.85119 0 0.818359 4.03941 0.818359 9C0.818359 13.9683 4.85192 18 9.82201 18C14.7848 18 18.8184 13.9686 18.8184 9C18.8184 4.03868 14.7852 0 9.82201 0ZM8.33544 1.25587C7.50521 2.3221 6.94687 3.72353 6.61145 5.26752H2.87046C3.97508 3.21107 5.96231 1.70467 8.33548 1.25587H8.33544ZM11.2808 1.25587C13.658 1.70105 15.6581 3.20658 16.7666 5.26752H13.0118C12.6757 3.72346 12.1115 2.32218 11.2809 1.25587H11.2808ZM9.8082 1.30467C10.7259 2.14703 11.4232 3.58382 11.8392 5.26737H7.78412C8.19945 3.58374 8.89075 2.14681 9.80817 1.30467H9.8082ZM2.37517 6.39091H6.40216C6.28002 7.24942 6.22723 8.13119 6.22766 9.0142C6.22823 9.88798 6.28887 10.7675 6.40915 11.6165H2.37486C2.0885 10.7983 1.93512 9.91852 1.93512 9.00022C1.93512 8.08535 2.0895 7.20745 2.37486 6.39087L2.37517 6.39091ZM7.55419 6.39091H12.0699C12.2093 7.23842 12.2865 8.12432 12.2862 9.0142C12.2859 9.89697 12.2074 10.7766 12.0699 11.6165H7.55419C7.4165 10.7766 7.3453 9.89697 7.34473 9.0142C7.34416 8.12432 7.41507 7.23842 7.55419 6.39091ZM13.2216 6.39091H17.2628C17.5487 7.20734 17.7025 8.08553 17.7025 9.00025C17.7025 9.91841 17.5497 10.7983 17.2628 11.6166H13.2216C13.3418 10.7675 13.4028 9.88802 13.403 9.01424C13.4033 8.13119 13.3441 7.24945 13.2216 6.39095V6.39091ZM2.86389 12.7325H6.60488C6.93903 14.2771 7.50119 15.6805 8.32872 16.7442C5.95526 16.2942 3.96642 14.7915 2.8637 12.7325H2.86389ZM7.7843 12.7325H11.8464C11.4301 14.426 10.7295 15.8662 9.80831 16.7022C8.89089 15.8657 8.20004 14.4237 7.78426 12.7325H7.7843ZM13.0188 12.7325H16.7737C15.6682 14.794 13.6693 16.2961 11.2948 16.7442C12.1238 15.6805 12.6845 14.2771 13.0187 12.7325H13.0188Z" fill="#101840" />
</svg>
