<svg width="50" height="50" viewBox="0 0 50 50" fill="none" xmlns="http://www.w3.org/2000/svg">
  <g clip-path="url(#clip0_161_6235)">
    <path
      d="M42.852 39.7407L41.6837 38.552L41.004 39.2203L41.235 40.1447L42.852 39.7407ZM45 48.333L44.596 49.95C45.164 50.092 45.7647 49.9253 46.1787 49.5113C46.5927 49.0977 46.759 48.4967 46.617 47.9287L45 48.333ZM31.6668 45L30.4883 43.8213L28.4068 45.903L31.2626 46.6167L31.6668 45ZM31.7494 44.9173L32.9279 46.0957C33.425 45.5987 33.5567 44.8433 33.2574 44.2077C32.9581 43.5717 32.292 43.1917 31.5923 43.258L31.7494 44.9173ZM23.3333 0V8.33333H26.6667V0H23.3333ZM29.9999 6.66627L19.9998 6.66633L19.9998 9.99967L29.9999 9.9996L29.9999 6.66627ZM50 26.6663C50 15.6205 41.0457 6.66617 29.9999 6.66627L29.9999 9.9996C39.2047 9.9995 46.6667 17.4615 46.6667 26.6663H50ZM44.0203 40.929C47.7093 37.3027 50 32.2504 50 26.6663H46.6667C46.6667 31.3204 44.7613 35.5263 41.6837 38.552L44.0203 40.929ZM46.617 47.9287L44.469 39.3363L41.235 40.1447L43.3833 48.7373L46.617 47.9287ZM31.2626 46.6167L44.596 49.95L45.4043 46.716L32.071 43.383L31.2626 46.6167ZM30.5709 43.7387L30.4883 43.8213L32.8453 46.1783L32.9279 46.0957L30.5709 43.7387ZM30 46.6663C30.6426 46.6663 31.2786 46.636 31.9065 46.5767L31.5923 43.258C31.0687 43.3077 30.5376 43.333 30 43.333V46.6663ZM20 46.6663H30V43.333H20V46.6663ZM0 26.6663C-3.0597e-05 37.712 8.95427 46.6663 20 46.6663V43.333C10.7952 43.333 3.33331 35.871 3.33333 26.6663H0ZM19.9998 6.66633C8.9542 6.66643 3.05971e-05 15.6207 0 26.6663H3.33333C3.33337 17.4616 10.7952 9.99977 19.9998 9.99967L19.9998 6.66633ZM25 26.6667C22.2386 26.6667 20 24.4281 20 21.6667H16.6667C16.6667 26.269 20.3976 30 25 30V26.6667ZM30 21.6667C30 24.4281 27.7614 26.6667 25 26.6667V30C29.6024 30 33.3333 26.269 33.3333 21.6667H30ZM25 16.6667C27.7614 16.6667 30 18.9052 30 21.6667H33.3333C33.3333 17.0643 29.6024 13.3333 25 13.3333V16.6667ZM25 13.3333C20.3976 13.3333 16.6667 17.0643 16.6667 21.6667H20C20 18.9052 22.2386 16.6667 25 16.6667V13.3333ZM25 40C28.5456 40 31.808 38.7677 34.3757 36.7093L32.2908 34.1087C30.2932 35.71 27.7606 36.6667 25 36.6667V40ZM15.6242 36.7093C18.1919 38.7677 21.4543 40 25 40V36.6667C22.2393 36.6667 19.7067 35.71 17.7091 34.1087L15.6242 36.7093Z"
      fill="#0032DA" />
  </g>
  <defs>
    <clipPath id="clip0_161_6235">
      <rect width="50" height="50" fill="white" />
    </clipPath>
  </defs>
</svg>