<svg width="51" height="50" viewBox="0 0 51 50" fill="none" xmlns="http://www.w3.org/2000/svg">
  <g clip-path="url(#clip0_161_6231)">
    <path
      d="M48.8833 22.3383H45.2111C43.8015 19.0742 41.4038 16.3635 38.3264 14.5582L38.3118 8.92372C38.3103 8.35291 38.0078 7.8252 37.5163 7.53527C37.0244 7.24512 36.4163 7.23607 35.9164 7.51113L31.6614 9.84979C31.0496 4.63226 26.604 0.569946 21.225 0.569946C15.4289 0.569946 10.7132 5.28521 10.7132 11.0809C10.7132 11.8996 10.8105 12.6955 10.9883 13.4609C4.73951 15.9783 0.5 22.1381 0.5 28.9773C0.5 34.4017 3.08872 39.4138 7.4692 42.5581V47.8133C7.4692 48.7062 8.19307 49.43 9.08594 49.43H17.2192C18.1116 49.43 18.8353 48.7068 18.8359 47.8144L18.8374 45.6988H28.2389L28.2311 47.8075C28.2296 48.2373 28.399 48.6501 28.7023 48.9545C29.0058 49.2591 29.4178 49.4303 29.8478 49.4303H37.4991C38.3919 49.4303 39.1158 48.7064 39.1158 47.8135V42.9036C42.487 40.6604 44.9249 37.2838 45.9865 33.4028H48.8833C49.7761 33.4028 50.5 32.6789 50.5 31.7861V23.9553C50.5 23.062 49.7761 22.3383 48.8833 22.3383ZM21.225 3.80342C25.2378 3.80342 28.5025 7.06814 28.5025 11.0809C28.5025 11.4956 28.4656 11.9017 28.3988 12.2977C28.3954 12.3141 28.3928 12.3307 28.3898 12.3473C27.7883 15.758 24.8056 18.3583 21.225 18.3583C17.2119 18.3583 13.9467 15.0936 13.9467 11.0809C13.9467 7.06814 17.2116 3.80342 21.225 3.80342ZM47.2665 30.1691H44.7013C43.9236 30.1691 43.2559 30.7229 43.1124 31.4873C42.3948 35.3073 40.0503 38.6341 36.6802 40.615C36.1861 40.9053 35.8826 41.4356 35.8826 42.0088V46.1968H31.4708L31.4788 44.0881C31.4803 43.6583 31.3109 43.2455 31.0074 42.9411C30.7038 42.6365 30.2919 42.4656 29.8621 42.4656H17.2218C16.3293 42.4656 15.6057 43.1888 15.605 44.0812L15.6035 46.1968H10.7027V41.702C10.7027 41.1511 10.422 40.638 9.95833 40.341C6.06049 37.8428 3.73347 33.5949 3.73347 28.9773C3.73347 23.458 7.15513 18.4877 12.1978 16.4584C12.6096 17.1467 13.0985 17.7832 13.6512 18.3581H12.33C11.4371 18.3581 10.7132 19.0818 10.7132 19.9749C10.7132 20.8677 11.4371 21.5916 12.33 21.5916H30.119C31.0119 21.5916 31.7357 20.8677 31.7357 19.9749C31.7357 19.0818 31.0119 18.3581 30.119 18.3581H28.798C30.0384 17.0678 30.9548 15.4642 31.4105 13.6771L35.0854 11.6573L35.0955 15.5204C35.097 16.1266 35.4376 16.681 35.9776 16.9565C39.0828 18.5405 41.429 21.2167 42.584 24.4922C42.8121 25.1389 43.4232 25.5713 44.1087 25.5713H47.2663V30.1691H47.2665Z"
      fill="#0032DA" />
  </g>
  <defs>
    <clipPath id="clip0_161_6231">
      <rect width="50" height="50" fill="white" transform="translate(0.5)" />
    </clipPath>
  </defs>
</svg>